<svg id="Layer_1" data-name="Layer 1" xmlns="http://www.w3.org/2000/svg" viewBox="0 0 300 300"><defs><style>.cls-1,.cls-4,.cls-5,.cls-6,.cls-7{fill:none;}.cls-1,.cls-4,.cls-7,.cls-8{stroke:#000;}.cls-1,.cls-4,.cls-5,.cls-6,.cls-7,.cls-8{stroke-miterlimit:10;}.cls-1,.cls-4,.cls-5,.cls-6,.cls-8{stroke-width:2px;}.cls-2{fill:#2e8826;}.cls-3{fill:#c03;}.cls-4{stroke-dasharray:1.57 1.57;}.cls-5{stroke:#2e8836;}.cls-6{stroke:#c03;}.cls-7{stroke-dasharray:1.58;}.cls-8{fill:#fff;}.cls-9{font-size:9.48px;font-family:Roboto-Bold, Roboto;font-weight:700;}.cls-10{letter-spacing:-0.01em;}.cls-11{letter-spacing:-0.01em;}</style></defs><title>Abandoned_baby</title><line class="cls-1" x1="104.56" y1="101.8" x2="104.56" y2="153.95"/><line class="cls-1" x1="59.52" y1="98.64" x2="59.52" y2="157.11"/><rect class="cls-2" x="52.41" y="104.17" width="14.22" height="44.25"/><line class="cls-1" x1="220.72" y1="155.53" x2="220.72" y2="210.84"/><rect class="cls-3" x="213.61" y="161.06" width="14.22" height="43.46"/><line class="cls-1" x1="52.41" y1="97.85" x2="117.21" y2="97.85"/><line class="cls-1" x1="53.99" y1="86.78" x2="115.63" y2="86.78"/><line class="cls-1" x1="81.85" y1="86.78" x2="81.85" y2="52.02"/><rect class="cls-2" x="74.54" y="64.66" width="14.22" height="4.74"/><rect class="cls-3" x="97.45" y="104.96" width="14.22" height="44.25"/><line class="cls-1" x1="264.18" y1="152.37" x2="264.18" y2="209.26"/><rect class="cls-2" x="257.07" y="157.11" width="14.22" height="42.67"/><line class="cls-1" x1="147.23" y1="46.49" x2="147.23" y2="47.28"/><line class="cls-4" x1="147.23" y1="48.84" x2="147.23" y2="251.94"/><line class="cls-1" x1="147.23" y1="252.72" x2="147.23" y2="253.51"/><line class="cls-5" x1="40.13" y1="164.13" x2="31.87" y2="186.35"/><polygon class="cls-2" points="43.55 167.48 43.12 156.39 35.34 164.31 43.55 167.48"/><line class="cls-5" x1="91.85" y1="98.58" x2="139.33" y2="138.94"/><polygon class="cls-2" points="96.2 96.57 85.68 93.04 90.32 103.12 96.2 96.57"/><line class="cls-6" x1="196.84" y1="204.91" x2="174.1" y2="189.51"/><polygon class="cls-3" points="192.78 207.46 203.67 209.62 197.78 200.21 192.78 207.46"/><line class="cls-6" x1="202.88" y1="144.8" x2="191.49" y2="124.71"/><polygon class="cls-3" points="198.1 145.15 206.7 152.17 205.91 141.09 198.1 145.15"/><line class="cls-6" x1="185.49" y1="106.87" x2="174.1" y2="85.2"/><polygon class="cls-3" points="180.71 107.22 189.31 114.24 188.53 103.17 180.71 107.22"/><line class="cls-6" x1="168.85" y1="70.91" x2="158.3" y2="45.69"/><polygon class="cls-3" points="164.06 70.71 171.81 78.66 172.29 67.57 164.06 70.71"/><line class="cls-5" x1="28.29" y1="200.79" x2="19.22" y2="219.54"/><polygon class="cls-2" points="31.32 204.51 32.14 193.44 23.52 200.43 31.32 204.51"/><line class="cls-5" x1="12.49" y1="232.4" x2="5" y2="244.82"/><polygon class="cls-2" points="15.51 236.12 16.34 225.05 7.71 232.03 15.51 236.12"/><line class="cls-1" x1="205.71" y1="210.05" x2="292.63" y2="210.05"/><line class="cls-1" x1="204.13" y1="217.96" x2="291.05" y2="217.96"/><line class="cls-1" x1="244.03" y1="252.72" x2="244.03" y2="217.96"/><rect class="cls-3" x="235.34" y="229.02" width="17.38" height="6.32"/><line class="cls-7" x1="5.79" y1="254.31" x2="295" y2="254.31"/><rect class="cls-8" x="119.18" y="137" width="52.15" height="79.02"/><text class="cls-9" transform="translate(139.23 150.47)">No<tspan class="cls-10" x="-9.65" y="11.38">o</tspan><tspan class="cls-11" x="-4.38" y="11.38">v</tspan><tspan x="0.4" y="11.38">erlap </tspan><tspan x="-11.99" y="22.76">between </tspan><tspan x="-13.58" y="34.14">real body </tspan><tspan x="-1.87" y="45.51">and </tspan><tspan x="-12.92" y="56.89">shadows</tspan></text></svg>