<svg id="Layer_1" data-name="Layer 1" xmlns="http://www.w3.org/2000/svg" viewBox="0 0 300 300"><defs><style>.cls-1,.cls-4,.cls-5,.cls-6,.cls-7{fill:none}.cls-1,.cls-4,.cls-7,.cls-8{stroke:#000}.cls-1,.cls-4,.cls-5,.cls-6,.cls-7,.cls-8{stroke-miterlimit:10}.cls-1,.cls-4,.cls-5,.cls-6,.cls-8{stroke-width:2px}.cls-2{fill:#2e8826}.cls-3{fill:#c03}.cls-4{stroke-dasharray:1.57 1.57}.cls-5{stroke:#2e8836}.cls-6{stroke:#c03}.cls-7{stroke-dasharray:1.58}.cls-8{fill:#fff}.cls-9{font-size:9.48px;font-family:Roboto-Bold,Roboto;font-weight:700}.cls-10,.cls-11{letter-spacing:-.01em}</style></defs><title>Abandoned_baby</title><path class="cls-1" d="M104.56 101.8v52.15M59.52 98.64v58.47"/><path class="cls-2" d="M52.41 104.17h14.22v44.25H52.41z"/><path class="cls-1" d="M220.72 155.53v55.31"/><path class="cls-3" d="M213.61 161.06h14.22v43.46h-14.22z"/><path class="cls-1" d="M52.41 97.85h64.8M53.99 86.78h61.64M81.85 86.78V52.02"/><path class="cls-2" d="M74.54 64.66h14.22v4.74H74.54z"/><path class="cls-3" d="M97.45 104.96h14.22v44.25H97.45z"/><path class="cls-1" d="M264.18 152.37v56.89"/><path class="cls-2" d="M257.07 157.11h14.22v42.67h-14.22z"/><path class="cls-1" d="M147.23 46.49v.79"/><path class="cls-4" d="M147.23 48.84v203.1"/><path class="cls-1" d="M147.23 252.72v.79"/><path class="cls-5" d="M40.13 164.13l-8.26 22.22"/><path class="cls-2" d="M43.55 167.48l-.43-11.09-7.78 7.92 8.21 3.17z"/><path class="cls-5" d="M91.85 98.58l47.48 40.36"/><path class="cls-2" d="M96.2 96.57l-10.52-3.53 4.64 10.08 5.88-6.55z"/><path class="cls-6" d="M196.84 204.91l-22.74-15.4"/><path class="cls-3" d="M192.78 207.46l10.89 2.16-5.89-9.41-5 7.25z"/><path class="cls-6" d="M202.88 144.8l-11.39-20.09"/><path class="cls-3" d="M198.1 145.15l8.6 7.02-.79-11.08-7.81 4.06z"/><path class="cls-6" d="M185.49 106.87L174.1 85.2"/><path class="cls-3" d="M180.71 107.22l8.6 7.02-.78-11.07-7.82 4.05z"/><path class="cls-6" d="M168.85 70.91L158.3 45.69"/><path class="cls-3" d="M164.06 70.71l7.75 7.95.48-11.09-8.23 3.14z"/><path class="cls-5" d="M28.29 200.79l-9.07 18.75"/><path class="cls-2" d="M31.32 204.51l.82-11.07-8.62 6.99 7.8 4.08z"/><path class="cls-5" d="M12.49 232.4L5 244.82"/><path class="cls-2" d="M15.51 236.12l.83-11.07-8.63 6.98 7.8 4.09z"/><path class="cls-1" d="M205.71 210.05h86.92M204.13 217.96h86.92M244.03 252.72v-34.76"/><path class="cls-3" d="M235.34 229.02h17.38v6.32h-17.38z"/><path class="cls-7" d="M5.79 254.31H295"/><path class="cls-8" d="M119.18 137h52.15v79.02h-52.15z"/><text class="cls-9" transform="translate(139.23 150.47)">No<tspan class="cls-10" x="-9.65" y="11.38">o</tspan><tspan class="cls-11" x="-4.38" y="11.38">v</tspan><tspan x=".4" y="11.38">erlap </tspan><tspan x="-11.99" y="22.76">between </tspan><tspan x="-13.58" y="34.14">real body </tspan><tspan x="-1.87" y="45.51">and </tspan><tspan x="-12.92" y="56.89">shadows</tspan></text></svg>