<svg id="Layer_1" data-name="Layer 1" xmlns="http://www.w3.org/2000/svg" viewBox="0 0 300 300"><defs><style>.cls-1,.cls-3{fill:none;stroke-miterlimit:10;stroke-width:2px}.cls-1{stroke:#2e8836}.cls-2{fill:#2e8836}.cls-3{stroke:#c03}.cls-4{fill:#c03}.cls-5{font-size:7.59px;font-family:Roboto-Light,Roboto}</style></defs><title>Bet_hold</title><path class="cls-1" d="M14.29 180.71v61.14"/><path class="cls-2" d="M5 186.9h18.58v48.76H5z"/><path class="cls-1" d="M35.96 134.27v61.15"/><path class="cls-2" d="M26.67 140.46h18.58v48.76H26.67z"/><path class="cls-1" d="M57.63 88.61v61.14"/><path class="cls-2" d="M48.34 94.8h18.58v48.76H48.34z"/><path class="cls-3" d="M100.97 115.7v61.14"/><path class="cls-4" d="M91.69 121.89h18.58v48.76H91.69z"/><path class="cls-3" d="M122.64 162.91v61.14"/><path class="cls-4" d="M113.36 169.1h18.58v48.76h-18.58z"/><path class="cls-3" d="M79.3 89.38v41.02"/><path class="cls-4" d="M70.01 88.61h18.58v35.6H70.01z"/><text class="cls-5" transform="translate(39.87 64.64)">Bearish Belt Hold</text><path class="cls-1" d="M241.13 180.71v53.4"/><path class="cls-2" d="M231.84 186.9h18.58v48.76h-18.58z"/><path class="cls-1" d="M263.42 134.27v61.15"/><path class="cls-2" d="M254.13 140.46h18.58v48.76h-18.58z"/><path class="cls-1" d="M285.71 88.61v61.14"/><path class="cls-2" d="M276.42 88.61H295v54.95h-18.58z"/><path class="cls-3" d="M196.55 115.7v59.59"/><path class="cls-4" d="M187.26 121.89h18.58v47.21h-18.58z"/><path class="cls-3" d="M218.84 160.59v50.3"/><path class="cls-4" d="M209.55 166.78h18.58v37.92h-18.58z"/><path class="cls-3" d="M174.26 89.38v41.02"/><path class="cls-4" d="M164.97 88.61h18.58v35.6h-18.58z"/><text class="cls-5" transform="translate(202.84 64.64)">Bullish Belt Hold</text></svg>