<svg id="Layer_1" data-name="Layer 1" xmlns="http://www.w3.org/2000/svg" viewBox="0 0 300 300"><defs><style>.cls-1,.cls-3{fill:none;stroke-miterlimit:10;stroke-width:2px;}.cls-1{stroke:#2e8836;}.cls-2{fill:#2e8836;}.cls-3{stroke:#c03;}.cls-4{fill:#c03;}.cls-5{font-size:7.59px;font-family:Roboto-Light, Roboto;}</style></defs><title>Bet_hold</title><line class="cls-1" x1="14.29" y1="180.71" x2="14.29" y2="241.85"/><rect class="cls-2" x="5" y="186.9" width="18.58" height="48.76"/><line class="cls-1" x1="35.96" y1="134.27" x2="35.96" y2="195.42"/><rect class="cls-2" x="26.67" y="140.46" width="18.58" height="48.76"/><line class="cls-1" x1="57.63" y1="88.61" x2="57.63" y2="149.75"/><rect class="cls-2" x="48.34" y="94.8" width="18.58" height="48.76"/><line class="cls-3" x1="100.97" y1="115.7" x2="100.97" y2="176.84"/><rect class="cls-4" x="91.69" y="121.89" width="18.58" height="48.76"/><line class="cls-3" x1="122.64" y1="162.91" x2="122.64" y2="224.05"/><rect class="cls-4" x="113.36" y="169.1" width="18.58" height="48.76"/><line class="cls-3" x1="79.3" y1="89.38" x2="79.3" y2="130.4"/><rect class="cls-4" x="70.01" y="88.61" width="18.58" height="35.6"/><text class="cls-5" transform="translate(39.87 64.64)">Bearish Belt Hold</text><line class="cls-1" x1="241.13" y1="180.71" x2="241.13" y2="234.11"/><rect class="cls-2" x="231.84" y="186.9" width="18.58" height="48.76"/><line class="cls-1" x1="263.42" y1="134.27" x2="263.42" y2="195.42"/><rect class="cls-2" x="254.13" y="140.46" width="18.58" height="48.76"/><line class="cls-1" x1="285.71" y1="88.61" x2="285.71" y2="149.75"/><rect class="cls-2" x="276.42" y="88.61" width="18.58" height="54.95"/><line class="cls-3" x1="196.55" y1="115.7" x2="196.55" y2="175.29"/><rect class="cls-4" x="187.26" y="121.89" width="18.58" height="47.21"/><line class="cls-3" x1="218.84" y1="160.59" x2="218.84" y2="210.89"/><rect class="cls-4" x="209.55" y="166.78" width="18.58" height="37.92"/><line class="cls-3" x1="174.26" y1="89.38" x2="174.26" y2="130.4"/><rect class="cls-4" x="164.97" y="88.61" width="18.58" height="35.6"/><text class="cls-5" transform="translate(202.84 64.64)">Bullish Belt Hold</text></svg>