<svg id="Layer_1" data-name="Layer 1" xmlns="http://www.w3.org/2000/svg" viewBox="0 0 300 300"><defs><style>.cls-1{font-size:7.57px;font-family:Roboto-Light,Roboto}.cls-2,.cls-3{fill:none;stroke:#000;stroke-miterlimit:10;stroke-width:2px}.cls-3{fill:#fff}</style></defs><title>breakaway_pattern</title><text class="cls-1" transform="translate(220.51 85.51)">Bullish</text><text class="cls-1" transform="translate(52.02 85.51)">Bearish</text><path class="cls-2" d="M15.43 145.37v68.64"/><path class="cls-3" d="M5 152.32h20.85v54.74H5z"/><path class="cls-2" d="M40.05 117.56v30.41"/><path class="cls-3" d="M29.62 124.51h20.85v16.51H29.62z"/><path class="cls-2" d="M64.67 107.14v32.15"/><path class="cls-3" d="M54.24 114.09h20.85v18.25H54.24z"/><path class="cls-2" d="M89.28 101.92v32.15"/><path class="cls-3" d="M78.86 108.87h20.85v18.25H78.86z"/><path class="cls-2" d="M113.61 112.35v42.58"/><path d="M103.19 119.3h20.85v28.67h-20.85z"/><path class="cls-2" d="M284.57 167.96v42.58"/><path class="cls-3" d="M274.15 174.91H295v28.67h-20.85z"/><path class="cls-2" d="M178.57 103.66v72.12"/><path d="M168.14 110.61h20.85v58.22h-20.85z"/><path class="cls-2" d="M205.07 174.04v30.41"/><path d="M194.64 180.99h20.85v16.51h-20.85z"/><path class="cls-2" d="M231.57 182.73v30.41"/><path d="M221.14 189.68h20.85v16.51h-20.85z"/><path class="cls-2" d="M258.07 190.55v30.41"/><path d="M247.64 197.5h20.85v16.51h-20.85z"/></svg>