<svg id="Layer_1" data-name="Layer 1" xmlns="http://www.w3.org/2000/svg" viewBox="0 0 300 300"><defs><style>.cls-1{font-size:7.57px;font-family:Roboto-Light, Roboto;}.cls-2{fill:none;}.cls-2,.cls-3{stroke:#000;stroke-miterlimit:10;stroke-width:2px;}.cls-3{fill:#fff;}</style></defs><title>breakaway_pattern</title><text class="cls-1" transform="translate(220.51 85.51)">Bullish</text><text class="cls-1" transform="translate(52.02 85.51)">Bearish</text><line class="cls-2" x1="15.43" y1="145.37" x2="15.43" y2="214.01"/><rect class="cls-3" x="5" y="152.32" width="20.85" height="54.74"/><line class="cls-2" x1="40.05" y1="117.56" x2="40.05" y2="147.97"/><rect class="cls-3" x="29.62" y="124.51" width="20.85" height="16.51"/><line class="cls-2" x1="64.67" y1="107.14" x2="64.67" y2="139.29"/><rect class="cls-3" x="54.24" y="114.09" width="20.85" height="18.25"/><line class="cls-2" x1="89.28" y1="101.92" x2="89.28" y2="134.07"/><rect class="cls-3" x="78.86" y="108.87" width="20.85" height="18.25"/><line class="cls-2" x1="113.61" y1="112.35" x2="113.61" y2="154.93"/><rect x="103.19" y="119.3" width="20.85" height="28.67"/><line class="cls-2" x1="284.57" y1="167.96" x2="284.57" y2="210.54"/><rect class="cls-3" x="274.15" y="174.91" width="20.85" height="28.67"/><line class="cls-2" x1="178.57" y1="103.66" x2="178.57" y2="175.78"/><rect x="168.14" y="110.61" width="20.85" height="58.22"/><line class="cls-2" x1="205.07" y1="174.04" x2="205.07" y2="204.45"/><rect x="194.64" y="180.99" width="20.85" height="16.51"/><line class="cls-2" x1="231.57" y1="182.73" x2="231.57" y2="213.14"/><rect x="221.14" y="189.68" width="20.85" height="16.51"/><line class="cls-2" x1="258.07" y1="190.55" x2="258.07" y2="220.96"/><rect x="247.64" y="197.5" width="20.85" height="16.51"/></svg>