<?xml version="1.0" encoding="UTF-8"?>
<svg width="300px" height="300px" viewBox="0 0 300 300" version="1.1" xmlns="http://www.w3.org/2000/svg" xmlns:xlink="http://www.w3.org/1999/xlink" style="background: #FFFFFF;">
    <!-- Generator: Sketch 44.1 (41455) - http://www.bohemiancoding.com/sketch -->
    <title>Bullish Piercing</title>
    <desc>Created with Sketch.</desc>
    <defs>
        <rect id="path-1" x="111" y="95" width="80" height="138" rx="10"></rect>
    </defs>
    <g id="Page-1" stroke="none" stroke-width="1" fill="none" fill-rule="evenodd">
        <g id="Bullish-Piercing">
            <g id="Group" transform="translate(0.000000, 25.000000)">
                <g id="Rectangle-4">
                    <use fill="#FFFFFF" fill-rule="evenodd" xlink:href="#path-1"></use>
                    <rect stroke="#000000" stroke-width="1" x="111.5" y="95.5" width="79" height="137" rx="10"></rect>
                </g>
                <g id="Group-3" transform="translate(114.000000, 104.000000)">
                    <g id="Group-2">
                        <rect id="Rectangle-3" fill="#000000" x="15" y="0" width="2" height="100"></rect>
                        <rect id="Rectangle" fill="#CC0033" x="0" y="15" width="32" height="70"></rect>
                    </g>
                    <g id="Group-2-Copy" transform="translate(42.000000, 18.000000)">
                        <rect id="Rectangle-3" fill="#000000" x="15" y="0" width="2" height="100"></rect>
                        <rect id="Rectangle" fill="#2E8836" x="0" y="15" width="32" height="70"></rect>
                    </g>
                </g>
                <g id="Group-2-Copy" opacity="0.299875453" transform="translate(195.000000, 128.000000)">
                    <rect id="Rectangle-3" fill="#000000" x="9" y="0" width="2" height="49"></rect>
                    <rect id="Rectangle" fill="#2E8836" x="0" y="8" width="20" height="28"></rect>
                </g>
                <g id="Group-2-Copy-2" opacity="0.299875453" transform="translate(221.000000, 88.000000)">
                    <rect id="Rectangle-3" fill="#000000" x="8" y="0" width="2" height="75"></rect>
                    <rect id="Rectangle" fill="#2E8836" x="0" y="8" width="18" height="42"></rect>
                </g>
                <g id="Group-2-Copy-3" opacity="0.299875453" transform="translate(245.000000, 67.000000)">
                    <rect id="Rectangle-3" fill="#000000" x="8" y="0" width="2" height="66"></rect>
                    <rect id="Rectangle" fill="#2E8836" x="0" y="26" width="18" height="29"></rect>
                </g>
                <g id="Group-2-Copy-4" opacity="0.299875453" transform="translate(269.000000, 9.000000)">
                    <rect id="Rectangle-3" fill="#000000" x="8" y="0" width="2" height="81"></rect>
                    <rect id="Rectangle" fill="#2E8836" x="0" y="26" width="18" height="45.675"></rect>
                </g>
                <g id="Group-2" opacity="0.299875453" transform="translate(90.000000, 78.000000)">
                    <rect id="Rectangle-3" fill="#000000" x="8" y="0" width="2" height="70"></rect>
                    <rect id="Rectangle" fill="#CC0033" x="0" y="15" width="18" height="28.8235294"></rect>
                </g>
                <g id="Group-2-Copy-5" opacity="0.299875453" transform="translate(69.000000, 35.000000)">
                    <rect id="Rectangle-3" fill="#000000" x="8" y="0" width="2" height="79"></rect>
                    <rect id="Rectangle" fill="#CC0033" x="0" y="10" width="18" height="41.9251337"></rect>
                </g>
                <g id="Group-2-Copy-6" opacity="0.299875453" transform="translate(21.000000, 18.000000)">
                    <rect id="Rectangle-3" fill="#000000" x="8" y="0" width="2" height="57"></rect>
                    <rect id="Rectangle" fill="#CC0033" x="0" y="10" width="18" height="16.4054871"></rect>
                </g>
                <g id="Group-2-Copy-7" opacity="0.299875453" transform="translate(0.000000, 26.000000)">
                    <rect id="Rectangle-3" fill="#000000" x="8" y="0" width="2" height="46"></rect>
                    <rect id="Rectangle" fill="#CC0033" x="0" y="10" width="18" height="30"></rect>
                </g>
                <g id="Group-2-Copy-3" opacity="0.299875453" transform="translate(46.000000, 33.000000)">
                    <rect id="Rectangle-3" fill="#000000" x="8" y="0" width="2" height="44"></rect>
                    <rect id="Rectangle" fill="#2E8836" x="0" y="10" width="18" height="28.3799992"></rect>
                </g>
                <text id="Bullish-Piercing" font-family="Roboto-Medium, Roboto" font-size="11" font-weight="400" fill="#000000">
                    <tspan x="112" y="10">Bullish Piercing</tspan>
                </text>
            </g>
        </g>
    </g>
</svg>