<svg width="300" height="300" viewBox="0 0 300 300" xmlns="http://www.w3.org/2000/svg" xmlns:xlink="http://www.w3.org/1999/xlink" style="background:#fff"><title>Bullish Piercing</title><defs><rect id="a" x="111" y="95" width="80" height="138" rx="10"/></defs><g fill="none" fill-rule="evenodd"><g transform="translate(0 25)"><use fill="#FFF" xlink:href="#a"/><rect stroke="#000" x="111.5" y="95.5" width="79" height="137" rx="10"/></g><path fill="#000" d="M129 129h2v100h-2z"/><path fill="#C03" d="M114 144h32v70h-32z"/><path fill="#000" d="M171 147h2v100h-2z"/><path fill="#2E8836" d="M156 162h32v70h-32z"/><g opacity=".3"><path fill="#000" d="M204 153h2v49h-2z"/><path fill="#2E8836" d="M195 161h20v28h-20z"/></g><g opacity=".3"><path fill="#000" d="M229 113h2v75h-2z"/><path fill="#2E8836" d="M221 121h18v42h-18z"/></g><g opacity=".3"><path fill="#000" d="M253 92h2v66h-2z"/><path fill="#2E8836" d="M245 118h18v29h-18z"/></g><g opacity=".3"><path fill="#000" d="M277 34h2v81h-2z"/><path fill="#2E8836" d="M269 60h18v45.675h-18z"/></g><g opacity=".3"><path fill="#000" d="M98 103h2v70h-2z"/><path fill="#C03" d="M90 118h18v28.824H90z"/></g><g opacity=".3"><path fill="#000" d="M77 60h2v79h-2z"/><path fill="#C03" d="M69 70h18v41.925H69z"/></g><g opacity=".3"><path fill="#000" d="M29 43h2v57h-2z"/><path fill="#C03" d="M21 53h18v16.405H21z"/></g><g opacity=".3"><path fill="#000" d="M8 51h2v46H8z"/><path fill="#C03" d="M0 61h18v30H0z"/></g><g opacity=".3"><path fill="#000" d="M54 58h2v44h-2z"/><path fill="#2E8836" d="M46 68h18v28.38H46z"/></g><text font-family="Roboto-Medium, Roboto" font-size="11" font-weight="400" fill="#000" transform="translate(0 25)"><tspan x="112" y="10">Bullish Piercing</tspan></text></g></svg>