<svg id="Layer_1" data-name="Layer 1" xmlns="http://www.w3.org/2000/svg" viewBox="0 0 300 300"><defs><style>.cls-1{fill:none;stroke:#000;stroke-miterlimit:10;stroke-width:2px}.cls-2{fill:#fff}.cls-3{font-size:16.71px;font-family:Roboto-Light,Roboto}</style></defs><title>counterattack</title><path class="cls-1" d="M77.66 166.1v68.23"/><path class="cls-2" d="M61.95 178.24h31.42v43.95H61.95z"/><path d="M92.37 179.24v42H63v-42h29.37m2-2H61v46h33.37v-46z"/><path class="cls-1" d="M34.99 131.29v58.48"/><path d="M18.28 129.89H51.7v48.74H18.28z"/><path class="cls-1" d="M5 133.37v18.11M110.83 157.05v20.19M127.55 138.94v20.2M200.55 150.78v57.1"/><path class="cls-2" d="M184.84 162.92h31.42v32.81h-31.42z"/><path d="M215.27 163.92v30.81h-29.43v-30.81h29.42m2-2h-33.42v34.81h33.42v-34.81z"/><path class="cls-1" d="M248.4 163.31v-58.48"/><path d="M231.69 115.97h33.42v48.74h-33.42z"/><path class="cls-1" d="M278.29 152.87v20.19M295 173.76v20.19M168.28 187.68v30.64"/><text class="cls-3" transform="translate(41.85 79.96)">Bullish</text><text class="cls-3" transform="translate(204.02 79.96)">Bearish</text></svg>