<svg id="Layer_1" data-name="Layer 1" xmlns="http://www.w3.org/2000/svg" viewBox="0 0 300 300"><defs><style>.cls-1{fill:none;stroke:#000;stroke-miterlimit:10;stroke-width:2px;}.cls-2{fill:#fff;}.cls-3{font-size:16.71px;font-family:Roboto-Light, Roboto;}</style></defs><title>counterattack</title><line class="cls-1" x1="77.66" y1="166.1" x2="77.66" y2="234.33"/><rect class="cls-2" x="61.95" y="178.24" width="31.42" height="43.95"/><path d="M92.37,179.24v42H63v-42H92.37m2-2H61v46H94.37v-46Z"/><line class="cls-1" x1="34.99" y1="131.29" x2="34.99" y2="189.77"/><rect x="18.28" y="129.89" width="33.42" height="48.74"/><line class="cls-1" x1="5" y1="133.37" x2="5" y2="151.48"/><line class="cls-1" x1="110.83" y1="157.05" x2="110.83" y2="177.24"/><line class="cls-1" x1="127.55" y1="138.94" x2="127.55" y2="159.14"/><line class="cls-1" x1="200.55" y1="150.78" x2="200.55" y2="207.88"/><rect class="cls-2" x="184.84" y="162.92" width="31.42" height="32.81"/><path d="M215.27,163.92v30.81H185.84V163.92h29.42m2-2H183.84v34.81h33.42V161.92Z"/><line class="cls-1" x1="248.4" y1="163.31" x2="248.4" y2="104.83"/><rect x="231.69" y="115.97" width="33.42" height="48.74"/><line class="cls-1" x1="278.29" y1="152.87" x2="278.29" y2="173.06"/><line class="cls-1" x1="295" y1="173.76" x2="295" y2="193.95"/><line class="cls-1" x1="168.28" y1="187.68" x2="168.28" y2="218.32"/><text class="cls-3" transform="translate(41.85 79.96)">Bullish</text><text class="cls-3" transform="translate(204.02 79.96)">Bearish</text></svg>