<svg id="Layer_1" data-name="Layer 1" xmlns="http://www.w3.org/2000/svg" viewBox="0 0 300 300"><defs><style>.cls-1{fill:none;stroke:#000;stroke-miterlimit:10;stroke-width:2px;}.cls-2{fill:#2e8836;}.cls-3{fill:#c03;}.cls-15,.cls-4,.cls-5{font-size:15.7px;}.cls-15,.cls-4{font-family:Roboto-Bold, Roboto;font-weight:700;}.cls-5{font-family:Roboto-Regular, Roboto;}.cls-6{letter-spacing:-0.01em;}.cls-7{letter-spacing:0em;}.cls-8{letter-spacing:-0.01em;}.cls-9{letter-spacing:-0.01em;}.cls-10{letter-spacing:0em;}.cls-11{letter-spacing:-0.04em;}.cls-12{letter-spacing:0em;}.cls-13{letter-spacing:-0.01em;}.cls-14{letter-spacing:-0.04em;}.cls-15{fill:#36b;text-decoration:underline;}</style></defs><title>Dark_cloud_cover</title><line class="cls-1" x1="93.82" y1="69.59" x2="93.82" y2="249.21"/><rect class="cls-2" x="70.27" y="95.11" width="47.11" height="138.39"/><line class="cls-1" x1="159.3" y1="45.06" x2="159.3" y2="200.13"/><rect class="cls-3" x="135.75" y="60.76" width="47.11" height="123.67"/><line class="cls-1" x1="193.45" y1="167.74" x2="50.15" y2="167.74"/><text class="cls-4" transform="translate(13.75 173.63)">50%</text><text class="cls-5" transform="translate(5 91.19)">Close of <tspan x="0" y="18.84">D</tspan><tspan class="cls-6" x="10.34" y="18.84">a</tspan><tspan class="cls-7" x="18.86" y="18.84">y 1</tspan></text><text class="cls-5" transform="translate(193.45 40.15)">Open of <tspan x="0" y="18.84">D</tspan><tspan class="cls-8" x="10.34" y="18.84">a</tspan><tspan x="18.86" y="18.84">y 2</tspan></text><text class="cls-5" transform="translate(193.45 187.37)">Close of<tspan x="0" y="18.84">D</tspan><tspan class="cls-8" x="10.34" y="18.84">a</tspan><tspan x="18.86" y="18.84">y 2 down</tspan><tspan x="0" y="37.69">g</tspan><tspan class="cls-9" x="8.93" y="37.69">r</tspan><tspan class="cls-10" x="14.16" y="37.69">eater than</tspan><tspan x="0" y="56.53">50% of D</tspan><tspan class="cls-8" x="61.67" y="56.53">a</tspan><tspan x="70.19" y="56.53">y 1</tspan><tspan class="cls-11" x="90.83" y="56.53">’</tspan><tspan class="cls-12" x="93.34" y="56.53">s</tspan><tspan x="0" y="75.38">Bull Candle</tspan></text><text class="cls-4" transform="translate(193.45 87.26)">Bears at least<tspan x="0" y="18.84">50%</tspan><tspan x="0" y="37.69">Retracement</tspan><tspan x="0" y="56.53">of D</tspan><tspan class="cls-13" x="28.68" y="56.53">a</tspan><tspan x="36.98" y="56.53">y 1</tspan><tspan class="cls-14" x="57.92" y="56.53">’</tspan><tspan x="60.36" y="56.53">s</tspan><tspan x="0" y="75.38">Gains</tspan></text><text class="cls-15" transform="translate(75.67 20.52)">Gap Up</text><text class="cls-5" transform="translate(5 234.48)">Open of <tspan x="0" y="18.84">D</tspan><tspan class="cls-6" x="10.34" y="18.84">a</tspan><tspan class="cls-7" x="18.86" y="18.84">y 1</tspan></text><text class="cls-4" transform="translate(71.05 269.82)">Bullish<tspan x="-0.11" y="18.84">Candle</tspan></text><text class="cls-4" transform="translate(133.34 224.67)">Bearish<tspan x="2.38" y="18.84">Candle</tspan></text><polygon points="121.46 54.27 132.97 57.58 129.66 46.08 121.46 54.27"/><line class="cls-1" x1="130.12" y1="54.74" x2="111.3" y2="35.92"/><polygon points="255.22 56.54 261.02 67.01 266.82 56.54 255.22 56.54"/><line class="cls-1" x1="261.02" y1="62.99" x2="261.02" y2="38.18"/><polygon points="255.22 170.39 261.02 180.87 266.82 170.39 255.22 170.39"/><line class="cls-1" x1="261.02" y1="176.84" x2="261.02" y2="152.04"/></svg>