<svg id="Layer_1" data-name="Layer 1" xmlns="http://www.w3.org/2000/svg" viewBox="0 0 300 300"><defs><style>.cls-1{fill:none;stroke:#000;stroke-miterlimit:10;stroke-width:2px}.cls-2{fill:#2e8836}.cls-3{fill:#c03}.cls-15,.cls-4,.cls-5{font-size:15.7px}.cls-15,.cls-4{font-family:Roboto-Bold,Roboto;font-weight:700}.cls-5{font-family:Roboto-Regular,Roboto}.cls-6{letter-spacing:-.01em}.cls-7{letter-spacing:0}.cls-8,.cls-9{letter-spacing:-.01em}.cls-10{letter-spacing:0}.cls-11{letter-spacing:-.04em}.cls-12{letter-spacing:0}.cls-13{letter-spacing:-.01em}.cls-14{letter-spacing:-.04em}.cls-15{fill:#36b;text-decoration:underline}</style></defs><title>Dark_cloud_cover</title><path class="cls-1" d="M93.82 69.59v179.62"/><path class="cls-2" d="M70.27 95.11h47.11V233.5H70.27z"/><path class="cls-1" d="M159.3 45.06v155.07"/><path class="cls-3" d="M135.75 60.76h47.11v123.67h-47.11z"/><path class="cls-1" d="M193.45 167.74H50.15"/><text class="cls-4" transform="translate(13.75 173.63)">50%</text><text class="cls-5" transform="translate(5 91.19)">Close of <tspan x="0" y="18.84">D</tspan><tspan class="cls-6" x="10.34" y="18.84">a</tspan><tspan class="cls-7" x="18.86" y="18.84">y 1</tspan></text><text class="cls-5" transform="translate(193.45 40.15)">Open of <tspan x="0" y="18.84">D</tspan><tspan class="cls-8" x="10.34" y="18.84">a</tspan><tspan x="18.86" y="18.84">y 2</tspan></text><text class="cls-5" transform="translate(193.45 187.37)">Close of<tspan x="0" y="18.84">D</tspan><tspan class="cls-8" x="10.34" y="18.84">a</tspan><tspan x="18.86" y="18.84">y 2 down</tspan><tspan x="0" y="37.69">g</tspan><tspan class="cls-9" x="8.93" y="37.69">r</tspan><tspan class="cls-10" x="14.16" y="37.69">eater than</tspan><tspan x="0" y="56.53">50% of D</tspan><tspan class="cls-8" x="61.67" y="56.53">a</tspan><tspan x="70.19" y="56.53">y 1</tspan><tspan class="cls-11" x="90.83" y="56.53">’</tspan><tspan class="cls-12" x="93.34" y="56.53">s</tspan><tspan x="0" y="75.38">Bull Candle</tspan></text><text class="cls-4" transform="translate(193.45 87.26)">Bears at least<tspan x="0" y="18.84">50%</tspan><tspan x="0" y="37.69">Retracement</tspan><tspan x="0" y="56.53">of D</tspan><tspan class="cls-13" x="28.68" y="56.53">a</tspan><tspan x="36.98" y="56.53">y 1</tspan><tspan class="cls-14" x="57.92" y="56.53">’</tspan><tspan x="60.36" y="56.53">s</tspan><tspan x="0" y="75.38">Gains</tspan></text><text class="cls-15" transform="translate(75.67 20.52)">Gap Up</text><text class="cls-5" transform="translate(5 234.48)">Open of <tspan x="0" y="18.84">D</tspan><tspan class="cls-6" x="10.34" y="18.84">a</tspan><tspan class="cls-7" x="18.86" y="18.84">y 1</tspan></text><text class="cls-4" transform="translate(71.05 269.82)">Bullish<tspan x="-.11" y="18.84">Candle</tspan></text><text class="cls-4" transform="translate(133.34 224.67)">Bearish<tspan x="2.38" y="18.84">Candle</tspan></text><path d="M121.46 54.27l11.51 3.31-3.31-11.5-8.2 8.19z"/><path class="cls-1" d="M130.12 54.74L111.3 35.92"/><path d="M255.22 56.54l5.8 10.47 5.8-10.47h-11.6z"/><path class="cls-1" d="M261.02 62.99V38.18"/><path d="M255.22 170.39l5.8 10.48 5.8-10.48h-11.6z"/><path class="cls-1" d="M261.02 176.84v-24.8"/></svg>