<svg id="Layer_1" data-name="Layer 1" xmlns="http://www.w3.org/2000/svg" viewBox="0 0 300 300"><defs><style>.cls-1{fill:none;stroke:#000;stroke-miterlimit:10;stroke-width:2px}.cls-2{fill:#fff}.cls-3{font-size:9.27px;font-family:Roboto-Regular,Roboto}</style></defs><title>Doji_star</title><path class="cls-1" d="M219.92 129.93v91.5"/><path d="M206.02 147.88h27.8v55.6h-27.8z"/><path class="cls-1" d="M190.76 121.24v59.07M281.1 158.31v59.07M295 143.25v59.07M176.86 106.18v59.08M260.54 211.59v30.69M268.65 222.59h-16.22M52.7 129.93v91.5"/><path class="cls-2" d="M39.8 148.88h25.8v53.6H39.8z"/><path d="M64.59 149.88v51.6H40.8v-51.6h23.8m2-2H38.8v55.6h27.8v-55.6z"/><path class="cls-1" d="M21.22 166.99v59.08M109.24 128.19v59.07M123.14 142.09v59.07M93.32 107.34v20.85M101.43 116.03H85.21M5 181.47v59.07"/><text class="cls-3" transform="translate(29.32 65.65)">Doji Star Bearish</text><text class="cls-3" transform="translate(202.8 65.65)">Doji Star Bullish</text></svg>