<svg id="Layer_1" data-name="Layer 1" xmlns="http://www.w3.org/2000/svg" viewBox="0 0 300 300"><defs><style>.cls-1{fill:none;stroke:#000;stroke-miterlimit:10;stroke-width:2px;}.cls-2{fill:#fff;}.cls-3{font-size:9.27px;font-family:Roboto-Regular, Roboto;}</style></defs><title>Doji_star</title><line class="cls-1" x1="219.92" y1="129.93" x2="219.92" y2="221.43"/><rect x="206.02" y="147.88" width="27.8" height="55.6"/><line class="cls-1" x1="190.76" y1="121.24" x2="190.76" y2="180.31"/><line class="cls-1" x1="281.1" y1="158.31" x2="281.1" y2="217.38"/><line class="cls-1" x1="295" y1="143.25" x2="295" y2="202.32"/><line class="cls-1" x1="176.86" y1="106.18" x2="176.86" y2="165.26"/><line class="cls-1" x1="260.54" y1="211.59" x2="260.54" y2="242.28"/><line class="cls-1" x1="268.65" y1="222.59" x2="252.43" y2="222.59"/><line class="cls-1" x1="52.7" y1="129.93" x2="52.7" y2="221.43"/><rect class="cls-2" x="39.8" y="148.88" width="25.8" height="53.6"/><path d="M64.59,149.88v51.6H40.8v-51.6h23.8m2-2H38.8v55.6h27.8v-55.6Z"/><line class="cls-1" x1="21.22" y1="166.99" x2="21.22" y2="226.07"/><line class="cls-1" x1="109.24" y1="128.19" x2="109.24" y2="187.26"/><line class="cls-1" x1="123.14" y1="142.09" x2="123.14" y2="201.16"/><line class="cls-1" x1="93.32" y1="107.34" x2="93.32" y2="128.19"/><line class="cls-1" x1="101.43" y1="116.03" x2="85.21" y2="116.03"/><line class="cls-1" x1="5" y1="181.47" x2="5" y2="240.54"/><text class="cls-3" transform="translate(29.32 65.65)">Doji Star Bearish</text><text class="cls-3" transform="translate(202.8 65.65)">Doji Star Bullish</text></svg>