<svg id="Layer_1" data-name="Layer 1" xmlns="http://www.w3.org/2000/svg" viewBox="0 0 300 300"><defs><style>.cls-1{fill:none;stroke:#000;stroke-miterlimit:10;stroke-width:2px;}.cls-2{fill:#fff;}.cls-3{font-size:16.48px;font-family:Roboto-Bold, Roboto;font-weight:700;}</style></defs><title>Engulfing_pattern</title><line class="cls-1" x1="97" y1="89.04" x2="97" y2="204.37"/><rect class="cls-2" x="83.88" y="99.46" width="26.24" height="94.5"/><path d="M109.12,100.46V193H84.88v-92.5h24.24m2-2H82.88V195h28.24V98.46Z"/><line class="cls-1" x1="57.41" y1="119.64" x2="57.41" y2="178.48"/><rect x="43.29" y="129.06" width="28.24" height="40.01"/><line class="cls-1" x1="34.42" y1="127.88" x2="34.42" y2="93.75"/><line class="cls-1" x1="24.61" y1="109.64" x2="24.61" y2="75.51"/><line class="cls-1" x1="14.81" y1="90.81" x2="14.81" y2="56.68"/><line class="cls-1" x1="5" y1="83.75" x2="5" y2="49.62"/><text class="cls-3" transform="translate(92.1 82.57)">B</text><text class="cls-3" transform="translate(53.27 195.55)">A</text><text class="cls-3" transform="translate(22.74 226.14)">Bullish<tspan x="0" y="19.77">Engulfing</tspan></text><line class="cls-1" x1="280.88" y1="55.51" x2="280.88" y2="167.89"/><rect x="266.76" y="61.98" width="28.24" height="96.5"/><line class="cls-1" x1="241.29" y1="83.16" x2="241.29" y2="142"/><rect class="cls-2" x="228.17" y="93.58" width="26.24" height="38.01"/><path d="M253.41,94.57v36H229.17v-36h24.24m2-2H227.17v40h28.24v-40Z"/><line class="cls-1" x1="218.3" y1="148.47" x2="218.3" y2="114.35"/><line class="cls-1" x1="210.06" y1="167.3" x2="210.06" y2="133.17"/><line class="cls-1" x1="201.82" y1="183.78" x2="201.82" y2="157.89"/><line class="cls-1" x1="193.58" y1="197.9" x2="193.58" y2="172.01"/><line class="cls-1" x1="185.35" y1="215.55" x2="185.35" y2="189.66"/><text class="cls-3" transform="translate(275.97 186.13)">B</text><text class="cls-3" transform="translate(237.15 77.87)">A</text><text class="cls-3" transform="translate(204.85 215.55)">Bearish<tspan x="0" y="19.77">Engulfing</tspan></text></svg>