<svg id="Layer_1" data-name="Layer 1" xmlns="http://www.w3.org/2000/svg" viewBox="0 0 300 300"><defs><style>.cls-1{fill:none;stroke:#000;stroke-miterlimit:10;stroke-width:2px}.cls-2{fill:#fff}.cls-3{font-size:16.48px;font-family:Roboto-Bold,Roboto;font-weight:700}</style></defs><title>Engulfing_pattern</title><path class="cls-1" d="M97 89.04v115.33"/><path class="cls-2" d="M83.88 99.46h26.24v94.5H83.88z"/><path d="M109.12 100.46V193H84.88v-92.5h24.24m2-2H82.88V195h28.24V98.46z"/><path class="cls-1" d="M57.41 119.64v58.84"/><path d="M43.29 129.06h28.24v40.01H43.29z"/><path class="cls-1" d="M34.42 127.88V93.75M24.61 109.64V75.51M14.81 90.81V56.68M5 83.75V49.62"/><text class="cls-3" transform="translate(92.1 82.57)">B</text><text class="cls-3" transform="translate(53.27 195.55)">A</text><text class="cls-3" transform="translate(22.74 226.14)">Bullish<tspan x="0" y="19.77">Engulfing</tspan></text><path class="cls-1" d="M280.88 55.51v112.38"/><path d="M266.76 61.98H295v96.5h-28.24z"/><path class="cls-1" d="M241.29 83.16V142"/><path class="cls-2" d="M228.17 93.58h26.24v38.01h-26.24z"/><path d="M253.41 94.57v36h-24.24v-36h24.24m2-2h-28.24v40h28.24v-40z"/><path class="cls-1" d="M218.3 148.47v-34.12M210.06 167.3v-34.13M201.82 183.78v-25.89M193.58 197.9v-25.89M185.35 215.55v-25.89"/><text class="cls-3" transform="translate(275.97 186.13)">B</text><text class="cls-3" transform="translate(237.15 77.87)">A</text><text class="cls-3" transform="translate(204.85 215.55)">Bearish<tspan x="0" y="19.77">Engulfing</tspan></text></svg>