<?xml version="1.0" encoding="utf-8"?>
<!-- Generator: Adobe Illustrator 21.1.0, SVG Export Plug-In . SVG Version: 6.00 Build 0)  -->
<svg version="1.1" id="Layer_1" xmlns="http://www.w3.org/2000/svg" xmlns:xlink="http://www.w3.org/1999/xlink" x="0px" y="0px"
	 viewBox="0 0 300 300" style="enable-background:new 0 0 300 300;" xml:space="preserve">
<style type="text/css">
	.st0{fill:#1E1B1C;}
	.st1{fill:#CC0033;}
	.st2{fill:#2E8836;}
	.st3{font-family:'Roboto-Regular';}
	.st4{font-size:14px;}
	.st5{fill:#323CA8;}
</style>
<title>300x300</title>
<g>
	<rect x="148.8" y="63.2" class="st0" width="2.5" height="32.5"/>
	<rect x="128.8" y="72.8" class="st1" width="42.4" height="16.9"/>
	<rect x="79.6" y="86.5" class="st0" width="1.8" height="166.6"/>
	<rect x="59.3" y="115.5" class="st2" width="42.4" height="126.2"/>
	<rect x="216.2" y="110.8" class="st0" width="2.5" height="120.3"/>
	<rect x="196.2" y="120.4" class="st1" width="42.4" height="94.4"/>
	
		<rect x="190.1" y="82.4" transform="matrix(0.9505 -0.3107 0.3107 0.9505 -18.64 63.7257)" class="st0" width="1.2" height="15.9"/>
	<path class="st0" d="M195.5,105c-2.5-3.2-5.5-5.9-8.8-8.2l6.2,0.2l4.9-3.8C196.4,97,195.6,100.9,195.5,105z"/>
	
		<rect x="101.7" y="84.5" transform="matrix(0.8211 -0.5708 0.5708 0.8211 -28.9562 77.7904)" class="st0" width="15.9" height="1.2"/>
	<path class="st0" d="M122.4,76.6c-2.3,3.3-4.1,6.9-5.3,10.8l-1.6-6l-5.1-3.6C114.5,78,118.5,77.6,122.4,76.6z"/>
	<text transform="matrix(1 0 0 1 105.2585 23.0492)"><tspan x="0" y="0" class="st3 st4">Day 2 Candle</tspan><tspan x="0" y="16.8" class="st3 st4">Can be Bullish</tspan><tspan x="0" y="33.6" class="st3 st4">or Bearish</tspan></text>
	<g>
		<g>
			<g>
				<rect x="269.6" y="151.9" class="st0" width="1.2" height="39.1"/>
				<path class="st0" d="M270.2,198.4c-1.4-3.8-3.3-7.3-5.8-10.5l5.8,2.1l5.8-2.1C273.5,191.1,271.5,194.6,270.2,198.4z"/>
			</g>
			<g>
				<text transform="matrix(1 0 0 1 252.4272 124.0005)"><tspan x="0" y="0" class="st3 st4">Open</tspan><tspan x="0" y="16.8" class="st3 st4">Day 3</tspan></text>
				<text transform="matrix(1 0 0 1 252.4276 217.6671)"><tspan x="0" y="0" class="st3 st4">Close</tspan><tspan x="0" y="16.8" class="st3 st4">Day 3</tspan></text>
			</g>
		</g>
		<g>
			<g>
				<rect x="29.2" y="159.3" class="st0" width="1.2" height="39.1"/>
				<path class="st0" d="M35.7,162.4l-5.8-2.1l-5.8,2.1c2.5-3.2,4.5-6.7,5.8-10.5C31.2,155.7,33.2,159.2,35.7,162.4z"/>
			</g>
			<g>
				<text transform="matrix(1 0 0 1 12.0939 124.0005)"><tspan x="0" y="0" class="st3 st4">Close</tspan><tspan x="0" y="16.8" class="st3 st4">Day 1</tspan></text>
				<text transform="matrix(1 0 0 1 12.0942 217.6672)"><tspan x="0" y="0" class="st3 st4">Open</tspan><tspan x="0" y="16.8" class="st3 st4">Day 1</tspan></text>
			</g>
		</g>
	</g>
	<text transform="matrix(1 0 0 1 59.4272 268.3338)"><tspan x="0" y="0" class="st3 st4">Bullish</tspan><tspan x="0" y="16.8" class="st3 st4">Candle</tspan></text>
	<text transform="matrix(1 0 0 1 194.7606 245.6671)"><tspan x="0" y="0" class="st3 st4">Bearish</tspan><tspan x="0" y="16.8" class="st3 st4">Candle</tspan></text>
	<text transform="matrix(1 0 0 1 88.7606 107.0004)" class="st5 st3 st4" style="text-decoration: underline;">Gap Up</text>
	<text transform="matrix(1 0 0 1 181.7606 74.6671)" class="st5 st3 st4" style="text-decoration: underline;">Gap Down</text>
</g>
</svg>
