<svg id="Layer_1" xmlns="http://www.w3.org/2000/svg" viewBox="0 0 300 300"><style>.st0{fill:#1e1b1c}.st1{fill:#c03}.st2{fill:#2e8836}.st3{font-family:&apos;Roboto-Regular&apos;}.st4{font-size:14px}.st5{fill:#323ca8}</style><title>300x300</title><path class="st0" d="M148.8 63.2h2.5v32.5h-2.5z"/><path class="st1" d="M128.8 72.8h42.4v16.9h-42.4z"/><path class="st0" d="M79.6 86.5h1.8v166.6h-1.8z"/><path class="st2" d="M59.3 115.5h42.4v126.2H59.3z"/><path class="st0" d="M216.2 110.8h2.5v120.3h-2.5z"/><path class="st1" d="M196.2 120.4h42.4v94.4h-42.4z"/><path transform="rotate(-18.103 190.705 90.376)" class="st0" d="M190.1 82.4h1.2v15.9h-1.2z"/><path class="st0" d="M195.5 105c-2.5-3.2-5.5-5.9-8.8-8.2l6.2.2 4.9-3.8c-1.4 3.8-2.2 7.7-2.3 11.8z"/><path transform="rotate(-34.805 109.616 85.085)" class="st0" d="M101.7 84.5h15.9v1.2h-15.9z"/><path class="st0" d="M122.4 76.6c-2.3 3.3-4.1 6.9-5.3 10.8l-1.6-6-5.1-3.6c4.1.2 8.1-.2 12-1.2z"/><text transform="translate(105.258 23.05)"><tspan x="0" y="0" class="st3 st4">Day 2 Candle</tspan><tspan x="0" y="16.8" class="st3 st4">Can be Bullish</tspan><tspan x="0" y="33.6" class="st3 st4">or Bearish</tspan></text><path class="st0" d="M269.6 151.9h1.2V191h-1.2z"/><path class="st0" d="M270.2 198.4c-1.4-3.8-3.3-7.3-5.8-10.5l5.8 2.1 5.8-2.1c-2.5 3.2-4.5 6.7-5.8 10.5z"/><text transform="translate(252.427 124)"><tspan x="0" y="0" class="st3 st4">Open</tspan><tspan x="0" y="16.8" class="st3 st4">Day 3</tspan></text><text transform="translate(252.428 217.667)"><tspan x="0" y="0" class="st3 st4">Close</tspan><tspan x="0" y="16.8" class="st3 st4">Day 3</tspan></text><path class="st0" d="M29.2 159.3h1.2v39.1h-1.2z"/><path class="st0" d="M35.7 162.4l-5.8-2.1-5.8 2.1c2.5-3.2 4.5-6.7 5.8-10.5 1.3 3.8 3.3 7.3 5.8 10.5z"/><g><text transform="translate(12.094 124)"><tspan x="0" y="0" class="st3 st4">Close</tspan><tspan x="0" y="16.8" class="st3 st4">Day 1</tspan></text><text transform="translate(12.094 217.667)"><tspan x="0" y="0" class="st3 st4">Open</tspan><tspan x="0" y="16.8" class="st3 st4">Day 1</tspan></text></g><text transform="translate(59.427 268.334)"><tspan x="0" y="0" class="st3 st4">Bullish</tspan><tspan x="0" y="16.8" class="st3 st4">Candle</tspan></text><text transform="translate(194.76 245.667)"><tspan x="0" y="0" class="st3 st4">Bearish</tspan><tspan x="0" y="16.8" class="st3 st4">Candle</tspan></text><text transform="translate(88.76 107)" class="st5 st3 st4" text-decoration="underline">Gap Up</text><text transform="translate(181.76 74.667)" class="st5 st3 st4" text-decoration="underline">Gap Down</text></svg>