<svg id="Layer_1" xmlns="http://www.w3.org/2000/svg" viewBox="0 0 300 300"><style>.st0{font-family:&apos;Roboto-Regular&apos;}.st1{font-size:18px}</style><title>300x300</title><path d="M124.2 90.3h1.2v121.2h-1.2z"/><path d="M107.5 99.5H142v102.7h-34.5z"/><path d="M142.6 202.8h-35.7V98.9h35.7v103.9zm-34.5-1.2h33.3V100.1h-33.3v101.5zM229.6 75.1h1.2v121.2h-1.2z"/><path d="M212.9 84.3h34.5V187h-34.5z"/><path d="M248 187.6h-35.7V83.7H248v103.9zm-34.5-1.2h33.3V84.9h-33.3v101.5zM155.9 62.7h32.9v1.2h-32.9z"/><path d="M171.8 46.9h1.2v32.8h-1.2zM52 237h1.2v50.5H52zM67.8 220.4H69v50.5h-1.2zM83.5 203.8h1.2v50.5h-1.2z"/><text transform="translate(48.583 32.118)" class="st0 st1">Bearish Evening Doji Star</text></svg>