<?xml version="1.0" encoding="utf-8"?>
<!-- Generator: Adobe Illustrator 21.1.0, SVG Export Plug-In . SVG Version: 6.00 Build 0)  -->
<svg version="1.1" id="Layer_1" xmlns="http://www.w3.org/2000/svg" xmlns:xlink="http://www.w3.org/1999/xlink" x="0px" y="0px"
	 viewBox="0 0 300 300" style="enable-background:new 0 0 300 300;" xml:space="preserve">
<style type="text/css">
	.st0{font-family:'Roboto-Regular';}
	.st1{font-size:18px;}
</style>
<title>300x300</title>
<rect x="124.2" y="90.3" width="1.2" height="121.2"/>
<rect x="107.5" y="99.5" width="34.5" height="102.7"/>
<path d="M142.6,202.8h-35.7V98.9h35.7V202.8z M108.1,201.6h33.3V100.1h-33.3L108.1,201.6z"/>
<rect x="229.6" y="75.1" width="1.2" height="121.2"/>
<rect x="212.9" y="84.3" width="34.5" height="102.7"/>
<path d="M248,187.6h-35.7V83.7H248V187.6z M213.5,186.4h33.3V84.9h-33.3L213.5,186.4z"/>
<rect x="155.9" y="62.7" width="32.9" height="1.2"/>
<rect x="171.8" y="46.9" width="1.2" height="32.8"/>
<rect x="52" y="237" width="1.2" height="50.5"/>
<rect x="67.8" y="220.4" width="1.2" height="50.5"/>
<rect x="83.5" y="203.8" width="1.2" height="50.5"/>
<text transform="matrix(1 0 0 1 48.5831 32.1178)" class="st0 st1">Bearish Evening Doji Star</text>
</svg>
