<svg id="Layer_1" xmlns="http://www.w3.org/2000/svg" viewBox="0 0 300 300"><style>.st0{fill:#fff}.st1{fill:none}.st2{font-family:&apos;Roboto-Regular&apos;}.st3{font-size:12px}</style><title>300x300</title><path d="M74.4 189.2h1.4v64.9h-1.4z"/><path d="M66.4 195.5H84v52.3H66.4z"/><path d="M84.7 248.5h-19v-53.8h19v53.8zm-17.6-1.4h16.1v-50.9H67.1v50.9zM102.9 151.9h1.4v64.9h-1.4z"/><path class="st0" d="M94.8 158.2h17.6v52.3H94.8z"/><path d="M113.2 211.3h-19v-53.8h19v53.8zm-17.6-1.5h16.1V159H95.6v50.8zM46 116.1h1.5V181H46z"/><path d="M37.9 122.5h17.6v52.3H37.9z"/><path d="M56.2 175.5h-19v-53.7h19v53.7zM38.6 174h16.1v-50.8H38.6V174zM12.5 95.1h1.4v20.4h-1.4zM25.6 100.4h1.5v20.4h-1.5zM246.9 95.1h1.4V160h-1.4z"/><path class="st0" d="M238.9 101.5h17.6v52.3h-17.6z"/><path d="M257.2 154.5h-19v-53.7h19v53.7zm-17.6-1.5h16.1v-50.8h-16.1V153zM216.6 176.7h1.4v64.9h-1.4z"/><path class="st0" d="M208.5 183h17.6v52.3h-17.6z"/><path d="M226.8 236h-19v-53.8h19V236zm-17.6-1.4h16.1v-50.9h-16.1v50.9zM277.3 138h1.5v64.9h-1.5z"/><path d="M269.2 144.3h17.6v52.3h-17.6z"/><path d="M287.5 197.3h-19v-53.7h19v53.7zm-17.6-1.4H286V145h-16.1v50.9z"/><path class="st1" d="M182.6 261.9v-20.3"/><path d="M181.8 241.6h1.4V262h-1.4z"/><path class="st1" d="M195.6 256.7v-20.4"/><path d="M194.9 236.3h1.4v20.4h-1.4z"/><text transform="translate(45.693 48.333)" class="st2 st3">Bearish</text><text transform="translate(217.693 48.333)" class="st2 st3">Bullish</text></svg>