<?xml version="1.0" encoding="utf-8"?>
<!-- Generator: Adobe Illustrator 21.1.0, SVG Export Plug-In . SVG Version: 6.00 Build 0)  -->
<svg version="1.1" id="Layer_1" xmlns="http://www.w3.org/2000/svg" xmlns:xlink="http://www.w3.org/1999/xlink" x="0px" y="0px"
	 viewBox="0 0 300 300" style="enable-background:new 0 0 300 300;" xml:space="preserve">
<style type="text/css">
	.st0{fill:#FFFFFF;}
	.st1{fill:none;}
	.st2{font-family:'Roboto-Regular';}
	.st3{font-size:12px;}
</style>
<title>300x300</title>
<g>
	<rect x="74.4" y="189.2" width="1.4" height="64.9"/>
	<rect x="66.4" y="195.5" width="17.6" height="52.3"/>
	<path d="M84.7,248.5h-19v-53.8h19V248.5z M67.1,247.1h16.1v-50.9H67.1V247.1z"/>
	<rect x="102.9" y="151.9" width="1.4" height="64.9"/>
	<rect x="94.8" y="158.2" class="st0" width="17.6" height="52.3"/>
	<path d="M113.2,211.3h-19v-53.8h19V211.3z M95.6,209.8h16.1V159H95.6V209.8z"/>
	<rect x="46" y="116.1" width="1.5" height="64.9"/>
	<rect x="37.9" y="122.5" width="17.6" height="52.3"/>
	<path d="M56.2,175.5h-19v-53.7h19V175.5z M38.6,174h16.1v-50.8H38.6V174z"/>
	<rect x="12.5" y="95.1" width="1.4" height="20.4"/>
	<rect x="25.6" y="100.4" width="1.5" height="20.4"/>
	<rect x="246.9" y="95.1" width="1.4" height="64.9"/>
	<rect x="238.9" y="101.5" class="st0" width="17.6" height="52.3"/>
	<path d="M257.2,154.5h-19v-53.7h19V154.5z M239.6,153h16.1v-50.8h-16.1L239.6,153z"/>
	<rect x="216.6" y="176.7" width="1.4" height="64.9"/>
	<rect x="208.5" y="183" class="st0" width="17.6" height="52.3"/>
	<path d="M226.8,236h-19v-53.8h19V236z M209.2,234.6h16.1v-50.9h-16.1V234.6z"/>
	<rect x="277.3" y="138" width="1.5" height="64.9"/>
	<rect x="269.2" y="144.3" width="17.6" height="52.3"/>
	<path d="M287.5,197.3h-19v-53.7h19V197.3z M269.9,195.9H286V145h-16.1V195.9z"/>
	<line class="st1" x1="182.6" y1="261.9" x2="182.6" y2="241.6"/>
	<rect x="181.8" y="241.6" width="1.4" height="20.4"/>
	<line class="st1" x1="195.6" y1="256.7" x2="195.6" y2="236.3"/>
	<rect x="194.9" y="236.3" width="1.4" height="20.4"/>
	<g>
		<text transform="matrix(1 0 0 1 45.6926 48.3328)" class="st2 st3">Bearish</text>
		<text transform="matrix(1 0 0 1 217.6926 48.3328)" class="st2 st3">Bullish</text>
	</g>
</g>
</svg>
