<?xml version="1.0" encoding="utf-8"?>
<!-- Generator: Adobe Illustrator 21.1.0, SVG Export Plug-In . SVG Version: 6.00 Build 0)  -->
<svg version="1.1" id="Layer_1" xmlns="http://www.w3.org/2000/svg" xmlns:xlink="http://www.w3.org/1999/xlink" x="0px" y="0px"
	 viewBox="0 0 300 300" style="enable-background:new 0 0 300 300;" xml:space="preserve">
<style type="text/css">
	.st0{fill:#231F20;}
	.st1{font-family:'Roboto-Regular';}
	.st2{font-size:18px;}
</style>
<title>300x300</title>
<g>
	
		<rect x="144.9" y="40.1" transform="matrix(5.236017e-03 -1 1 5.236017e-03 92.5022 197.6598)" class="st0" width="1.4" height="24.5"/>
	<path class="st0" d="M166.4,52.4c-4.4,1.6-8.5,3.8-12.2,6.7l2.5-6.8l-2.4-6.8C157.9,48.5,162.1,50.8,166.4,52.4z"/>
	<rect x="173.5" y="36.8" width="1.4" height="168.2"/>
	<rect x="146.9" y="203.8" width="54.6" height="1.4"/>
	<text transform="matrix(1 0 0 1 162.4454 28.96)" class="st1 st2">High</text>
	<text transform="matrix(1 0 0 1 44.5556 41.96)"><tspan x="0" y="0" class="st1 st2">Long Higher</tspan><tspan x="16.6" y="21.6" class="st1 st2">Shadow</tspan></text>
	<text transform="matrix(1 0 0 1 95.112 207.96)" class="st1 st2">Open</text>
	<text transform="matrix(1 0 0 1 163.7787 221.6266)" class="st1 st2">Low</text>
	<text transform="matrix(1 0 0 1 210.4454 209.96)" class="st1 st2">Close</text>
	<text transform="matrix(1 0 0 1 153.8243 259.96)"><tspan x="0" y="0" class="st1 st2">Bearish</tspan><tspan x="-16.6" y="21.6" class="st1 st2">Candlestick</tspan></text>
</g>
</svg>
