<svg id="Layer_1" data-name="Layer 1" xmlns="http://www.w3.org/2000/svg" viewBox="0 0 300 300"><defs><style>.cls-1{fill:#231f20}.cls-2{fill:#fff}.cls-3{fill:#323ca8}</style></defs><title>300x300</title><path class="cls-1" d="M139.86 114.85h1.15v84.47h-1.15z"/><path class="cls-2" d="M132.63 129.11h15.6v50.19h-15.6z"/><path d="M148.81 179.88h-16.75v-51.35h16.76zm-15.6-1.15h14.45v-49h-14.45z"/><path class="cls-1" d="M197.25 201.84h1.15v73.37h-1.15z"/><path class="cls-2" d="M190.03 198.31h15.6v18.32h-15.6z"/><path d="M206.21 217.2h-16.76v-19.47h16.76zM190.6 216h14.45v-17.11H190.6zM63.33 12.5h1.15v48.13h-1.15z"/><path d="M56.11 23.3h15.6v17.49h-15.6z"/><path d="M72.29 41.36H55.53V22.72h16.76zm-15.6-1.15h14.44V23.88H56.68zM158.99 130.14h1.15v48.13h-1.15z"/><path d="M158.99 118.03h1.15v59.77h-1.15z"/><path d="M151.76 131.95h15.6v26.47h-15.6z"/><path d="M167.94 159h-16.75v-27.63h16.76zm-15.6-1.15h14.45v-25.32h-14.45zM101.6 69.01h1.15v58.49h-1.15z"/><path d="M94.37 79.81h15.6v32.08h-15.6z"/><path d="M110.55 112.47H93.79V79.24h16.76zm-15.6-1.15h14.45V80.39H94.95zM216.38 157.82h1.15v37.74h-1.15z"/><path class="cls-2" d="M209.16 162.85h15.6v32.08h-15.6z"/><path d="M225.34 195.51h-16.76v-33.24h16.76zm-15.6-1.15h14.45v-30.93h-14.46zM235.51 120.77h1.15v37.74h-1.15z"/><path class="cls-2" d="M228.29 125.8h15.6v32.08h-15.6z"/><path d="M244.47 158.46h-16.76v-33.24h16.76zm-15.6-1.15h14.45v-30.93h-14.45zM82.46 50.75h1.15v48.13h-1.15z"/><path d="M75.24 30.99h15.6v50.55h-15.6z"/><path d="M91.42 82.12H74.66V30.41h16.76zM75.82 81h14.45V31.57H75.82zM120.73 110.53h1.15v60.65h-1.15z"/><path d="M113.5 106.4h15.6v34.92h-15.6z"/><path d="M129.68 141.9h-16.76v-36.08h16.76zm-15.6-1.15h14.45V107h-14.45zM178.12 161.09h1.15v60.65h-1.15z"/><path d="M170.89 156.95h15.6v34.92h-15.6z"/><path d="M187.07 192.45h-16.75v-36.08h16.76zm-15.6-1.15h14.45v-33.77h-14.45z"/><path class="cls-3" d="M198.09 287.5c-12.51 0-22.7-22.18-22.7-49.43s10.18-49.43 22.7-49.43 22.7 22.18 22.7 49.43-10.18 49.43-22.7 49.43zm0-97.71c-11.88 0-21.54 21.66-21.54 48.28s9.66 48.28 21.54 48.28 21.54-21.66 21.54-48.28-9.63-48.28-21.54-48.28z"/></svg>