<svg id="Layer_1" data-name="Layer 1" xmlns="http://www.w3.org/2000/svg" viewBox="0 0 300 300"><defs><style>.cls-1{fill:#231f20;}.cls-2{fill:#fff;}.cls-3{fill:#323ca8;}</style></defs><title>300x300</title><rect class="cls-1" x="139.86" y="114.85" width="1.15" height="84.47"/><rect class="cls-2" x="132.63" y="129.11" width="15.6" height="50.19"/><path d="M148.81,179.88H132.06V128.53h16.76Zm-15.6-1.15h14.45v-49H133.21Z"/><rect class="cls-1" x="197.25" y="201.84" width="1.15" height="73.37"/><rect class="cls-2" x="190.03" y="198.31" width="15.6" height="18.32"/><path d="M206.21,217.2H189.45V197.73h16.76ZM190.6,216h14.45V198.89H190.6Z"/><rect x="63.33" y="12.5" width="1.15" height="48.13"/><rect x="56.11" y="23.3" width="15.6" height="17.49"/><path d="M72.29,41.36H55.53V22.72H72.29Zm-15.6-1.15H71.13V23.88H56.68Z"/><rect x="158.99" y="130.14" width="1.15" height="48.13"/><rect x="158.99" y="118.03" width="1.15" height="59.77"/><rect x="151.76" y="131.95" width="15.6" height="26.47"/><path d="M167.94,159H151.19V131.37h16.76Zm-15.6-1.15h14.45V132.53H152.34Z"/><rect x="101.6" y="69.01" width="1.15" height="58.49"/><rect x="94.37" y="79.81" width="15.6" height="32.08"/><path d="M110.55,112.47H93.79V79.24h16.76Zm-15.6-1.15H109.4V80.39H94.95Z"/><rect x="216.38" y="157.82" width="1.15" height="37.74"/><rect class="cls-2" x="209.16" y="162.85" width="15.6" height="32.08"/><path d="M225.34,195.51H208.58V162.27h16.76Zm-15.6-1.15h14.45V163.43H209.73Z"/><rect x="235.51" y="120.77" width="1.15" height="37.74"/><rect class="cls-2" x="228.29" y="125.8" width="15.6" height="32.08"/><path d="M244.47,158.46H227.71V125.22h16.76Zm-15.6-1.15h14.45V126.38H228.87Z"/><rect x="82.46" y="50.75" width="1.15" height="48.13"/><rect x="75.24" y="30.99" width="15.6" height="50.55"/><path d="M91.42,82.12H74.66V30.41H91.42ZM75.82,81H90.27V31.57H75.82Z"/><rect x="120.73" y="110.53" width="1.15" height="60.65"/><rect x="113.5" y="106.4" width="15.6" height="34.92"/><path d="M129.68,141.9H112.92V105.82h16.76Zm-15.6-1.15h14.45V107H114.08Z"/><rect x="178.12" y="161.09" width="1.15" height="60.65"/><rect x="170.89" y="156.95" width="15.6" height="34.92"/><path d="M187.07,192.45H170.32V156.37h16.76Zm-15.6-1.15h14.45V157.53H171.47Z"/><path class="cls-3" d="M198.09,287.5c-12.51,0-22.7-22.18-22.7-49.43s10.18-49.43,22.7-49.43,22.7,22.18,22.7,49.43S210.61,287.5,198.09,287.5Zm0-97.71c-11.88,0-21.54,21.66-21.54,48.28s9.66,48.28,21.54,48.28,21.54-21.66,21.54-48.28S210,189.79,198.09,189.79Z"/></svg>