<svg id="Layer_1" data-name="Layer 1" xmlns="http://www.w3.org/2000/svg" viewBox="0 0 300 300"><defs><style>.cls-1{fill:#231f20}.cls-2{fill:#fff}.cls-3{fill:#323ca8}</style></defs><title>300x300</title><path class="cls-1" d="M174.13 134.01h1.48v62.94h-1.48z"/><path class="cls-2" d="M164.75 123.26h20.08v60h-20.08z"/><path d="M185.57 184H164v-61.48h21.56zm-20.08-1.48h18.59V124h-18.59zM74.88 169.28h1.48v52.48h-1.48z"/><path d="M74.88 156.07h1.48v65.17h-1.48z"/><path d="M65.59 163.65h20.08v30.33H65.59z"/><path d="M86.41 194.72H64.85V162.9h21.56zm-20.08-1.48h18.59v-28.85H66.33zM248.45 68.56h1.48v33.35h-1.48z"/><path d="M248.42 60.17h1.48v41.41h-1.48z"/><path d="M239.13 55.32h20.08v40.89h-20.08z"/><path d="M259.95 97h-21.57V54.57h21.56zm-20.08-1.48h18.59V56.06h-18.59zM273.21 110.3h1.48v33.35h-1.48z"/><path d="M273.21 101.91h1.48v41.41h-1.48z"/><path d="M263.92 97.05H284v25.88h-20.08z"/><path d="M284.74 123.68h-21.56V96.31h21.56zm-20.08-1.48h18.59V97.79h-18.59zM223.47 43.7h1.48v72.68h-1.48z"/><path d="M223.63 31.75h1.48v84.65h-1.48z"/><path d="M214.34 34.54h20.08v16.82h-20.08z"/><path d="M235.15 52.1h-21.56V33.8h21.56zm-20.08-1.48h18.59V35.28h-18.58zM124.47 178.21h1.48v11.36h-1.48z"/><path d="M115.17 163.52h20.08v16.64h-20.08z"/><path d="M136 180.9h-21.57v-18.12H136zm-20.08-1.48h18.59v-15.16h-18.6zM25.3 217.64h1.48v69.86H25.3z"/><path class="cls-2" d="M16 224.12h20.08v59.42H16z"/><path d="M36.82 284.28H15.26v-60.91h21.56zm-20.07-1.48h18.59v-57.94H16.75zM198.84 42.36h1.48v80.66h-1.48z"/><path class="cls-2" d="M189.54 51.98h20.08v65.22h-20.08z"/><path d="M210.36 117.94H188.8v-66.7h21.56zm-20.08-1.48h18.59V52.72h-18.58zM50.77 158.67l.06 74.67M50.06 158.67h1.48v74.67h-1.48z"/><path class="cls-2" d="M40.8 179.26h20.08v50.11H40.8z"/><path d="M61.62 230.12H40.05v-51.6h21.57zm-20.08-1.48h18.59V180H41.54zM100.42 166.46v45.45M99.68 166.46h1.48v45.45h-1.48z"/><path class="cls-2" d="M90.38 181.49h20.08v5.45H90.38z"/><path d="M111.2 187.68H89.64v-6.93h21.56zm-20.08-1.48h18.59v-4H91.12zM150 156.48v29.91M149.26 156.48h1.48v29.91h-1.48z"/><path class="cls-2" d="M139.96 165.17h20.08v5.45h-20.08z"/><path d="M160.78 171.35h-21.56v-6.93h21.56zm-20.08-1.48h18.6v-4h-18.6z"/><path class="cls-3" d="M223.78 139.71c-6.59 0-12.72-6.71-17.26-18.9-4.46-12-6.91-27.83-6.91-44.71s2.45-32.76 6.91-44.71c4.54-12.18 10.67-18.9 17.26-18.9S236.5 19.21 241 31.4c4.46 12 6.91 27.83 6.91 44.71s-2.45 32.76-6.91 44.71c-4.5 12.18-10.63 18.89-17.22 18.89zm0-125.73c-12.51 0-22.69 27.87-22.69 62.12s10.18 62.12 22.69 62.12 22.69-27.87 22.69-62.12S236.29 14 223.78 14z"/></svg>