<svg id="Layer_1" data-name="Layer 1" xmlns="http://www.w3.org/2000/svg" viewBox="0 0 300 300"><defs><style>.cls-1{fill:#231f20;}.cls-2{fill:#fff;}.cls-3{fill:#323ca8;}</style></defs><title>300x300</title><rect class="cls-1" x="174.13" y="134.01" width="1.48" height="62.94"/><rect class="cls-2" x="164.75" y="123.26" width="20.08" height="60"/><path d="M185.57,184H164V122.52h21.56Zm-20.08-1.48h18.59V124H165.49Z"/><rect x="74.88" y="169.28" width="1.48" height="52.48"/><rect x="74.88" y="156.07" width="1.48" height="65.17"/><rect x="65.59" y="163.65" width="20.08" height="30.33"/><path d="M86.41,194.72H64.85V162.9H86.41Zm-20.08-1.48H84.92V164.39H66.33Z"/><rect x="248.45" y="68.56" width="1.48" height="33.35"/><rect x="248.42" y="60.17" width="1.48" height="41.41"/><rect x="239.13" y="55.32" width="20.08" height="40.89"/><path d="M259.95,97H238.38V54.57h21.56Zm-20.08-1.48h18.59V56.06H239.87Z"/><rect x="273.21" y="110.3" width="1.48" height="33.35"/><rect x="273.21" y="101.91" width="1.48" height="41.41"/><rect x="263.92" y="97.05" width="20.08" height="25.88"/><path d="M284.74,123.68H263.18V96.31h21.56Zm-20.08-1.48h18.59V97.79H264.66Z"/><rect x="223.47" y="43.7" width="1.48" height="72.68"/><rect x="223.63" y="31.75" width="1.48" height="84.65"/><rect x="214.34" y="34.54" width="20.08" height="16.82"/><path d="M235.15,52.1H213.59V33.8h21.56Zm-20.08-1.48h18.59V35.28H215.08Z"/><rect x="124.47" y="178.21" width="1.48" height="11.36"/><rect x="115.17" y="163.52" width="20.08" height="16.64"/><path d="M136,180.9H114.43V162.78H136Zm-20.08-1.48h18.59V164.26H115.91Z"/><rect x="25.3" y="217.64" width="1.48" height="69.86"/><rect class="cls-2" x="16" y="224.12" width="20.08" height="59.42"/><path d="M36.82,284.28H15.26V223.37H36.82ZM16.75,282.8H35.34V224.86H16.75Z"/><rect x="198.84" y="42.36" width="1.48" height="80.66"/><rect class="cls-2" x="189.54" y="51.98" width="20.08" height="65.22"/><path d="M210.36,117.94H188.8V51.24h21.56Zm-20.08-1.48h18.59V52.72H190.29Z"/><line x1="50.77" y1="158.67" x2="50.83" y2="233.34"/><rect x="50.06" y="158.67" width="1.48" height="74.67"/><rect class="cls-2" x="40.8" y="179.26" width="20.08" height="50.11"/><path d="M61.62,230.12H40.05v-51.6H61.62Zm-20.08-1.48H60.13V180H41.54Z"/><line x1="100.42" y1="166.46" x2="100.42" y2="211.91"/><rect x="99.68" y="166.46" width="1.48" height="45.45"/><rect class="cls-2" x="90.38" y="181.49" width="20.08" height="5.45"/><path d="M111.2,187.68H89.64v-6.93H111.2Zm-20.08-1.48h18.59v-4H91.12Z"/><line x1="150" y1="156.48" x2="150" y2="186.39"/><rect x="149.26" y="156.48" width="1.48" height="29.91"/><rect class="cls-2" x="139.96" y="165.17" width="20.08" height="5.45"/><path d="M160.78,171.35H139.22v-6.93h21.56Zm-20.08-1.48H159.3v-4H140.7Z"/><path class="cls-3" d="M223.78,139.71c-6.59,0-12.72-6.71-17.26-18.9-4.46-12-6.91-27.83-6.91-44.71s2.45-32.76,6.91-44.71c4.54-12.18,10.67-18.9,17.26-18.9S236.5,19.21,241,31.4c4.46,12,6.91,27.83,6.91,44.71s-2.45,32.76-6.91,44.71C236.5,133,230.37,139.71,223.78,139.71Zm0-125.73c-12.51,0-22.69,27.87-22.69,62.12s10.18,62.12,22.69,62.12,22.69-27.87,22.69-62.12S236.29,14,223.78,14Z"/></svg>