<svg id="Layer_1" xmlns="http://www.w3.org/2000/svg" viewBox="0 0 300 300"><style>.st0{fill:#231f20}.st1{fill:none}.st2{fill:#fff}.st3{font-family:&apos;Roboto-Regular&apos;}.st4{font-size:18px}</style><title>300x300</title><path class="st0" d="M269.5 101.8h1.3v30.9h-1.3zM197.9 120.5h1.3v46.2h-1.3zM176.7 76.9h1.3v14.6h-1.3zM258.7 138h1.3v21.8h-1.3zM280.3 73.7h1.3v21.8h-1.3zM187.3 97.5h1.3v26.9h-1.3zM211.9 149.9h1.3v43.7h-1.3z"/><path d="M207.4 161.4h10.4v32.7h-10.4z"/><path d="M218.4 194.7h-11.6v-34h11.6v34zm-10.4-1.3h9.1V162H208v31.4z"/><path class="st1" d="M228.8 189.9v-22.6"/><path d="M228.1 167.3h1.3V190h-1.3z"/><path class="st2" d="M223.5 172.3h10.4v10.6h-10.4z"/><path d="M234.5 183.6h-11.6v-11.9h11.6v11.9zm-10.3-1.3h9.1v-9.4h-9.1v9.4z"/><path class="st1" d="M245 182.5v-33.1"/><path d="M244.3 149.4h1.3v33.2h-1.3z"/><path class="st2" d="M239.7 154.8h10.4v20.7h-10.4z"/><path d="M250.7 176.2h-11.6v-22h11.6v22zm-10.3-1.3h9.1v-19.5h-9.1v19.5z"/><g><path class="st0" d="M41.2 118.7h1.3v20.7h-1.3zM122.3 166h1.3v17.1h-1.3zM101 113.7h1.3v26.6H101zM111.7 134.6h1.3v36.7h-1.3zM32.8 139.6h1.3v14.6h-1.3zM24.5 160.5h1.3v20.9h-1.3zM55 85.2h1.3v43.7H55z"/><path class="st2" d="M50.5 91h10.4v32.7H50.5z"/><path d="M61.5 124.3H49.8v-34h11.6v34zM51.1 123h9.1V91.6h-9.1V123z"/><path class="st1" d="M71.7 118.8V93"/><path d="M71.1 93h1.3v25.8h-1.3z"/><path d="M66.5 98.7h10.4v12.1H66.5z"/><path d="M77.5 111.4H65.9V98h11.6v13.4zm-10.4-1.2h9.1V99.3h-9.1v10.9z"/><path class="st1" d="M87.7 134.6V98.5"/><path d="M87.1 98.5h1.3v36h-1.3z"/><path d="M82.5 104.2h10.4v21.9H82.5z"/><path d="M93.6 126.7H81.9v-23.1h11.7v23.1zm-10.4-1.2h9.1v-20.6h-9.1v20.6z"/></g><text transform="translate(11.654 216.023)" class="st3 st4">Bearish Harami</text><text transform="translate(169.926 215.96)" class="st3 st4">Bullish Harami</text></svg>