<?xml version="1.0" encoding="utf-8"?>
<!-- Generator: Adobe Illustrator 21.1.0, SVG Export Plug-In . SVG Version: 6.00 Build 0)  -->
<svg version="1.1" id="Layer_1" xmlns="http://www.w3.org/2000/svg" xmlns:xlink="http://www.w3.org/1999/xlink" x="0px" y="0px"
	 viewBox="0 0 300 300" style="enable-background:new 0 0 300 300;" xml:space="preserve">
<style type="text/css">
	.st0{fill:#2E8836;}
	.st1{fill:#323CA8;}
	.st2{fill:#CC0033;}
	.st3{font-family:'Roboto-Regular';}
	.st4{font-size:14px;}
</style>
<title>300x300</title>
<g>
	<rect x="65.5" y="185.8" width="44.2" height="1.6"/>
	<rect x="86.8" y="164.5" width="1.6" height="44.2"/>
	<rect x="33.6" y="106.7" class="st0" width="1.6" height="162.8"/>
	<rect x="14.3" y="136.5" class="st0" width="40.1" height="96.1"/>
	<rect x="86.8" y="88.7" class="st1" width="1.6" height="45"/>
	<path class="st1" d="M87.6,143.3c-1.7-4.5-4.6-10.2-7.6-13.7l7.6,2.8l7.6-2.8C92.2,133.1,89.3,138.8,87.6,143.3z"/>
	<rect x="240.6" y="185.8" width="44.2" height="1.6"/>
	<rect x="261.9" y="164.5" width="1.6" height="44.2"/>
	<rect x="208.2" y="106.7" class="st2" width="1.6" height="162.8"/>
	<rect x="188.9" y="136.5" class="st2" width="40.1" height="96.1"/>
	<rect x="261.9" y="88.7" class="st1" width="1.6" height="45"/>
	<path class="st1" d="M262.7,143.3c-1.7-4.6-4.6-10.2-7.6-13.7l7.6,2.8l7.6-2.8C267.3,133.1,264.4,138.8,262.7,143.3z"/>
	<text transform="matrix(1 0 0 1 63.7926 42.4699)"><tspan x="0" y="0" class="st1 st3 st4">Bearish</tspan><tspan x="0.9" y="16.8" class="st1 st3 st4">Harami</tspan><tspan x="5.6" y="33.6" class="st1 st3 st4">Cross</tspan></text>
	<text transform="matrix(1 0 0 1 241.3528 42.4699)"><tspan x="0" y="0" class="st1 st3 st4">Bullish</tspan><tspan x="-1.6" y="16.8" class="st1 st3 st4">Harami</tspan><tspan x="3.2" y="33.6" class="st1 st3 st4">Cross</tspan></text>
</g>
</svg>
