<svg id="Layer_1" xmlns="http://www.w3.org/2000/svg" viewBox="0 0 300 300"><style>.st0{fill:#2e8836}.st1{fill:#323ca8}.st2{fill:#c03}.st3{font-family:&apos;Roboto-Regular&apos;}.st4{font-size:14px}</style><title>300x300</title><path d="M65.5 185.8h44.2v1.6H65.5z"/><path d="M86.8 164.5h1.6v44.2h-1.6z"/><path class="st0" d="M33.6 106.7h1.6v162.8h-1.6z"/><path class="st0" d="M14.3 136.5h40.1v96.1H14.3z"/><path class="st1" d="M86.8 88.7h1.6v45h-1.6z"/><path class="st1" d="M87.6 143.3c-1.7-4.5-4.6-10.2-7.6-13.7l7.6 2.8 7.6-2.8c-3 3.5-5.9 9.2-7.6 13.7z"/><path d="M240.6 185.8h44.2v1.6h-44.2z"/><path d="M261.9 164.5h1.6v44.2h-1.6z"/><path class="st2" d="M208.2 106.7h1.6v162.8h-1.6z"/><path class="st2" d="M188.9 136.5H229v96.1h-40.1z"/><path class="st1" d="M261.9 88.7h1.6v45h-1.6z"/><path class="st1" d="M262.7 143.3c-1.7-4.6-4.6-10.2-7.6-13.7l7.6 2.8 7.6-2.8c-3 3.5-5.9 9.2-7.6 13.7z"/><text transform="translate(63.793 42.47)"><tspan x="0" y="0" class="st1 st3 st4">Bearish</tspan><tspan x=".9" y="16.8" class="st1 st3 st4">Harami</tspan><tspan x="5.6" y="33.6" class="st1 st3 st4">Cross</tspan></text><text transform="translate(241.353 42.47)"><tspan x="0" y="0" class="st1 st3 st4">Bullish</tspan><tspan x="-1.6" y="16.8" class="st1 st3 st4">Harami</tspan><tspan x="3.2" y="33.6" class="st1 st3 st4">Cross</tspan></text></svg>