<?xml version="1.0" encoding="utf-8"?>
<!-- Generator: Adobe Illustrator 21.1.0, SVG Export Plug-In . SVG Version: 6.00 Build 0)  -->
<svg version="1.1" id="Layer_1" xmlns="http://www.w3.org/2000/svg" xmlns:xlink="http://www.w3.org/1999/xlink" x="0px" y="0px"
	 viewBox="0 0 300 300" style="enable-background:new 0 0 300 300;" xml:space="preserve">
<style type="text/css">
	.st0{fill:#231F20;}
	.st1{fill:none;}
	.st2{fill:#FFFFFF;}
	.st3{font-family:'Roboto-Regular';}
	.st4{font-size:18px;}
</style>
<title>300x300</title>
<g>
	<g>
		<rect x="269.5" y="101.8" class="st0" width="1.3" height="30.9"/>
		<rect x="197.9" y="120.5" class="st0" width="1.3" height="46.2"/>
		<rect x="176.7" y="76.9" class="st0" width="1.3" height="14.6"/>
		<rect x="258.7" y="138" class="st0" width="1.3" height="21.8"/>
		<rect x="280.3" y="73.7" class="st0" width="1.3" height="21.8"/>
		<rect x="187.3" y="97.5" class="st0" width="1.3" height="26.9"/>
		<rect x="211.9" y="149.9" class="st0" width="1.3" height="43.7"/>
		<rect x="207.4" y="161.4" width="10.4" height="32.7"/>
		<path d="M218.4,194.7h-11.6v-34h11.6V194.7z M208,193.4h9.1V162H208L208,193.4z"/>
		<line class="st1" x1="228.8" y1="189.9" x2="228.8" y2="167.3"/>
		<rect x="228.1" y="167.3" width="1.3" height="22.7"/>
		<rect x="223.5" y="172.3" class="st2" width="10.4" height="10.6"/>
		<path d="M234.5,183.6h-11.6v-11.9h11.6V183.6z M224.2,182.3h9.1v-9.4h-9.1L224.2,182.3z"/>
		<line class="st1" x1="245" y1="182.5" x2="245" y2="149.4"/>
		<rect x="244.3" y="149.4" width="1.3" height="33.2"/>
		<rect x="239.7" y="154.8" class="st2" width="10.4" height="20.7"/>
		<path d="M250.7,176.2h-11.6v-22h11.6L250.7,176.2z M240.4,174.9h9.1v-19.5h-9.1V174.9z"/>
	</g>
	<g>
		<rect x="41.2" y="118.7" class="st0" width="1.3" height="20.7"/>
		<rect x="122.3" y="166" class="st0" width="1.3" height="17.1"/>
		<rect x="101" y="113.7" class="st0" width="1.3" height="26.6"/>
		<rect x="111.7" y="134.6" class="st0" width="1.3" height="36.7"/>
		<rect x="32.8" y="139.6" class="st0" width="1.3" height="14.6"/>
		<rect x="24.5" y="160.5" class="st0" width="1.3" height="20.9"/>
		<rect x="55" y="85.2" class="st0" width="1.3" height="43.7"/>
		<rect x="50.5" y="91" class="st2" width="10.4" height="32.7"/>
		<path d="M61.5,124.3H49.8v-34h11.6V124.3z M51.1,123h9.1V91.6h-9.1L51.1,123z"/>
		<line class="st1" x1="71.7" y1="118.8" x2="71.7" y2="93"/>
		<rect x="71.1" y="93" width="1.3" height="25.8"/>
		<rect x="66.5" y="98.7" width="10.4" height="12.1"/>
		<path d="M77.5,111.4H65.9V98h11.6V111.4z M67.1,110.2h9.1V99.3h-9.1V110.2z"/>
		<line class="st1" x1="87.7" y1="134.6" x2="87.7" y2="98.5"/>
		<rect x="87.1" y="98.5" width="1.3" height="36"/>
		<rect x="82.5" y="104.2" width="10.4" height="21.9"/>
		<path d="M93.6,126.7H81.9v-23.1h11.7V126.7z M83.2,125.5h9.1v-20.6h-9.1L83.2,125.5z"/>
	</g>
	<text transform="matrix(1 -3.954032e-04 3.954032e-04 1 11.6537 216.0227)" class="st3 st4">Bearish Harami</text>
	<text transform="matrix(1 -3.954032e-04 3.954032e-04 1 169.9259 215.9602)" class="st3 st4">Bullish Harami</text>
</g>
</svg>
