<?xml version="1.0" encoding="utf-8"?>
<!-- Generator: Adobe Illustrator 21.1.0, SVG Export Plug-In . SVG Version: 6.00 Build 0)  -->
<svg version="1.1" id="Layer_1" xmlns="http://www.w3.org/2000/svg" xmlns:xlink="http://www.w3.org/1999/xlink" x="0px" y="0px"
	 viewBox="0 0 300 300" style="enable-background:new 0 0 300 300;" xml:space="preserve">
<style type="text/css">
	.st0{fill:#FFFFFF;}
	.st1{font-family:'Roboto-Regular';}
	.st2{font-size:18px;}
</style>
<title>300x300</title>
<g>
	<g>
		<rect x="16.6" y="170.9" width="109.7" height="1.4"/>
		<rect x="44.9" y="122.4" width="13.6" height="37.6"/>
		<path d="M59.3,160.7H44.2v-39h15.1V160.7z M45.6,159.2h12.2v-36.2H45.6L45.6,159.2z"/>
		<rect x="104.1" y="82" width="13.7" height="109.7"/>
		<path d="M118.5,192.4h-15.1V81.2h15.1V192.4z M104.8,191H117V82.7h-12.2V191z"/>
		<rect x="84.4" y="80.9" class="st0" width="13.7" height="24.4"/>
		<path d="M98.7,106H83.7V80.2h15.1V106z M85.1,104.6h12.2v-23H85.1V104.6z"/>
		<rect x="64.6" y="93" class="st0" width="13.6" height="57.6"/>
		<path d="M79,151.3H63.9v-59H79V151.3z M65.4,149.9h12.2V93.8H65.4L65.4,149.9z"/>
		<rect x="25.2" y="113.4" class="st0" width="13.6" height="57.6"/>
		<path d="M39.6,171.7H24.5v-59h15.1V171.7z M25.9,170.3h12.2v-56.1H25.9L25.9,170.3z"/>
	</g>
	<g>
		<rect x="176.8" y="100.1" width="109.7" height="1.4"/>
		<rect x="205.1" y="113.4" width="13.6" height="37.6"/>
		<path d="M219.5,151.7h-15.1v-39h15.1V151.7z M205.8,150.3H218v-36.2h-12.2V150.3z"/>
		<rect x="185.4" y="100.9" class="st0" width="13.6" height="59"/>
		<path d="M199.7,160.6h-15.1v-60.4h15.1V160.6z M186,159.2h12.2v-57.6H186V159.2z"/>
		<rect x="264.4" y="80.9" class="st0" width="13.6" height="110.3"/>
		<path d="M278.7,191.9h-15.1V80.2h15.1V191.9z M265,190.5h12.2V81.6H265V190.5z"/>
		<rect x="244.6" y="168.1" width="13.7" height="24.4"/>
		<path d="M259,193.2h-15.1v-25.8H259L259,193.2z M245.3,191.8h12.2v-23h-12.2L245.3,191.8z"/>
		<rect x="224.9" y="121.3" width="13.6" height="57.6"/>
		<path d="M239.2,179.6h-15.1v-59h15.1V179.6z M225.6,178.1h12.2V122h-12.2L225.6,178.1z"/>
	</g>
	<text transform="matrix(1 -3.954032e-04 3.954032e-04 1 9.1048 214.9554)" class="st1 st2">Bearish Harami</text>
	<text transform="matrix(1 -3.954032e-04 3.954032e-04 1 172.4755 214.9534)" class="st1 st2">Bullish Harami</text>
</g>
</svg>
