<svg id="Layer_1" xmlns="http://www.w3.org/2000/svg" viewBox="0 0 300 300"><style>.st0{fill:#fff}.st1{font-family:&apos;Roboto-Regular&apos;}.st2{font-size:18px}</style><title>300x300</title><path d="M16.6 170.9h109.7v1.4H16.6zM44.9 122.4h13.6V160H44.9z"/><path d="M59.3 160.7H44.2v-39h15.1v39zm-13.7-1.5h12.2V123H45.6v36.2zM104.1 82h13.7v109.7h-13.7z"/><path d="M118.5 192.4h-15.1V81.2h15.1v111.2zm-13.7-1.4H117V82.7h-12.2V191z"/><path class="st0" d="M84.4 80.9h13.7v24.4H84.4z"/><path d="M98.7 106h-15V80.2h15.1V106zm-13.6-1.4h12.2v-23H85.1v23z"/><path class="st0" d="M64.6 93h13.6v57.6H64.6z"/><path d="M79 151.3H63.9v-59H79v59zm-13.6-1.4h12.2V93.8H65.4v56.1z"/><path class="st0" d="M25.2 113.4h13.6V171H25.2z"/><path d="M39.6 171.7H24.5v-59h15.1v59zm-13.7-1.4h12.2v-56.1H25.9v56.1z"/><g><path d="M176.8 100.1h109.7v1.4H176.8zM205.1 113.4h13.6V151h-13.6z"/><path d="M219.5 151.7h-15.1v-39h15.1v39zm-13.7-1.4H218v-36.2h-12.2v36.2z"/><path class="st0" d="M185.4 100.9H199v59h-13.6z"/><path d="M199.7 160.6h-15.1v-60.4h15.1v60.4zm-13.7-1.4h12.2v-57.6H186v57.6z"/><path class="st0" d="M264.4 80.9H278v110.3h-13.6z"/><path d="M278.7 191.9h-15.1V80.2h15.1v111.7zm-13.7-1.4h12.2V81.6H265v108.9zM244.6 168.1h13.7v24.4h-13.7z"/><path d="M259 193.2h-15.1v-25.8H259v25.8zm-13.7-1.4h12.2v-23h-12.2v23zM224.9 121.3h13.6v57.6h-13.6z"/><path d="M239.2 179.6h-15.1v-59h15.1v59zm-13.6-1.5h12.2V122h-12.2v56.1z"/></g><text transform="translate(9.105 214.955)" class="st1 st2">Bearish Harami</text><text transform="translate(172.476 214.953)" class="st1 st2">Bullish Harami</text></svg>