<svg id="Layer_1" data-name="Layer 1" xmlns="http://www.w3.org/2000/svg" viewBox="0 0 300 300"><title>300x300</title><rect x="117.74" y="62.17" width="0.96" height="99.48"/><rect x="88.52" y="105.52" width="0.96" height="99.48"/><rect x="59.3" y="154.96" width="0.96" height="87.24"/><rect x="155.63" y="12.08" width="0.96" height="115.3"/><rect x="146.18" y="25.72" width="19.87" height="81.72"/><path d="M166.53,107.92H145.69V25.24h20.83Zm-19.87-1h18.9V26.2h-18.9Z"/><rect x="192.71" y="92.03" width="0.96" height="115.3"/><rect x="183.26" y="105.67" width="19.87" height="81.72"/><path d="M203.61,187.87H182.78V105.19h20.83Zm-19.87-1h18.9V106.15h-18.9Z"/><rect x="229.8" y="172.62" width="0.96" height="115.3"/><rect x="220.35" y="186.26" width="19.87" height="81.72"/><path d="M240.7,268.46H219.86V185.78H240.7Zm-19.87-1h18.9V186.74h-18.9Z"/></svg>