<svg data-name="Layer 1" xmlns="http://www.w3.org/2000/svg" viewBox="0 0 300 300"><title>300x300</title><path d="M117.74 62.17h.96v99.48h-.96zM88.52 105.52h.96V205h-.96zM59.3 154.96h.96v87.24h-.96zM155.63 12.08h.96v115.3h-.96z"/><path d="M146.18 25.72h19.87v81.72h-19.87z"/><path d="M166.53 107.92h-20.84V25.24h20.83zm-19.87-1h18.9V26.2h-18.9zM192.71 92.03h.96v115.3h-.96z"/><path d="M183.26 105.67h19.87v81.72h-19.87z"/><path d="M203.61 187.87h-20.83v-82.68h20.83zm-19.87-1h18.9v-80.72h-18.9zM229.8 172.62h.96v115.3h-.96z"/><path d="M220.35 186.26h19.87v81.72h-19.87z"/><path d="M240.7 268.46h-20.84v-82.68h20.84zm-19.87-1h18.9v-80.72h-18.9z"/></svg>