<svg xmlns="http://www.w3.org/2000/svg" width="243.943" height="150.742" viewBox="0 0 243.943 150.742"><path fill="#2E8836" d="M37.395 48.952h16v48h-16z"/><path fill="#2E8836" d="M44.364 45.222h2v4h-2zM44.302 96.828h2v4h-2z"/><path fill="#C03" d="M55.614 34.597h16v18h-16z"/><path fill="#C03" d="M62.677 30.66h2v4h-2z"/><path d="M33.427 94.576h2v35h-2zM27.094 104.66h2v35h-2zM21.01 115.242h2v35h-2z"/><path fill="#C03" d="M204.302 79.535h16v48h-16z"/><path fill="#C03" d="M210.802 75.566h2v4h-2z"/><path fill="#2E8836" d="M222.761 122.576h16v18h-16z"/><path fill="#2E8836" d="M229.478 140.43h2v4h-2z"/><path d="M187.427 28.328h2v35h-2zM193.761 36.91h2v35h-2zM199.802 49.201h2v35h-2z"/><text transform="translate(-.74 8.91)" fill="#323CA8" font-family="'Roboto-Bold'" font-size="11" text-decoration="underline">Bullish in neck line</text><text transform="translate(147.594 8.91)" fill="#323CA8" font-family="'Roboto-Bold'" font-size="11" text-decoration="underline">Bearish in neck line</text></svg>