<?xml version="1.0" encoding="utf-8"?>
<!-- Generator: Adobe Illustrator 13.0.0, SVG Export Plug-In . SVG Version: 6.00 Build 14948)  -->
<!DOCTYPE svg PUBLIC "-//W3C//DTD SVG 1.1//EN" "http://www.w3.org/Graphics/SVG/1.1/DTD/svg11.dtd">
<svg version="1.1" id="Layer_1" xmlns="http://www.w3.org/2000/svg" xmlns:xlink="http://www.w3.org/1999/xlink" x="0px" y="0px"
	 width="243.943px" height="150.742px" viewBox="0 0 243.943 150.742" enable-background="new 0 0 243.943 150.742"
	 xml:space="preserve">
<g>
	<rect x="37.395" y="48.952" fill="#2E8836" width="16" height="48"/>
	<rect x="44.364" y="45.222" fill="#2E8836" width="2" height="4"/>
	<rect x="44.302" y="96.828" fill="#2E8836" width="2" height="4"/>
	<rect x="55.614" y="34.597" fill="#CC0033" width="16" height="18"/>
	<rect x="62.677" y="30.66" fill="#CC0033" width="2" height="4"/>
	<rect x="33.427" y="94.576" width="2" height="35"/>
	<rect x="27.094" y="104.66" width="2" height="35"/>
	<rect x="21.01" y="115.242" width="2" height="35"/>
	<rect x="204.302" y="79.535" fill="#CC0033" width="16" height="48"/>
	<rect x="210.802" y="75.566" fill="#CC0033" width="2" height="4"/>
	<rect x="222.761" y="122.576" fill="#2E8836" width="16" height="18"/>
	<rect x="229.478" y="140.43" fill="#2E8836" width="2" height="4"/>
	<rect x="187.427" y="28.328" width="2" height="35"/>
	<rect x="193.761" y="36.91" width="2" height="35"/>
	<rect x="199.802" y="49.201" width="2" height="35"/>
	
		<text transform="matrix(1 0 0 1 -0.7395 8.9102)" fill="#323CA8" font-family="'Roboto-Bold'" font-size="11" text-decoration=" underline">Bullish in neck line</text>
	
		<text transform="matrix(1 0 0 1 147.594 8.9102)" fill="#323CA8" font-family="'Roboto-Bold'" font-size="11" text-decoration=" underline">Bearish in neck line</text>
</g>
</svg>
