<svg version="1" xmlns="http://www.w3.org/2000/svg" width="200.13" height="210.68" viewBox="0 0 200.13 210.68"><path d="M0 9.06h18v19.5H0z"/><path d="M7.81 0h2v9.13h-2zM7.78 28.47h2V44.1h-2zM19.44 16.84h18v49.25h-18zM27.75 66.09h2v14.42h-2zM40.19 62.28h18v29.88h-18zM48.59 50.53h2v11.75h-2z"/><path d="M48.59 92.11h2v15.64h-2zM59.65 86.97h19.5v33.79h-19.5zM68.08 120.76h2v28.54h-2z"/><path fill="#FFF" stroke="#000" stroke-width="2" d="M82.38 108.48h17v47.98h-17z"/><path d="M89.69 157.22h2v19.63h-2zM89.75 95.93h2v11.75h-2zM103.19 110.34h18v26h-18z"/><path d="M111.56 98.59h2v11.88h-2zM122.06 134.84h18v33.75h-18zM130.5 168.72h2v14.25h-2z"/><path fill="#FFF" stroke="#000" stroke-width="2" d="M142.48 173.78h16v14.47h-16z"/><path d="M149.9 110.26h2v62.42h-2zM149.9 189.43h2v6.67h-2z"/><path fill="#FFF" stroke="#000" stroke-width="2" d="M163.31 139.97h16v41h-16z"/><path d="M170.56 135.97h2v3h-2z"/><path fill="#FFF" stroke="#000" stroke-width="2" d="M183 105.71h16.13v30.52H183z"/><path d="M190.25 98.47h2v6.25h-2zM190.06 137.59h2v1.31h-2z"/><ellipse fill="none" stroke="#323CA8" stroke-width="2" cx="150.02" cy="149.18" rx="19" ry="60.5"/></svg>