<?xml version="1.0" encoding="utf-8"?>
<!-- Generator: Adobe Illustrator 13.0.0, SVG Export Plug-In . SVG Version: 6.00 Build 14948)  -->
<!DOCTYPE svg PUBLIC "-//W3C//DTD SVG 1.0//EN" "http://www.w3.org/TR/2001/REC-SVG-20010904/DTD/svg10.dtd">
<svg version="1.0" id="Layer_1" xmlns="http://www.w3.org/2000/svg" xmlns:xlink="http://www.w3.org/1999/xlink" x="0px" y="0px"
	 width="200.13px" height="210.68px" viewBox="0 0 200.13 210.68" enable-background="new 0 0 200.13 210.68" xml:space="preserve">
<g>
	<rect y="9.06" width="18" height="19.5"/>
	<rect x="7.81" width="2" height="9.13"/>
	<rect x="7.78" y="28.47" width="2" height="15.63"/>
	<rect x="19.44" y="16.84" width="18" height="49.25"/>
	<rect x="27.75" y="66.09" width="2" height="14.42"/>
	<rect x="40.19" y="62.28" width="18" height="29.88"/>
	<rect x="48.59" y="50.53" width="2" height="11.75"/>
	<rect x="48.59" y="92.11" width="2" height="15.64"/>
	<rect x="59.65" y="86.97" width="19.5" height="33.79"/>
	<rect x="68.08" y="120.76" width="2" height="28.54"/>
	<rect x="82.38" y="108.48" fill="#FFFFFF" stroke="#000000" stroke-width="2" width="17" height="47.98"/>
	<rect x="89.69" y="157.22" width="2" height="19.63"/>
	<rect x="89.75" y="95.93" width="2" height="11.75"/>
	<rect x="103.19" y="110.34" width="18" height="26"/>
	<rect x="111.56" y="98.59" width="2" height="11.88"/>
	<rect x="122.06" y="134.84" width="18" height="33.75"/>
	<rect x="130.5" y="168.72" width="2" height="14.25"/>
	<rect x="142.48" y="173.78" fill="#FFFFFF" stroke="#000000" stroke-width="2" width="16" height="14.47"/>
	<rect x="149.9" y="110.26" width="2" height="62.42"/>
	<rect x="149.9" y="189.43" width="2" height="6.67"/>
	<rect x="163.31" y="139.97" fill="#FFFFFF" stroke="#000000" stroke-width="2" width="16" height="41"/>
	<rect x="170.56" y="135.97" width="2" height="3"/>
	<rect x="183" y="105.71" fill="#FFFFFF" stroke="#000000" stroke-width="2" width="16.13" height="30.52"/>
	<rect x="190.25" y="98.47" width="2" height="6.25"/>
	<rect x="190.06" y="137.59" width="2" height="1.31"/>
	<ellipse fill="none" stroke="#323CA8" stroke-width="2" cx="150.02" cy="149.18" rx="19" ry="60.5"/>
</g>
</svg>
