<svg version="1" xmlns="http://www.w3.org/2000/svg" width="257.33" height="267.13" viewBox="0 0 257.33 267.13"><path fill="#C03" d="M0 16.67h38v99H0zM70.39 63.5h2.05v17h-2.05zM116.64 143h2.05v17h-2.05zM116.39 242.25h2.05v17h-2.05z"/><path fill="#C03" d="M18.22 0h2.05v17h-2.05zM70.56 179.33h2.05v17h-2.05zM18.22 115.5h2.05v17h-2.05z"/><path fill="#C03" d="M52.75 80.5h38v99h-38zM98.75 159h38v84h-38zM154.33 236.13h38v31h-38z"/><path fill="#C03" d="M172.83 174.75h2v61.5h-2z"/><path fill="#2E8836" d="M219.33 100.5h38v140h-38z"/><path fill="#2E8836" d="M236.58 85h2v16.25h-2zM236.58 240.25h2v16.25h-2z"/></svg>