<svg version="1" xmlns="http://www.w3.org/2000/svg" width="268.51" height="171.64" viewBox="0 0 268.51 171.64"><path fill="#2E8836" d="M59.01 2.71h17v115h-17z"/><path fill="#C03" d="M195.26 2.71h17v115h-17z"/><path fill="#202020" d="M156.85 101.68zm.33 13.45z"/><path d="M84.89.53l-5.06 5.06c-.02.02-.04.04-.06.07-.01.01-.01.02-.02.03-.01.02-.02.03-.02.04-.01.02-.01.03-.01.05 0 .01-.01.03-.01.04-.01.06-.01.12 0 .18 0 .01.01.03.01.04 0 .01.01.03.01.04.01.01.02.03.02.04.01.01.01.02.02.03.02.02.04.05.06.07l5.06 5.06c.17.18.46.18.63 0 .09-.09.13-.2.13-.32s-.04-.23-.13-.32l-4.29-4.29h18.02c.25 0 .45-.2.45-.45s-.2-.45-.45-.45H81.23l4.29-4.29c.09-.09.13-.2.13-.32s-.04-.23-.13-.32a.463.463 0 0 0-.63.01zm137.5 0l-5.06 5.06c-.02.02-.04.04-.06.07-.01.01-.01.02-.02.03-.01.02-.02.03-.02.04-.01.02-.01.03-.01.05 0 .01-.01.03-.01.04-.01.06-.01.12 0 .18 0 .01.01.03.01.04 0 .01.01.03.01.04.01.01.02.03.02.04.01.01.01.02.02.03.02.02.04.05.06.07l5.06 5.06c.18.18.46.18.64 0 .09-.09.13-.2.13-.32s-.04-.23-.13-.32l-4.29-4.29h18.02c.25 0 .45-.2.45-.45s-.2-.45-.45-.45h-18.02l4.29-4.29c.09-.09.13-.2.13-.32s-.04-.23-.13-.32a.476.476 0 0 0-.64.01zm-137.5 110l-5.06 5.06c-.02.02-.04.04-.06.07-.01.01-.01.02-.02.03-.01.01-.02.03-.02.04-.01.02-.01.03-.01.04 0 .01-.01.03-.01.04-.01.06-.01.12 0 .18 0 .01.01.03.01.04 0 .02.01.03.01.04.01.02.02.03.02.04.01.01.01.02.02.03.02.02.04.05.06.07l5.06 5.06c.17.18.46.18.63 0 .09-.09.13-.2.13-.32s-.04-.23-.13-.32l-4.29-4.29h18.02c.25 0 .45-.2.45-.45s-.2-.45-.45-.45H81.23l4.29-4.29c.09-.09.13-.2.13-.32s-.04-.23-.13-.32a.474.474 0 0 0-.63.02zm135.5.25l-5.06 5.06c-.02.02-.04.04-.06.07-.01.01-.01.02-.02.03-.01.01-.02.03-.02.04-.01.02-.01.03-.01.04 0 .01-.01.03-.01.04-.01.06-.01.12 0 .18 0 .01.01.03.01.04 0 .02.01.03.01.04.01.02.02.03.02.04.01.01.01.02.02.03.02.02.04.05.06.07l5.06 5.06c.18.18.46.18.64 0 .09-.09.13-.2.13-.32s-.04-.23-.13-.32l-4.29-4.29h18.02c.25 0 .45-.2.45-.45s-.2-.45-.45-.45h-18.02l4.29-4.29c.09-.09.13-.2.13-.32s-.04-.23-.13-.32a.487.487 0 0 0-.64.02zM51.31 10.98l5.06-5.05c.02-.02.04-.04.06-.07.01-.01.01-.02.02-.03.01-.01.02-.03.02-.04.01-.02.01-.03.01-.04 0-.01.01-.03.01-.04.01-.06.01-.12 0-.18 0-.01-.01-.03-.01-.04 0-.01-.01-.03-.01-.04-.01-.02-.01-.03-.02-.04-.01-.01-.01-.02-.02-.03-.02-.02-.03-.05-.06-.07L51.31.25a.453.453 0 0 0-.63 0c-.09.09-.13.2-.13.32s.04.23.13.32l4.29 4.29H36.95c-.25 0-.45.2-.45.45s.2.45.45.45h18.02l-4.29 4.29c-.09.09-.13.2-.13.32s.04.23.13.32c.17.15.46.15.63-.03zm135.41.24l5.06-5.06c.02-.02.04-.04.06-.07.01-.01.01-.02.02-.03.01-.01.02-.03.02-.04.01-.01.01-.03.01-.04 0-.01.01-.02.01-.04.01-.06.01-.12 0-.18 0-.01-.01-.03-.01-.04 0-.01-.01-.03-.01-.04-.01-.02-.02-.03-.02-.04-.01-.01-.01-.02-.02-.03-.02-.03-.04-.05-.06-.07L186.72.48a.453.453 0 0 0-.63 0c-.09.09-.13.2-.13.32 0 .11.04.23.13.32l4.29 4.29h-18.02c-.25 0-.45.2-.45.45s.2.45.45.45h18.02l-4.29 4.29c-.09.09-.13.2-.13.32s.04.23.13.32c.17.15.45.15.63-.02zm0 110l5.06-5.06c.02-.02.04-.04.06-.07.01-.01.01-.02.02-.03.01-.01.02-.03.02-.04.01-.01.01-.03.01-.04 0-.01.01-.02.01-.04.01-.06.01-.12 0-.18 0-.01-.01-.03-.01-.04 0-.02-.01-.03-.01-.04-.01-.02-.02-.03-.02-.04-.01-.01-.01-.02-.02-.03-.02-.02-.04-.05-.06-.07l-5.06-5.06a.435.435 0 0 0-.63 0c-.09.09-.13.2-.13.32 0 .11.04.23.13.32l4.29 4.29h-18.02c-.25 0-.45.2-.45.45s.2.45.45.45h18.02l-4.29 4.29c-.09.09-.13.2-.13.32s.04.23.13.32c.17.15.45.15.63-.02zm-135.87.12l5.06-5.06c.02-.02.04-.04.06-.07.01-.01.01-.02.02-.03.01-.01.02-.03.02-.04.01-.01.01-.03.01-.04 0-.01.01-.03.01-.04.01-.06.01-.12 0-.18 0-.01-.01-.03-.01-.04 0-.02-.01-.03-.01-.04-.01-.02-.02-.03-.02-.04-.01-.01-.01-.02-.02-.03-.02-.03-.04-.05-.06-.07l-5.06-5.06a.465.465 0 0 0-.64 0c-.09.09-.13.2-.13.32s.04.23.13.32l4.29 4.29H36.48c-.25 0-.45.2-.45.45s.2.45.45.45H54.5l-4.29 4.29c-.09.09-.13.2-.13.32s.04.23.13.32c.18.15.46.15.64-.02z"/><text transform="translate(0 9.91)" font-family="'Roboto-Regular'" font-size="11">Close</text><text transform="translate(121.25 9.41)" font-family="'Roboto-Regular'" font-size="11">High</text><text transform="translate(242.75 9.41)" font-family="'Roboto-Regular'" font-size="11">Open</text><text transform="translate(121.25 119.91)" font-family="'Roboto-Regular'" font-size="11">Low</text><text transform="translate(239.75 119.91)" font-family="'Roboto-Regular'" font-size="11">Close</text><text transform="translate(2 118.16)" font-family="'Roboto-Regular'" font-size="11">Open</text><text transform="translate(43 152.66)" font-family="'Roboto-Bold'" font-size="11">Marubozu</text><text transform="translate(176 152.66)" font-family="'Roboto-Bold'" font-size="11">Marubozu</text><text transform="translate(52 168.66)" fill="#2E8836" font-family="'Roboto-Bold'" font-size="11">Bullish</text><text transform="translate(182.5 168.66)" fill="#2E8836" font-family="'Roboto-Bold'" font-size="11">Bearish</text></svg>