<?xml version="1.0" encoding="utf-8"?>
<!-- Generator: Adobe Illustrator 13.0.0, SVG Export Plug-In . SVG Version: 6.00 Build 14948)  -->
<!DOCTYPE svg PUBLIC "-//W3C//DTD SVG 1.0//EN" "http://www.w3.org/TR/2001/REC-SVG-20010904/DTD/svg10.dtd">
<svg version="1.0" id="Layer_1" xmlns="http://www.w3.org/2000/svg" xmlns:xlink="http://www.w3.org/1999/xlink" x="0px" y="0px"
	 width="268.51px" height="171.64px" viewBox="0 0 268.51 171.64" enable-background="new 0 0 268.51 171.64" xml:space="preserve">
<g>
	<rect x="59.01" y="2.71" fill="#2E8836" width="17" height="115"/>
	<rect x="195.26" y="2.71" fill="#CC0033" width="17" height="115"/>
	<g>
		<g>
			<path fill="none" d="M156.85,101.68"/>
			<g>
				<g>
					<polygon fill="#202020" points="156.85,101.68 156.85,101.68 156.85,101.68 156.85,101.68 156.85,101.68 156.85,101.68 
						156.85,101.68 156.85,101.68 					"/>
				</g>
			</g>
		</g>
	</g>
	<g>
		<g>
			<path fill="none" d="M157.18,115.13"/>
			<g>
				<g>
					<polygon fill="#202020" points="157.18,115.13 157.18,115.13 157.18,115.13 157.18,115.13 157.18,115.13 157.18,115.13 
						157.18,115.13 157.18,115.13 					"/>
				</g>
			</g>
		</g>
	</g>
	<g>
		<path d="M84.89,0.53l-5.06,5.06c-0.02,0.02-0.04,0.04-0.06,0.07c-0.01,0.01-0.01,0.02-0.02,0.03c-0.01,0.02-0.02,0.03-0.02,0.04
			c-0.01,0.02-0.01,0.03-0.01,0.05c0,0.01-0.01,0.03-0.01,0.04c-0.01,0.06-0.01,0.12,0,0.18c0,0.01,0.01,0.03,0.01,0.04
			c0,0.01,0.01,0.03,0.01,0.04c0.01,0.01,0.02,0.03,0.02,0.04c0.01,0.01,0.01,0.02,0.02,0.03c0.02,0.02,0.04,0.05,0.06,0.07
			l5.06,5.06c0.17,0.18,0.46,0.18,0.63,0c0.09-0.09,0.13-0.2,0.13-0.32s-0.04-0.23-0.13-0.32l-4.29-4.29h18.02
			c0.25,0,0.45-0.2,0.45-0.45s-0.2-0.45-0.45-0.45H81.23l4.29-4.29c0.09-0.09,0.13-0.2,0.13-0.32s-0.04-0.23-0.13-0.32
			C85.35,0.36,85.06,0.36,84.89,0.53z"/>
	</g>
	<g>
		<path d="M222.39,0.53l-5.06,5.06c-0.02,0.02-0.04,0.04-0.06,0.07c-0.01,0.01-0.01,0.02-0.02,0.03c-0.01,0.02-0.02,0.03-0.02,0.04
			c-0.01,0.02-0.01,0.03-0.01,0.05c0,0.01-0.01,0.03-0.01,0.04c-0.01,0.06-0.01,0.12,0,0.18c0,0.01,0.01,0.03,0.01,0.04
			c0,0.01,0.01,0.03,0.01,0.04c0.01,0.01,0.02,0.03,0.02,0.04c0.01,0.01,0.01,0.02,0.02,0.03c0.02,0.02,0.04,0.05,0.06,0.07
			l5.06,5.06c0.18,0.18,0.46,0.18,0.64,0c0.09-0.09,0.13-0.2,0.13-0.32s-0.04-0.23-0.13-0.32l-4.29-4.29h18.02
			c0.25,0,0.45-0.2,0.45-0.45s-0.2-0.45-0.45-0.45h-18.02l4.29-4.29c0.09-0.09,0.13-0.2,0.13-0.32s-0.04-0.23-0.13-0.32
			C222.85,0.36,222.56,0.36,222.39,0.53z"/>
	</g>
	<g>
		<path d="M84.89,110.53l-5.06,5.06c-0.02,0.02-0.04,0.04-0.06,0.07c-0.01,0.01-0.01,0.02-0.02,0.03c-0.01,0.01-0.02,0.03-0.02,0.04
			c-0.01,0.02-0.01,0.03-0.01,0.04c0,0.01-0.01,0.03-0.01,0.04c-0.01,0.06-0.01,0.12,0,0.18c0,0.01,0.01,0.03,0.01,0.04
			c0,0.02,0.01,0.03,0.01,0.04c0.01,0.02,0.02,0.03,0.02,0.04c0.01,0.01,0.01,0.02,0.02,0.03c0.02,0.02,0.04,0.05,0.06,0.07
			l5.06,5.06c0.17,0.18,0.46,0.18,0.63,0c0.09-0.09,0.13-0.2,0.13-0.32s-0.04-0.23-0.13-0.32l-4.29-4.29h18.02
			c0.25,0,0.45-0.2,0.45-0.45s-0.2-0.45-0.45-0.45H81.23l4.29-4.29c0.09-0.09,0.13-0.2,0.13-0.32c0-0.12-0.04-0.23-0.13-0.32
			C85.35,110.36,85.06,110.36,84.89,110.53z"/>
	</g>
	<g>
		<path d="M220.39,110.78l-5.06,5.06c-0.02,0.02-0.04,0.04-0.06,0.07c-0.01,0.01-0.01,0.02-0.02,0.03
			c-0.01,0.01-0.02,0.03-0.02,0.04c-0.01,0.02-0.01,0.03-0.01,0.04c0,0.01-0.01,0.03-0.01,0.04c-0.01,0.06-0.01,0.12,0,0.18
			c0,0.01,0.01,0.03,0.01,0.04c0,0.02,0.01,0.03,0.01,0.04c0.01,0.02,0.02,0.03,0.02,0.04c0.01,0.01,0.01,0.02,0.02,0.03
			c0.02,0.02,0.04,0.05,0.06,0.07l5.06,5.06c0.18,0.18,0.46,0.18,0.64,0c0.09-0.09,0.13-0.2,0.13-0.32s-0.04-0.23-0.13-0.32
			l-4.29-4.29h18.02c0.25,0,0.45-0.2,0.45-0.45s-0.2-0.45-0.45-0.45h-18.02l4.29-4.29c0.09-0.09,0.13-0.2,0.13-0.32
			c0-0.12-0.04-0.23-0.13-0.32C220.85,110.61,220.56,110.61,220.39,110.78z"/>
	</g>
	<g>
		<path d="M51.31,10.98l5.06-5.05c0.02-0.02,0.04-0.04,0.06-0.07c0.01-0.01,0.01-0.02,0.02-0.03c0.01-0.01,0.02-0.03,0.02-0.04
			c0.01-0.02,0.01-0.03,0.01-0.04c0-0.01,0.01-0.03,0.01-0.04c0.01-0.06,0.01-0.12,0-0.18c0-0.01-0.01-0.03-0.01-0.04
			c0-0.01-0.01-0.03-0.01-0.04c-0.01-0.02-0.01-0.03-0.02-0.04c-0.01-0.01-0.01-0.02-0.02-0.03c-0.02-0.02-0.03-0.05-0.06-0.07
			l-5.06-5.06c-0.17-0.17-0.46-0.17-0.63,0c-0.09,0.09-0.13,0.2-0.13,0.32s0.04,0.23,0.13,0.32l4.29,4.29H36.95
			c-0.25,0-0.45,0.2-0.45,0.45c0,0.25,0.2,0.45,0.45,0.45h18.02l-4.29,4.29c-0.09,0.09-0.13,0.2-0.13,0.32s0.04,0.23,0.13,0.32
			C50.85,11.16,51.14,11.16,51.31,10.98z"/>
	</g>
	<g>
		<path d="M186.72,11.22l5.06-5.06c0.02-0.02,0.04-0.04,0.06-0.07c0.01-0.01,0.01-0.02,0.02-0.03c0.01-0.01,0.02-0.03,0.02-0.04
			c0.01-0.01,0.01-0.03,0.01-0.04c0-0.01,0.01-0.02,0.01-0.04c0.01-0.06,0.01-0.12,0-0.18c0-0.01-0.01-0.03-0.01-0.04
			c0-0.01-0.01-0.03-0.01-0.04c-0.01-0.02-0.02-0.03-0.02-0.04c-0.01-0.01-0.01-0.02-0.02-0.03c-0.02-0.03-0.04-0.05-0.06-0.07
			l-5.06-5.06c-0.18-0.17-0.46-0.17-0.63,0c-0.09,0.09-0.13,0.2-0.13,0.32c0,0.11,0.04,0.23,0.13,0.32l4.29,4.29h-18.02
			c-0.25,0-0.45,0.2-0.45,0.45s0.2,0.45,0.45,0.45h18.02l-4.29,4.29c-0.09,0.09-0.13,0.2-0.13,0.32c0,0.12,0.04,0.23,0.13,0.32
			C186.26,11.39,186.54,11.39,186.72,11.22z"/>
	</g>
	<g>
		<path d="M186.72,121.22l5.06-5.06c0.02-0.02,0.04-0.04,0.06-0.07c0.01-0.01,0.01-0.02,0.02-0.03c0.01-0.01,0.02-0.03,0.02-0.04
			c0.01-0.01,0.01-0.03,0.01-0.04c0-0.01,0.01-0.02,0.01-0.04c0.01-0.06,0.01-0.12,0-0.18c0-0.01-0.01-0.03-0.01-0.04
			c0-0.02-0.01-0.03-0.01-0.04c-0.01-0.02-0.02-0.03-0.02-0.04c-0.01-0.01-0.01-0.02-0.02-0.03c-0.02-0.02-0.04-0.05-0.06-0.07
			l-5.06-5.06c-0.18-0.18-0.46-0.18-0.63,0c-0.09,0.09-0.13,0.2-0.13,0.32c0,0.11,0.04,0.23,0.13,0.32l4.29,4.29h-18.02
			c-0.25,0-0.45,0.2-0.45,0.45s0.2,0.45,0.45,0.45h18.02l-4.29,4.29c-0.09,0.09-0.13,0.2-0.13,0.32c0,0.12,0.04,0.23,0.13,0.32
			C186.26,121.39,186.54,121.39,186.72,121.22z"/>
	</g>
	<g>
		<path d="M50.85,121.34l5.06-5.06c0.02-0.02,0.04-0.04,0.06-0.07c0.01-0.01,0.01-0.02,0.02-0.03c0.01-0.01,0.02-0.03,0.02-0.04
			c0.01-0.01,0.01-0.03,0.01-0.04c0-0.01,0.01-0.03,0.01-0.04c0.01-0.06,0.01-0.12,0-0.18c0-0.01-0.01-0.03-0.01-0.04
			c0-0.02-0.01-0.03-0.01-0.04c-0.01-0.02-0.02-0.03-0.02-0.04c-0.01-0.01-0.01-0.02-0.02-0.03c-0.02-0.03-0.04-0.05-0.06-0.07
			l-5.06-5.06c-0.18-0.17-0.46-0.17-0.64,0c-0.09,0.09-0.13,0.2-0.13,0.32c0,0.12,0.04,0.23,0.13,0.32l4.29,4.29H36.48
			c-0.25,0-0.45,0.2-0.45,0.45s0.2,0.45,0.45,0.45H54.5l-4.29,4.29c-0.09,0.09-0.13,0.2-0.13,0.32s0.04,0.23,0.13,0.32
			C50.39,121.51,50.67,121.51,50.85,121.34z"/>
	</g>
	<text transform="matrix(1 0 0 1 0 9.9104)" font-family="'Roboto-Regular'" font-size="11">Close</text>
	<text transform="matrix(1 0 0 1 121.25 9.4104)" font-family="'Roboto-Regular'" font-size="11">High</text>
	<text transform="matrix(1 0 0 1 242.75 9.4104)" font-family="'Roboto-Regular'" font-size="11">Open</text>
	<text transform="matrix(1 0 0 1 121.25 119.9104)" font-family="'Roboto-Regular'" font-size="11">Low</text>
	<text transform="matrix(1 0 0 1 239.75 119.9104)" font-family="'Roboto-Regular'" font-size="11">Close</text>
	<text transform="matrix(1 0 0 1 2 118.1604)" font-family="'Roboto-Regular'" font-size="11">Open</text>
	<text transform="matrix(1 0 0 1 43 152.6604)" font-family="'Roboto-Bold'" font-size="11">Marubozu</text>
	<text transform="matrix(1 0 0 1 176 152.6604)" font-family="'Roboto-Bold'" font-size="11">Marubozu</text>
	<text transform="matrix(1 0 0 1 52 168.6604)" fill="#2E8836" font-family="'Roboto-Bold'" font-size="11">Bullish</text>
	<text transform="matrix(1 0 0 1 182.5 168.6604)" fill="#2E8836" font-family="'Roboto-Bold'" font-size="11">Bearish</text>
</g>
</svg>
