<svg version="1" xmlns="http://www.w3.org/2000/svg" width="280.29" height="188" viewBox="0 0 280.29 188"><path fill="#C03" d="M14.62 58.58h18v61h-18zM236.04 59.45h15v24.13h-15z"/><path d="M22.29 50.06h2v8.53h-2zM175.29 44.06h2v8.53h-2zM270.29 1.06h2v8.53h-2zM118.37 81.98h2v12.53h-2zM22.29 119.4h2v8.2h-2zM175.3 112.4h2v8.2h-2zM270.13 77.06h2v12.6h-2zM118.17 161.77h2v9.7h-2zM44.04 117.02h2v8.2h-2zM66.79 102.02h2v4.82h-2zM219.63 35.19h2v5.82h-2zM242.63 53.69h2v5.82h-2zM196.79 21.52h2v4.82h-2zM90.54 82.27h2v4.82h-2zM44 145.11h2v5.07h-2zM66.73 130.52h2v6.2h-2zM196.67 46.27h2v9.2h-2zM90.67 110.9h2v6.2h-2zM219.67 64.4h2v6.2h-2zM242.71 83.4h2v6.2h-2zM0 3.01h2v18.36H0zM153.33 150.68h2v18.36h-2zM3.61 14.49h2v18.36h-2zM156.27 139.49h2v18.36h-2zM7.21 26.62h2v18.36h-2zM159.88 127.62h2v18.36h-2zM11.15 38.42h2v18.36h-2zM163.15 115.42h2v18.36h-2z"/><text transform="translate(53.705 183.335)" font-family="'Roboto-Bold'" font-size="13">Bearish</text><text transform="translate(205.04 182.335)" font-family="'Roboto-Bold'" font-size="13">Bullish</text><path fill="#2E8836" d="M167.29 52.25h18v61h-18z"/><path fill="#C03" d="M213.04 40.79h15v24.13h-15zM190 26.16h15v20.38h-15z"/><path fill="#2E8836" d="M262.29 9.25h18v68h-18z"/><path fill="#C03" d="M110.37 94.33h18v67.38h-18z"/><path fill="#2E8836" d="M84.25 86.95h15v24.13h-15zM60.37 106.45h15v24.13h-15zM37.5 125.08h15v20.38h-15z"/><path d="M140.37 0h2v188h-2z"/></svg>