<?xml version="1.0" encoding="utf-8"?>
<!-- Generator: Adobe Illustrator 13.0.0, SVG Export Plug-In . SVG Version: 6.00 Build 14948)  -->
<!DOCTYPE svg PUBLIC "-//W3C//DTD SVG 1.0//EN" "http://www.w3.org/TR/2001/REC-SVG-20010904/DTD/svg10.dtd">
<svg version="1.0" id="Layer_1" xmlns="http://www.w3.org/2000/svg" xmlns:xlink="http://www.w3.org/1999/xlink" x="0px" y="0px"
	 width="280.29px" height="188px" viewBox="0 0 280.29 188" enable-background="new 0 0 280.29 188" xml:space="preserve">
<g>
	<g>
		<rect x="14.62" y="58.58" fill="#CC0033" width="18" height="61"/>
		<rect x="236.04" y="59.45" fill="#CC0033" width="15" height="24.13"/>
		<rect x="22.29" y="50.06" width="2" height="8.53"/>
		<rect x="175.29" y="44.06" width="2" height="8.53"/>
		<rect x="270.29" y="1.06" width="2" height="8.53"/>
		<rect x="118.37" y="81.98" width="2" height="12.53"/>
		<rect x="22.29" y="119.4" width="2" height="8.2"/>
		<rect x="175.3" y="112.4" width="2" height="8.2"/>
		<rect x="270.13" y="77.06" width="2" height="12.6"/>
		<rect x="118.17" y="161.77" width="2" height="9.7"/>
		<rect x="44.04" y="117.02" width="2" height="8.2"/>
		<rect x="66.79" y="102.02" width="2" height="4.82"/>
		<rect x="219.63" y="35.19" width="2" height="5.82"/>
		<rect x="242.63" y="53.69" width="2" height="5.82"/>
		<rect x="196.79" y="21.52" width="2" height="4.82"/>
		<rect x="90.54" y="82.27" width="2" height="4.82"/>
		<rect x="44" y="145.11" width="2" height="5.07"/>
		<rect x="66.73" y="130.52" width="2" height="6.2"/>
		<rect x="196.67" y="46.27" width="2" height="9.2"/>
		<rect x="90.67" y="110.9" width="2" height="6.2"/>
		<rect x="219.67" y="64.4" width="2" height="6.2"/>
		<rect x="242.71" y="83.4" width="2" height="6.2"/>
		<rect y="3.01" width="2" height="18.36"/>
		<rect x="153.33" y="150.68" width="2" height="18.36"/>
		<rect x="3.61" y="14.49" width="2" height="18.36"/>
		<rect x="156.27" y="139.49" width="2" height="18.36"/>
		<rect x="7.21" y="26.62" width="2" height="18.36"/>
		<rect x="159.88" y="127.62" width="2" height="18.36"/>
		<rect x="11.15" y="38.42" width="2" height="18.36"/>
		<rect x="163.15" y="115.42" width="2" height="18.36"/>
		<text transform="matrix(1 0 0 1 53.7051 183.335)" font-family="'Roboto-Bold'" font-size="13">Bearish</text>
		<text transform="matrix(1 0 0 1 205.0391 182.335)" font-family="'Roboto-Bold'" font-size="13">Bullish</text>
		<rect x="167.29" y="52.25" fill="#2E8836" width="18" height="61"/>
		<rect x="213.04" y="40.79" fill="#CC0033" width="15" height="24.13"/>
		<rect x="190" y="26.16" fill="#CC0033" width="15" height="20.38"/>
		<rect x="262.29" y="9.25" fill="#2E8836" width="18" height="68"/>
		<rect x="110.37" y="94.33" fill="#CC0033" width="18" height="67.38"/>
		<rect x="84.25" y="86.95" fill="#2E8836" width="15" height="24.13"/>
		<rect x="60.37" y="106.45" fill="#2E8836" width="15" height="24.13"/>
		<rect x="37.5" y="125.08" fill="#2E8836" width="15" height="20.38"/>
	</g>
	<rect x="140.37" width="2" height="188"/>
</g>
</svg>
