<svg version="1" xmlns="http://www.w3.org/2000/svg" width="277.37" height="270.51" viewBox="0 0 277.37 270.51"><path fill="#020202" d="M66.33 34.12h2v13.33h-2zM144.67 178.79h2v16h-2zM210.33 155.79h2v10.67h-2zM210.33 34.45h2v21h-2zM66 166.46h2v30.33h-2z"/><path fill="#C03" d="M43.5 47.12h48v120h-48z"/><path fill="#2E8836" d="M188.5 55.12h48v101h-48z"/><text transform="translate(1 38.788)" font-family="'Roboto-Regular'" font-size="13">Open</text><text transform="translate(0 162.455)" font-family="'Roboto-Regular'" font-size="13">Close</text><text transform="translate(243.667 49.788)" font-family="'Roboto-Regular'" font-size="13">Close</text><text transform="translate(243.667 150.789)" font-family="'Roboto-Regular'" font-size="13">Open</text><text transform="translate(1 56.454)" font-family="'Roboto-Regular'" font-size="13">Day 1</text><text transform="translate(.334 180.455)" font-family="'Roboto-Regular'" font-size="13">Day 1</text><text transform="translate(243.334 67.12)" font-family="'Roboto-Regular'" font-size="13">Day 3</text><text transform="translate(244.334 168.787)" font-family="'Roboto-Regular'" font-size="13">Day 3</text><text transform="translate(44 11.121)" font-family="'Roboto-Regular'" font-size="13">Bearish</text><text transform="translate(189 11.454)" font-family="'Roboto-Regular'" font-size="13">Bullish</text><text transform="translate(44 28.787)" font-family="'Roboto-Regular'" font-size="13">Candle</text><text transform="translate(189 30.787)" font-family="'Roboto-Regular'" font-size="13">Candle</text><path d="M11.84 104.02l6.58 11.49v.07l.01-.03.01.02v-.05L25 104.03l-4.47 2.77-.01-16.6h-4.21l.01 16.59zM104.16 204.52l12.93 2.86.06.06-.03-.04.03.02-.04-.04-4.09-12.59-.95 5.17-12.29-11.16-2.84 3.12 12.28 11.16zM192.36 169.85l-4.01-11.44.02-.07-.02.03v-.02l-.01.04-8.78 8.36 4.93-1.34-3.45 14.29 4.09.99 3.45-14.28zM269 100.73l-6.63-11.46v-.07l-.01.03-.01-.02v.05l-6.51 11.53 4.46-2.8.08 16.6 4.21-.02-.08-16.59z"/><path fill="#2E8836" d="M122 194.79h48v20h-48z"/><text transform="translate(72 183.455)" fill="#323CA8" font-family="'Roboto-Bold'" font-size="13" text-decoration="underline">Gap Down</text><text transform="translate(171.333 191.789)" fill="#323CA8" font-family="'Roboto-Bold'" font-size="13" text-decoration="underline">Gap Up</text><text transform="translate(102 235.789)" font-family="'Roboto-Regular'" font-size="13">Day 2 Candle</text><text transform="translate(102 251.388)" font-family="'Roboto-Regular'" font-size="13">Can be Bullish</text><text transform="translate(102 266.988)" font-family="'Roboto-Regular'" font-size="13">or Bearish</text></svg>