<?xml version="1.0" encoding="utf-8"?>
<!-- Generator: Adobe Illustrator 13.0.0, SVG Export Plug-In . SVG Version: 6.00 Build 14948)  -->
<!DOCTYPE svg PUBLIC "-//W3C//DTD SVG 1.0//EN" "http://www.w3.org/TR/2001/REC-SVG-20010904/DTD/svg10.dtd">
<svg version="1.0" id="Layer_1" xmlns="http://www.w3.org/2000/svg" xmlns:xlink="http://www.w3.org/1999/xlink" x="0px" y="0px"
	 width="249.73px" height="189.27px" viewBox="0 0 249.73 189.27" enable-background="new 0 0 249.73 189.27" xml:space="preserve">
<g>
	<rect x="42.83" y="69.27" fill="#2E8836" width="17" height="52"/>
	<rect x="199.17" y="92.27" fill="#2E8836" width="17" height="52"/>
	<rect x="63.5" y="39.27" fill="#CC0033" width="17" height="23.67"/>
	<rect x="222.17" y="151.6" fill="#CC0033" width="17" height="25.67"/>
	<rect x="50.33" y="64.6" fill="#2E8836" width="2" height="5.67"/>
	<rect x="206.67" y="87.77" fill="#2E8836" width="2" height="5.67"/>
	<rect x="71" y="33.77" fill="#2E8836" width="2" height="5.67"/>
	<rect x="70.67" y="33.77" fill="#CC0033" width="2" height="5.67"/>
	<rect x="229.67" y="177.43" fill="#CC0033" width="2" height="7.83"/>
	<rect x="50.33" y="121.1" fill="#2E8836" width="2" height="5.67"/>
	<rect x="206.67" y="143.43" fill="#2E8836" width="2" height="5.67"/>
	<rect x="24.67" y="150.93" width="2" height="38.33"/>
	<rect x="31.33" y="139.6" width="2" height="38.33"/>
	<rect x="38" y="127.93" width="2" height="38.33"/>
	<rect x="180.33" y="26.27" width="2" height="38.33"/>
	<rect x="187.67" y="36.6" width="2" height="38.33"/>
	<rect x="195" y="48.27" width="2" height="38.33"/>
	
		<text transform="matrix(1 0 0 1 -2.441406e-004 10.2659)" fill="#323CA8" font-family="'Roboto-Bold'" font-size="12" text-decoration=" underline">Bullish on neck line</text>
	
		<text transform="matrix(1 0 0 1 141.3337 10.2659)" fill="#323CA8" font-family="'Roboto-Bold'" font-size="12" text-decoration=" underline">Bearish on neck line</text>
</g>
</svg>
