<svg version="1" xmlns="http://www.w3.org/2000/svg" width="249.73" height="189.27" viewBox="0 0 249.73 189.27"><path fill="#2E8836" d="M42.83 69.27h17v52h-17zM199.17 92.27h17v52h-17z"/><path fill="#C03" d="M63.5 39.27h17v23.67h-17zM222.17 151.6h17v25.67h-17z"/><path fill="#2E8836" d="M50.33 64.6h2v5.67h-2zM206.67 87.77h2v5.67h-2zM71 33.77h2v5.67h-2z"/><path fill="#C03" d="M70.67 33.77h2v5.67h-2zM229.67 177.43h2v7.83h-2z"/><path fill="#2E8836" d="M50.33 121.1h2v5.67h-2zM206.67 143.43h2v5.67h-2z"/><path d="M24.67 150.93h2v38.33h-2zM31.33 139.6h2v38.33h-2zM38 127.93h2v38.33h-2zM180.33 26.27h2V64.6h-2zM187.67 36.6h2v38.33h-2zM195 48.27h2V86.6h-2z"/><text transform="translate(0 10.266)" fill="#323CA8" font-family="'Roboto-Bold'" font-size="12" text-decoration="underline">Bullish on neck line</text><text transform="translate(141.334 10.266)" fill="#323CA8" font-family="'Roboto-Bold'" font-size="12" text-decoration="underline">Bearish on neck line</text></svg>