<svg version="1" xmlns="http://www.w3.org/2000/svg" width="300" height="300" viewBox="-31.5 -97.5 300 300"><title>rising falling three methods copy 2</title><text transform="translate(5.214 -2.115)" font-family="'Roboto-Medium'" font-size="11.518">Bullish</text><text transform="translate(189.828 111.506)" font-family="'Roboto-Medium'" font-size="11.518">Bearish</text><path fill="none" stroke="#7678FF" stroke-width=".8" stroke-dasharray="0.8,0.8" d="M12.56 14.53H69.2v90.73H12.56z"/><path fill="#2E8836" d="M20.94 39.56v-5.21h-2.09v5.21H15.7v35.46h3.14v5.21h2.09v-5.21h3.14V39.56h-3.13z"/><path fill="#C03" d="M31.43 41.13v-1.57h-2.09v1.57H26.2v11.11h3.14v4h2.09v-4h3.14V41.13h-3.14zM41.92 47.39v-1.57h-2.09v1.57h-3.14v9.33h3.14v1.37h2.09v-1.37h3.14v-9.33h-3.14zM52.42 54.16v-1.04h-2.09v1.04h-3.14v12.88h3.14v1.72h2.09v-1.72h3.14V54.16h-3.14z"/><path fill="#2E8836" d="M62.91 33.3v-5.21h-2.09v5.21h-3.14v30.91h3.14v4.55h2.09v-4.55h3.14V33.3h-3.14z"/><path fill="none" stroke="#7678FF" stroke-width=".8" stroke-dasharray="0.8,0.8" d="M168.85-6.33h56.64V84.4h-56.64z"/><path fill="#C03" d="M177.23 22.87v-5.21h-2.09v5.21H172v35.46h3.14v5.21h2.09v-5.21h3.14V22.87h-3.14z"/><path fill="#2E8836" d="M187.72 41.64V40.6h-2.09v1.04h-3.14v14.6h3.14v1.04h2.09v-1.04h3.14v-14.6h-3.14z"/><path fill="#C03" d="M198.22 40.6v-2.09h-2.09v2.09h-3.14v13.56h3.14v2.09h2.09v-2.09h3.14V40.6h-3.14z"/><path fill="#2E8836" d="M208.71 38.52v-1.04h-2.09v1.04h-3.14V51.4h3.14v1.72h2.09V51.4h3.14V38.52h-3.14z"/><path fill="#C03" d="M219.2 37.47v-5.21h-2.09v5.21h-3.14v30.91h3.14v4.54h2.09v-4.54h3.14V37.47h-3.14z"/><path fill="#2E8836" d="M73.39 17.66V8.27h-1.05v9.39H71.3v14.55h1.05v3.18h1.05v-3.18h1.05V17.66h-1.06zM-29.41 99v-2.09h-1.05V99h-1.05v9.38h1.05v5.21h1.05v-5.21h1.05V99h-1.05zM-23.11 90.66V84.4h-1.05v6.26h-1.05v9.39h1.05v1.04h1.05v-1.04h1.05v-9.39h-1.05zM-16.82 90.66v-2.89h-1.05v2.89h-1.05v3.13h1.05v5.46h1.05v-5.46h1.05v-3.13h-1.05z"/><path fill="#C03" d="M-10.52 90.66v-2.89h-1.05v2.89h-1.05v6.26h1.05v2.33h1.05v-2.33h1.05v-6.26h-1.05z"/><path fill="#2E8836" d="M-4.23 90.66v-2.89h-1.05v2.89h-1.05v6.26h1.05v2.33h1.05v-2.33h1.05v-6.26h-1.05zM2.06 79.19v-9.14H1.02v9.14H-.03v15.64h1.05v8.58h1.05v-8.58h1.05V79.19H2.06zM8.36 72.93v-9.79H7.31v9.79H6.26v5.46h1.05v1.44h1.05v-1.44H9.4v-5.46H8.36zM79.69 9.32V4.1h-1.05v5.21h-1.05v14.55h1.05V26h1.05v-2.14h1.05V9.32h-1.05zM85.98-1.11V-3.2h-1.05v2.09h-1.05v5.74h1.05v3.65h1.05V4.62h1.05v-5.74h-1.05z"/><path fill="#C03" d="M92.27-1.11V-3.2h-1.05v2.09h-1.05v8.92h1.05v5.68h1.05V7.81h1.05v-8.92h-1.05zM126.89-3.2v-2.09h-1.05v2.09h-1.05v8.92h1.05v1.51h1.05V5.72h1.05V-3.2h-1.05z"/><path fill="#2E8836" d="M133.18-1.11V-3.2h-1.05v2.09h-1.05v7.3h1.05v7.3h1.05v-7.3h1.05v-7.3h-1.05z"/><path fill="#C03" d="M139.48-1.11V-3.2h-1.05v2.09h-1.04v15.64h1.04v6.26h1.05v-6.26h1.05V-1.11h-1.05z"/><path fill="#2E8836" d="M145.77 3.06v-7.3h-1.05v7.3h-1.05v7.3h1.05v2.09h1.05v-2.09h1.05v-7.3h-1.05zM98.57.97V-3.2h-1.05V.97h-1.05v6.26h1.05v10.43h1.05V7.23h1.05V.97h-1.05zM104.86-9.46v-4.17h-1.05v4.17h-1.05V4.1h1.05v11.47h1.05V4.1h1.05V-9.46h-1.05zM152.07-4.24v-4.17h-1.05v4.17h-1.05V6.19h1.05v2.09h1.05V6.19h1.04V-4.24h-1.04z"/><path fill="#C03" d="M158.36 4.1v-8.34h-1.05V4.1h-1.05v4.69h1.05v3.65h1.05V8.79h1.04V4.1h-1.04zM164.65 9.32V8.27h-1.05v1.04h-1.05v14.6h1.05v1.04h1.05v-1.04h1.05V9.32h-1.05zM229.69 64.59v-5.21h-1.05v5.21h-1.05v14.6h1.05v11.47h1.05V79.19h1.05v-14.6h-1.05zM235.98 81.27v-6.26h-1.05v6.26h-1.05v7.3h1.05v2.09h1.05v-2.09h1.05v-7.3h-1.05zM242.28 88.57v-2.08h-1.05v2.08h-1.05v7.3h1.05v1.04h1.05v-1.04h1.05v-7.3h-1.05zM248.57 92.74v-2.09h-1.05v2.09h-1.05v7.3h1.05v1.04h1.05v-1.04h1.05v-7.3h-1.05zM254.87 91.7v-7.3h-1.05v7.3h-1.05V99h1.05v3.13h1.05V99h1.05v-7.3h-1.05zM261.16 89.62v-7.3h-1.05v7.3h-1.04v7.3h1.04v3.13h1.05v-3.13h1.05v-7.3h-1.05zM267.45 96.92v-7.3h-1.05v7.3h-1.05v4.17h1.05v3.13h1.05v-3.13h1.05v-4.17h-1.05z"/></svg>