<?xml version="1.0" encoding="utf-8"?>
<!-- Generator: Adobe Illustrator 13.0.0, SVG Export Plug-In . SVG Version: 6.00 Build 14948)  -->
<!DOCTYPE svg PUBLIC "-//W3C//DTD SVG 1.0//EN" "http://www.w3.org/TR/2001/REC-SVG-20010904/DTD/svg10.dtd">
<svg version="1.0" id="Layer_1" xmlns="http://www.w3.org/2000/svg" xmlns:xlink="http://www.w3.org/1999/xlink" x="0px" y="0px"
	 width="300px" height="300px" viewBox="-31.5 -97.5 300 300" enable-background="new -31.5 -97.5 300 300" xml:space="preserve">
<title>rising falling three methods copy 2</title>
<desc>Created with Sketch.</desc>
<g id="Page-1">
	<g id="rising-falling-three-methods-copy-2">
		<text transform="matrix(1 0 0 1 5.2139 -2.1147)" font-family="'Roboto-Medium'" font-size="11.5183">Bullish</text>
		<text transform="matrix(1 0 0 1 189.8281 111.5059)" font-family="'Roboto-Medium'" font-size="11.5183">Bearish</text>
		
			<rect id="Rectangle-2" x="12.56" y="14.53" fill="none" stroke="#7678FF" stroke-width="0.8" stroke-dasharray="0.8,0.8" width="56.64" height="90.73"/>
		<path id="Combined-Shape" fill="#2E8836" d="M20.94,39.56v-5.21h-2.09v5.21H15.7v35.46h3.14v5.21h2.09v-5.21h3.14V39.56H20.94z"/>
		<path id="Combined-Shape_1_" fill="#CC0033" d="M31.43,41.13v-1.57h-2.09v1.57H26.2v11.11h3.14v4h2.09v-4h3.14V41.13H31.43z"/>
		<path id="Combined-Shape_2_" fill="#CC0033" d="M41.92,47.39v-1.57h-2.09v1.57h-3.14v9.33h3.14v1.37h2.09v-1.37h3.14v-9.33H41.92z
			"/>
		<path id="Combined-Shape_3_" fill="#CC0033" d="M52.42,54.16v-1.04h-2.09v1.04h-3.14v12.88h3.14v1.72h2.09v-1.72h3.14V54.16H52.42
			z"/>
		<path id="Combined-Shape_4_" fill="#2E8836" d="M62.91,33.3v-5.21h-2.09v5.21h-3.14v30.91h3.14v4.55h2.09v-4.55h3.14V33.3H62.91z"
			/>
		
			<rect id="Rectangle-2-Copy" x="168.85" y="-6.33" fill="none" stroke="#7678FF" stroke-width="0.8" stroke-dasharray="0.8,0.8" width="56.64" height="90.73"/>
		<path id="Combined-Shape_5_" fill="#CC0033" d="M177.23,22.87v-5.21h-2.09v5.21H172v35.46h3.14v5.21h2.09v-5.21h3.14V22.87H177.23
			z"/>
		<path id="Combined-Shape_6_" fill="#2E8836" d="M187.72,41.64V40.6h-2.09v1.04h-3.14v14.6h3.14v1.04h2.09v-1.04h3.14v-14.6H187.72
			z"/>
		<path id="Combined-Shape_7_" fill="#CC0033" d="M198.22,40.6v-2.09h-2.09v2.09h-3.14v13.56h3.14v2.09h2.09v-2.09h3.14V40.6H198.22
			z"/>
		<path id="Combined-Shape_8_" fill="#2E8836" d="M208.71,38.52v-1.04h-2.09v1.04h-3.14V51.4h3.14v1.72h2.09V51.4h3.14V38.52H208.71
			z"/>
		<path id="Combined-Shape_9_" fill="#CC0033" d="M219.2,37.47v-5.21h-2.09v5.21h-3.14v30.91h3.14v4.54h2.09v-4.54h3.14V37.47H219.2
			z"/>
		<path id="Combined-Shape_10_" fill="#2E8836" d="M73.39,17.66V8.27h-1.05v9.39H71.3v14.55h1.05v3.18h1.05v-3.18h1.05V17.66H73.39z
			"/>
		<path id="Combined-Shape_11_" fill="#2E8836" d="M-29.41,99v-2.09h-1.05V99h-1.05v9.38h1.05v5.21h1.05v-5.21h1.05V99H-29.41z"/>
		<path id="Combined-Shape_12_" fill="#2E8836" d="M-23.11,90.66V84.4h-1.05v6.26h-1.05v9.39h1.05v1.04h1.05v-1.04h1.05v-9.39
			H-23.11z"/>
		<path id="Combined-Shape_13_" fill="#2E8836" d="M-16.82,90.66v-2.89h-1.05v2.89h-1.05v3.13h1.05v5.46h1.05v-5.46h1.05v-3.13
			H-16.82z"/>
		<path id="Combined-Shape_14_" fill="#CC0033" d="M-10.52,90.66v-2.89h-1.05v2.89h-1.05v6.26h1.05v2.33h1.05v-2.33h1.05v-6.26
			H-10.52z"/>
		<path id="Combined-Shape_15_" fill="#2E8836" d="M-4.23,90.66v-2.89h-1.05v2.89h-1.05v6.26h1.05v2.33h1.05v-2.33h1.05v-6.26H-4.23
			z"/>
		<path id="Combined-Shape_16_" fill="#2E8836" d="M2.06,79.19v-9.14H1.02v9.14h-1.05v15.64h1.05v8.58h1.05v-8.58h1.05V79.19H2.06z"
			/>
		<path id="Combined-Shape_17_" fill="#2E8836" d="M8.36,72.93v-9.79H7.31v9.79H6.26v5.46h1.05v1.44h1.05v-1.44H9.4v-5.46H8.36z"/>
		<path id="Combined-Shape_18_" fill="#2E8836" d="M79.69,9.32V4.1h-1.05v5.21h-1.05v14.55h1.05V26h1.05v-2.14h1.05V9.32H79.69z"/>
		<path id="Combined-Shape_19_" fill="#2E8836" d="M85.98-1.11V-3.2h-1.05v2.09h-1.05v5.74h1.05v3.65h1.05V4.62h1.05v-5.74H85.98z"
			/>
		<path id="Combined-Shape_20_" fill="#CC0033" d="M92.27-1.11V-3.2h-1.05v2.09h-1.05v8.92h1.05v5.68h1.05V7.81h1.05v-8.92H92.27z"
			/>
		<path id="Combined-Shape_21_" fill="#CC0033" d="M126.89-3.2v-2.09h-1.05v2.09h-1.05v8.92h1.05v1.51h1.05V5.72h1.05V-3.2H126.89z"
			/>
		<path id="Combined-Shape_22_" fill="#2E8836" d="M133.18-1.11V-3.2h-1.05v2.09h-1.05v7.3h1.05v7.3h1.05v-7.3h1.05v-7.3H133.18z"/>
		<path id="Combined-Shape_23_" fill="#CC0033" d="M139.48-1.11V-3.2h-1.05v2.09h-1.04v15.64h1.04v6.26h1.05v-6.26h1.05V-1.11
			H139.48z"/>
		<path id="Combined-Shape_24_" fill="#2E8836" d="M145.77,3.06v-7.3h-1.05v7.3h-1.05v7.3h1.05v2.09h1.05v-2.09h1.05v-7.3H145.77z"
			/>
		<path id="Combined-Shape_25_" fill="#2E8836" d="M98.57,0.97V-3.2h-1.05v4.17h-1.05v6.26h1.05v10.43h1.05V7.23h1.05V0.97H98.57z"
			/>
		<path id="Combined-Shape_26_" fill="#2E8836" d="M104.86-9.46v-4.17h-1.05v4.17h-1.05V4.1h1.05v11.47h1.05V4.1h1.05V-9.46H104.86z
			"/>
		<path id="Combined-Shape_27_" fill="#2E8836" d="M152.07-4.24v-4.17h-1.05v4.17h-1.05V6.19h1.05v2.09h1.05V6.19h1.04V-4.24H152.07
			z"/>
		<path id="Combined-Shape_28_" fill="#CC0033" d="M158.36,4.1v-8.34h-1.05V4.1h-1.05v4.69h1.05v3.65h1.05V8.79h1.04V4.1H158.36z"/>
		<path id="Combined-Shape_29_" fill="#CC0033" d="M164.65,9.32V8.27h-1.05v1.04h-1.05v14.6h1.05v1.04h1.05v-1.04h1.05V9.32H164.65z
			"/>
		<path id="Combined-Shape_30_" fill="#CC0033" d="M229.69,64.59v-5.21h-1.05v5.21h-1.05v14.6h1.05v11.47h1.05V79.19h1.05v-14.6
			H229.69z"/>
		<path id="Combined-Shape_31_" fill="#CC0033" d="M235.98,81.27v-6.26h-1.05v6.26h-1.05v7.3h1.05v2.09h1.05v-2.09h1.05v-7.3H235.98
			z"/>
		<path id="Combined-Shape_32_" fill="#CC0033" d="M242.28,88.57v-2.08h-1.05v2.08h-1.05v7.3h1.05v1.04h1.05v-1.04h1.05v-7.3H242.28
			z"/>
		<path id="Combined-Shape_33_" fill="#CC0033" d="M248.57,92.74v-2.09h-1.05v2.09h-1.05v7.3h1.05v1.04h1.05v-1.04h1.05v-7.3H248.57
			z"/>
		<path id="Combined-Shape_34_" fill="#CC0033" d="M254.87,91.7v-7.3h-1.05v7.3h-1.05V99h1.05v3.13h1.05V99h1.05v-7.3H254.87z"/>
		<path id="Combined-Shape_35_" fill="#CC0033" d="M261.16,89.62v-7.3h-1.05v7.3h-1.04v7.3h1.04v3.13h1.05v-3.13h1.05v-7.3H261.16z"
			/>
		<path id="Combined-Shape_36_" fill="#CC0033" d="M267.45,96.92v-7.3h-1.05v7.3h-1.05v4.17h1.05v3.13h1.05v-3.13h1.05v-4.17H267.45
			z"/>
	</g>
</g>
</svg>
