<svg width="300" height="300" viewBox="0 0 300 300" xmlns="http://www.w3.org/2000/svg" xmlns:xlink="http://www.w3.org/1999/xlink" style="background:#fff"><title>salled pattern</title><defs><path id="a" d="M0 0h20v74H0z"/><path id="b" d="M0 15h20v49.624H0z"/><path id="c" d="M0 9.935h20v32.868H0z"/><path id="d" d="M0 9.935h20v26.73H0z"/><path id="e" d="M0 9.935h20V44H0z"/><path id="f" d="M0 .935h20v50.48H0z"/></defs><g fill="none" fill-rule="evenodd"><g transform="translate(21 180)"><use fill="#FFF" xlink:href="#a"/><path stroke="#000" stroke-width="2" d="M1 1h18v72H1z"/></g><path fill="#000" d="M30 252h2v13h-2zM70 154.28h2V232h-2z"/><g transform="translate(61 154)"><use fill="#FFF" xlink:href="#b"/><path stroke="#000" stroke-width="2" d="M1 16h18v47.624H1z"/></g><path fill="#000" d="M110 152.185h2v36.48h-2z"/><g transform="translate(101 152)"><use fill="#FFF" xlink:href="#c"/><path stroke="#000" stroke-width="2" d="M1 10.935h18v30.868H1z"/></g><path fill="#000" d="M268 143.185h2v50.48h-2z"/><g transform="translate(259 143)"><use fill="#000" xlink:href="#d"/><path stroke="#000" stroke-width="2" d="M1 10.935h18v24.73H1z"/></g><path fill="#000" d="M238 110.185h2v50.48h-2z"/><g transform="translate(229 110)"><use fill="#000" xlink:href="#e"/><path stroke="#000" stroke-width="2" d="M1 10.935h18V43H1z"/></g><path fill="#000" d="M208 79.185h2v50.48h-2z"/><g transform="translate(199 69)"><use fill="#000" xlink:href="#f"/><path stroke="#000" stroke-width="2" d="M1 1.935h18v48.48H1z"/></g><path fill="#000" d="M191 77h2v28h-2zM179 63h2v28h-2zM166 48h2v6h-2z"/><text font-family="Roboto-Medium, Roboto" font-size="21" font-weight="400" fill="#000"><tspan x="34" y="63">Bearish</tspan></text><text font-family="Roboto-Medium, Roboto" font-size="21" font-weight="400" fill="#000"><tspan x="218" y="263">Bullish</tspan></text></g></svg>