<svg width="300" height="300" viewBox="0 0 300 300" xmlns="http://www.w3.org/2000/svg" style="background:#fff"><title>separating lines</title><g fill="none" fill-rule="evenodd"><path fill="#000" d="M9 44h2v23H9zM16 60h2v19h-2zM23 73h2v19h-2zM30 86h2v19h-2zM37 100h2v19h-2zM161 231h2v19h-2zM149 40h2v222h-2zM168 217h2v19h-2zM175 201h2v19h-2zM182 183h2v19h-2zM189 168h2v23h-2zM84 166h2v73h-2z"/><path fill="#C03" d="M75 174h20v57H75z"/><path fill="#000" d="M54 120h2v63h-2z"/><path fill="#2E8836" d="M45 116h20v58H45z"/><path fill="#000" d="M205 93h2v73h-2z"/><path fill="#C03" d="M196 101h20v57h-20z"/><g><path fill="#000" d="M237 48h2v63h-2z"/><path fill="#2E8836" d="M228 44h20v58h-20z"/></g><text font-family="Roboto-Medium, Roboto" font-size="13" font-weight="400" fill="#000"><tspan x="75" y="66">Bearish</tspan> <tspan x="75" y="81">Separating</tspan> <tspan x="75" y="96">Lines</tspan></text><text font-family="Roboto-Medium, Roboto" font-size="13" font-weight="400" fill="#000"><tspan x="232" y="146">Bullish</tspan> <tspan x="232" y="161">Separating</tspan> <tspan x="232" y="176">Lines</tspan></text></g></svg>