<?xml version="1.0" encoding="UTF-8"?>
<svg width="300px" height="300px" viewBox="0 0 300 300" version="1.1" xmlns="http://www.w3.org/2000/svg" xmlns:xlink="http://www.w3.org/1999/xlink" style="background: #FFFFFF;">
    <!-- Generator: Sketch 44.1 (41455) - http://www.bohemiancoding.com/sketch -->
    <title>separating lines</title>
    <desc>Created with Sketch.</desc>
    <defs></defs>
    <g id="Page-1" stroke="none" stroke-width="1" fill="none" fill-rule="evenodd">
        <g id="separating-lines">
            <rect id="Rectangle-2-Copy-4" fill="#000000" x="9" y="44" width="2" height="23"></rect>
            <rect id="Rectangle-2-Copy-3" fill="#000000" x="16" y="60" width="2" height="19"></rect>
            <rect id="Rectangle-2-Copy-2" fill="#000000" x="23" y="73" width="2" height="19"></rect>
            <rect id="Rectangle-2-Copy" fill="#000000" x="30" y="86" width="2" height="19"></rect>
            <rect id="Rectangle-2" fill="#000000" x="37" y="100" width="2" height="19"></rect>
            <rect id="Rectangle-2-Copy-5" fill="#000000" x="161" y="231" width="2" height="19"></rect>
            <rect id="Rectangle-2-Copy-10" fill="#000000" x="149" y="40" width="2" height="222"></rect>
            <rect id="Rectangle-2-Copy-6" fill="#000000" x="168" y="217" width="2" height="19"></rect>
            <rect id="Rectangle-2-Copy-7" fill="#000000" x="175" y="201" width="2" height="19"></rect>
            <rect id="Rectangle-2-Copy-8" fill="#000000" x="182" y="183" width="2" height="19"></rect>
            <rect id="Rectangle-2-Copy-9" fill="#000000" x="189" y="168" width="2" height="23"></rect>
            <g id="Group-2" transform="translate(75.000000, 166.000000)">
                <rect id="Rectangle-3" fill="#000000" x="9" y="0" width="2" height="73"></rect>
                <rect id="Rectangle" fill="#CC0033" x="0" y="8" width="20" height="57"></rect>
            </g>
            <g id="Group-2-Copy" transform="translate(45.000000, 116.000000)">
                <rect id="Rectangle-3" fill="#000000" x="9" y="4" width="2" height="63"></rect>
                <rect id="Rectangle" fill="#2E8836" x="0" y="0" width="20" height="58"></rect>
            </g>
            <g id="Group-2-Copy-3" transform="translate(196.000000, 93.000000)">
                <rect id="Rectangle-3" fill="#000000" x="9" y="0" width="2" height="73"></rect>
                <rect id="Rectangle" fill="#CC0033" x="0" y="8" width="20" height="57"></rect>
            </g>
            <g id="Group-2-Copy-2" transform="translate(228.000000, 44.000000)">
                <rect id="Rectangle-3" fill="#000000" x="9" y="4" width="2" height="63"></rect>
                <rect id="Rectangle" fill="#2E8836" x="0" y="0" width="20" height="58"></rect>
            </g>
            <text id="Bearish-Separating-L" font-family="Roboto-Medium, Roboto" font-size="13" font-weight="400" fill="#000000">
                <tspan x="75" y="66">Bearish</tspan>
                <tspan x="75" y="81">Separating</tspan>
                <tspan x="75" y="96">Lines</tspan>
            </text>
            <text id="Bullish-Separating-L" font-family="Roboto-Medium, Roboto" font-size="13" font-weight="400" fill="#000000">
                <tspan x="232" y="146">Bullish</tspan>
                <tspan x="232" y="161">Separating</tspan>
                <tspan x="232" y="176">Lines</tspan>
            </text>
        </g>
    </g>
</svg>