<svg width="300" height="300" viewBox="0 0 300 300" xmlns="http://www.w3.org/2000/svg" xmlns:xlink="http://www.w3.org/1999/xlink" style="background:#fff"><title>shooting star</title><defs><path id="a" d="M0 5.935h20v49.766H0z"/><path id="b" d="M0 11.935h20v49.766H0z"/><path id="c" d="M0 7h20v20H0z"/><path id="d" d="M0 0h20v32H0z"/><path id="e" d="M0 7h20v20H0z"/><path id="f" d="M0 49h20v20H0z"/><path id="g" d="M0 7h20v20H0z"/><path id="h" d="M0 0h20v50H0z"/><path id="i" d="M0 10h20v50H0z"/></defs><g fill="none" fill-rule="evenodd"><path fill="#000" d="M34 224.259h2v50.902h-2z"/><g transform="translate(25 224)"><use fill="#FFF" xlink:href="#a"/><path stroke="#000" stroke-width="2" d="M1 6.935h18v47.766H1z"/></g><path fill="#000" d="M56 178.259h2v50.902h-2z"/><g transform="translate(47 178)"><use fill="#FFF" xlink:href="#b"/><path stroke="#000" stroke-width="2" d="M1 12.935h18v47.766H1z"/></g><path fill="#000" d="M79 176h2v50h-2z"/><g transform="translate(70 176)"><use fill="#000" xlink:href="#c"/><path stroke="#000" stroke-width="2" d="M1 8h18v18H1z"/></g><path fill="#000" d="M215 101h2v34h-2z"/><g transform="translate(206 98)"><use fill="#000" xlink:href="#d"/><path stroke="#000" stroke-width="2" d="M1 1h18v30H1z"/></g><path fill="#000" d="M239 123h2v34h-2z"/><g transform="translate(230 123)"><use fill="#000" xlink:href="#e"/><path stroke="#000" stroke-width="2" d="M1 8h18v18H1z"/></g><path fill="#000" d="M191 15h2v72h-2z"/><g transform="translate(182 15)"><use fill="#000" xlink:href="#f"/><path stroke="#000" stroke-width="2" d="M1 50h18v18H1z"/></g><ellipse stroke="#0800FD" stroke-width="2" cx="192" cy="53" rx="21" ry="42"/><g><path fill="#000" d="M102 185h2v35h-2z"/><g transform="translate(93 185)"><use fill="#FFF" xlink:href="#g"/><path stroke="#000" stroke-width="2" d="M1 8h18v18H1z"/></g></g><g><path fill="#000" d="M147 154h2v55h-2z"/><g transform="translate(138 150)"><use fill="#FFF" xlink:href="#h"/><path stroke="#000" stroke-width="2" d="M1 1h18v48H1z"/></g></g><path fill="#000" d="M124 177h2v22h-2z"/><path fill="#000" d="M115 184h20v2h-20z"/><path fill="#000" d="M115 184h2v4h-2z"/><g><path fill="#000" d="M170 86h2v69h-2z"/><g transform="translate(161 86)"><use fill="#FFF" xlink:href="#i"/><path stroke="#000" stroke-width="2" d="M1 11h18v48H1z"/></g></g></g></svg>