<?xml version="1.0" encoding="UTF-8"?>
<svg width="300px" height="300px" viewBox="0 0 300 300" version="1.1" xmlns="http://www.w3.org/2000/svg" xmlns:xlink="http://www.w3.org/1999/xlink" style="background: #FFFFFF;">
    <!-- Generator: Sketch 44.1 (41455) - http://www.bohemiancoding.com/sketch -->
    <title>shooting star</title>
    <desc>Created with Sketch.</desc>
    <defs>
        <rect id="path-1" x="0" y="5.93506494" width="20" height="49.7660399"></rect>
        <rect id="path-2" x="0" y="11.9350649" width="20" height="49.7660399"></rect>
        <rect id="path-3" x="0" y="7" width="20" height="20"></rect>
        <rect id="path-4" x="0" y="0" width="20" height="32"></rect>
        <rect id="path-5" x="0" y="7" width="20" height="20"></rect>
        <rect id="path-6" x="0" y="49" width="20" height="20"></rect>
        <rect id="path-7" x="0" y="7" width="20" height="20"></rect>
        <rect id="path-8" x="0" y="0" width="20" height="50"></rect>
        <rect id="path-9" x="0" y="10" width="20" height="50"></rect>
    </defs>
    <g id="Page-1" stroke="none" stroke-width="1" fill="none" fill-rule="evenodd">
        <g id="shooting-star">
            <g id="Group-Copy-2" transform="translate(25.000000, 224.000000)">
                <rect id="Rectangle" fill="#000000" x="9" y="0.258772656" width="2" height="50.9023249"></rect>
                <g id="Rectangle-6">
                    <use fill="#FFFFFF" fill-rule="evenodd" xlink:href="#path-1"></use>
                    <rect stroke="#000000" stroke-width="2" x="1" y="6.93506494" width="18" height="47.7660399"></rect>
                </g>
            </g>
            <g id="Group-Copy-3" transform="translate(47.000000, 178.000000)">
                <rect id="Rectangle" fill="#000000" x="9" y="0.258772656" width="2" height="50.9023249"></rect>
                <g id="Rectangle-6">
                    <use fill="#FFFFFF" fill-rule="evenodd" xlink:href="#path-2"></use>
                    <rect stroke="#000000" stroke-width="2" x="1" y="12.9350649" width="18" height="47.7660399"></rect>
                </g>
            </g>
            <g id="Group-Copy-4" transform="translate(70.000000, 176.000000)">
                <rect id="Rectangle" fill="#000000" x="9" y="0" width="2" height="50"></rect>
                <g id="Rectangle-6">
                    <use fill="#000000" fill-rule="evenodd" xlink:href="#path-3"></use>
                    <rect stroke="#000000" stroke-width="2" x="1" y="8" width="18" height="18"></rect>
                </g>
            </g>
            <g id="Group-Copy-8" transform="translate(206.000000, 98.000000)">
                <rect id="Rectangle" fill="#000000" x="9" y="3" width="2" height="34"></rect>
                <g id="Rectangle-6">
                    <use fill="#000000" fill-rule="evenodd" xlink:href="#path-4"></use>
                    <rect stroke="#000000" stroke-width="2" x="1" y="1" width="18" height="30"></rect>
                </g>
            </g>
            <g id="Group-Copy-9" transform="translate(230.000000, 123.000000)">
                <rect id="Rectangle" fill="#000000" x="9" y="0" width="2" height="34"></rect>
                <g id="Rectangle-6">
                    <use fill="#000000" fill-rule="evenodd" xlink:href="#path-5"></use>
                    <rect stroke="#000000" stroke-width="2" x="1" y="8" width="18" height="18"></rect>
                </g>
            </g>
            <g id="Group-Copy-10" transform="translate(182.000000, 15.000000)">
                <rect id="Rectangle" fill="#000000" x="9" y="0" width="2" height="72"></rect>
                <g id="Rectangle-6">
                    <use fill="#000000" fill-rule="evenodd" xlink:href="#path-6"></use>
                    <rect stroke="#000000" stroke-width="2" x="1" y="50" width="18" height="18"></rect>
                </g>
            </g>
            <ellipse id="Oval" stroke="#0800FD" stroke-width="2" cx="192" cy="53" rx="21" ry="42"></ellipse>
            <g id="Group-Copy-5" transform="translate(93.000000, 185.000000)">
                <rect id="Rectangle" fill="#000000" x="9" y="0" width="2" height="35"></rect>
                <g id="Rectangle-6">
                    <use fill="#FFFFFF" fill-rule="evenodd" xlink:href="#path-7"></use>
                    <rect stroke="#000000" stroke-width="2" x="1" y="8" width="18" height="18"></rect>
                </g>
            </g>
            <g id="Group-Copy-6" transform="translate(138.000000, 150.000000)">
                <rect id="Rectangle" fill="#000000" x="9" y="4" width="2" height="55"></rect>
                <g id="Rectangle-6">
                    <use fill="#FFFFFF" fill-rule="evenodd" xlink:href="#path-8"></use>
                    <rect stroke="#000000" stroke-width="2" x="1" y="1" width="18" height="48"></rect>
                </g>
            </g>
            <rect id="Rectangle-2" fill="#000000" x="124" y="177" width="2" height="22"></rect>
            <rect id="Rectangle-2-Copy" fill="#000000" x="115" y="184" width="20" height="2"></rect>
            <rect id="Rectangle-2-Copy-2" fill="#000000" x="115" y="184" width="2" height="4"></rect>
            <g id="Group-Copy-7" transform="translate(161.000000, 86.000000)">
                <rect id="Rectangle" fill="#000000" x="9" y="0" width="2" height="69"></rect>
                <g id="Rectangle-6">
                    <use fill="#FFFFFF" fill-rule="evenodd" xlink:href="#path-9"></use>
                    <rect stroke="#000000" stroke-width="2" x="1" y="11" width="18" height="48"></rect>
                </g>
            </g>
        </g>
    </g>
</svg>