<svg width="300" height="300" viewBox="0 0 300 300" xmlns="http://www.w3.org/2000/svg" xmlns:xlink="http://www.w3.org/1999/xlink" style="background:#fff"><title>side by side white line</title><defs><path id="a" d="M0 10h20v60H0z"/><path id="b" d="M0 10h20v60H0z"/><path id="c" d="M0 5h20v60H0z"/><path id="d" d="M0 5h20v48.923H0z"/><path id="e" d="M0 5h20v48.923H0z"/><path id="f" d="M0 8h16v42H0z"/></defs><g fill="none" fill-rule="evenodd"><text font-family="Roboto-Medium, Roboto" font-size="21" font-weight="400" fill="#000"><tspan x="41.439" y="63">Bearish</tspan></text><text font-family="Roboto-Medium, Roboto" font-size="21" font-weight="400" fill="#000"><tspan x="195.249" y="63">Bullish</tspan></text><path fill="#000" d="M66 159h2v80h-2z"/><g transform="translate(57 159)"><use fill="#FFF" xlink:href="#a"/><path stroke="#000" stroke-width="2" d="M1 11h18v58H1z"/></g><path fill="#000" d="M94 159h2v80h-2z"/><g transform="translate(85 159)"><use fill="#FFF" xlink:href="#b"/><path stroke="#000" stroke-width="2" d="M1 11h18v58H1z"/></g><path fill="#000" d="M199 144h2v70h-2z"/><g transform="translate(190 144)"><use fill="#FFF" xlink:href="#c"/><path stroke="#000" stroke-width="2" d="M1 6h18v58H1z"/></g><path fill="#000" d="M223 82h2v58h-2z"/><g transform="translate(214 82)"><use fill="#FFF" xlink:href="#d"/><path stroke="#000" stroke-width="2" d="M1 6h18v46.923H1z"/></g><path fill="#000" d="M253 82h2v58h-2z"/><g transform="translate(244 82)"><use fill="#FFF" xlink:href="#e"/><path stroke="#000" stroke-width="2" d="M1 6h18v46.923H1z"/></g><g><path fill="#000" d="M37 101h2v58h-2z"/><g transform="translate(30 101)"><use fill="#000" xlink:href="#f"/><path stroke="#000" stroke-width="2" d="M1 9h14v40H1z"/></g></g><path fill="#000" d="M8 68h2v19H8zM21 81h2v19h-2zM176 218h2v19h-2zM166 227h2v19h-2z"/></g></svg>