<svg width="300" height="300" viewBox="0 0 300 300" xmlns="http://www.w3.org/2000/svg" xmlns:xlink="http://www.w3.org/1999/xlink" style="background:#fff"><title>spinning top</title><defs><path id="a" d="M0 0h20v50H0z"/><path id="b" d="M0 0h20v50H0z"/></defs><g fill="none" fill-rule="evenodd"><g fill="#2E8836"><path d="M116 117h2v35h-2z"/><path d="M112 122h10v26.154h-10z"/></g><g fill="#2E8836"><path d="M99 146h2v35h-2z"/><path d="M95 151h10v26.154H95z"/></g><g transform="translate(70 158)"><use fill="#FFF" xlink:href="#a"/><path stroke="#000" stroke-width="2" d="M1 1h18v48H1z"/></g><g fill="#2E8836"><path d="M79 166h2v35h-2z"/><path d="M75 176h10v16H75z"/></g><g transform="translate(200 85)"><use fill="#FFF" xlink:href="#b"/><path stroke="#000" stroke-width="2" d="M1 1h18v48H1z"/></g><g fill="#C03"><path d="M209 93h2v35h-2z"/><path d="M205 103h10v16h-10z"/></g><g fill="#2E8836"><path d="M145 154h2v35h-2z"/><path d="M141 159h10v26.154h-10z"/></g><g fill="#2E8836"><path d="M165 135h2v35h-2z"/><path d="M161 140h10v26.154h-10z"/></g><g fill="#2E8836"><path d="M185 115h2v35h-2z"/><path d="M181 120h10v26.154h-10z"/></g><g fill="#C03"><path d="M231 112h2v35h-2z"/><path d="M227 117h10v26.154h-10z"/></g><g fill="#C03"><path d="M19 95h2v35h-2z"/><path d="M15 100h10v26.154H15z"/></g><g fill="#C03"><path d="M39 125h2v35h-2z"/><path d="M35 130h10v26.154H35z"/></g><g fill="#C03"><path d="M59 149h2v35h-2z"/><path d="M55 154h10v26.154H55z"/></g><g fill="#C03"><path d="M251 132h2v35h-2z"/><path d="M247 137h10v26.154h-10z"/></g><g fill="#C03"><path d="M271 151h2v35h-2z"/><path d="M267 156h10v26.154h-10z"/></g><text font-family="Roboto-Medium, Roboto" font-size="21" font-weight="400" fill="#000"><tspan x="44.249" y="99">Bullish</tspan></text><text font-family="Roboto-Medium, Roboto" font-size="21" font-weight="400" fill="#000"><tspan x="189.439" y="211">Bearish</tspan></text></g></svg>