<svg width="300" height="300" viewBox="0 0 300 300" xmlns="http://www.w3.org/2000/svg" style="background:#fff"><title>stick sandwich 2</title><g fill="none" fill-rule="evenodd"><path fill="#FFF" d="M0 0h300v300H0z"/><path fill="#000" d="M38 124h2v104h-2z"/><path fill="#C03" d="M27 132h24v87.918H27z"/><path fill="#000" d="M72 100h2v79h-2z"/><path fill="#2E8836" d="M61 111h24v58H61z"/><g><path fill="#000" d="M106 78h2v150h-2z"/><path fill="#C03" d="M95 88h24v130.941H95z"/></g><text font-family="Roboto-Medium, Roboto" font-size="21" font-weight="400" fill="#000" transform="translate(27 55)"><tspan x="14" y="19">Bullish</tspan></text><g><path fill="#000" d="M193 83h2v122h-2z"/><path fill="#2E8836" d="M182 93h24v82.306h-24z"/><path fill="#000" d="M227 102h2v100h-2z"/><path fill="#C03" d="M216 112h24v72.953h-24z"/><g><path fill="#000" d="M261 83h2v148h-2z"/><path fill="#2E8836" d="M250 93h24v110h-24z"/></g><text font-family="Roboto-Medium, Roboto" font-size="21" font-weight="400" fill="#000" transform="translate(182 55)"><tspan x="10" y="19">Bearish</tspan></text></g></g></svg>