<svg width="300" height="300" viewBox="0 0 300 300" xmlns="http://www.w3.org/2000/svg" xmlns:xlink="http://www.w3.org/1999/xlink" style="background:#fff"><title>tasuki gap</title><defs><path id="a" d="M0 10h16v60H0z"/><path id="b" d="M0 13h16v30H0z"/><path id="c" d="M0 7h16v30H0z"/><path id="d" d="M0 7h16v30H0z"/><path id="e" d="M0 7h16v30H0z"/><path id="f" d="M0 5h16v47.838H0z"/></defs><g fill="none" fill-rule="evenodd"><text font-family="Roboto-Medium, Roboto" font-size="21" font-weight="400" fill="#000"><tspan x="38.249" y="63">Bullish</tspan></text><text font-family="Roboto-Medium, Roboto" font-size="21" font-weight="400" fill="#000"><tspan x="187.439" y="63">Bearish</tspan></text><path fill="#000" d="M46 128h2v80h-2z"/><g transform="translate(39 128)"><use fill="#FFF" xlink:href="#a"/><path stroke="#000" stroke-width="2" d="M1 11h14v58H1z"/></g><path fill="#000" d="M82 79h2v52h-2z"/><g transform="translate(75 79)"><use fill="#FFF" xlink:href="#b"/><path stroke="#000" stroke-width="2" d="M1 14h14v28H1z"/></g><path fill="#000" d="M112 92h2v44h-2z"/><g transform="translate(105 92)"><use fill="#000" xlink:href="#c"/><path stroke="#000" stroke-width="2" d="M1 8h14v28H1z"/></g><path fill="#000" d="M218 182h2v44h-2z"/><g transform="translate(211 182)"><use fill="#000" xlink:href="#d"/><path stroke="#000" stroke-width="2" d="M1 8h14v28H1z"/></g><path fill="#000" d="M250 173h2v44h-2z"/><g transform="translate(243 173)"><use fill="#FFF" xlink:href="#e"/><path stroke="#000" stroke-width="2" d="M1 8h14v28H1z"/></g><path fill="#000" d="M182 103h2v57h-2z"/><g transform="translate(175 103)"><use fill="#000" xlink:href="#f"/><path stroke="#000" stroke-width="2" d="M1 6h14v45.838H1z"/></g><path fill="#000" d="M17 201h2v29h-2zM31 194h2v29h-2zM154 81h2v22h-2zM161 89h2v22h-2zM168 96h2v22h-2zM273 199h2v34h-2zM280 209h2v34h-2z"/></g></svg>