<svg id="Layer_3" data-name="Layer 3" xmlns="http://www.w3.org/2000/svg" viewBox="0 0 234.55 235.47"><defs><style>.cls-1{fill:none;stroke:#231f20;stroke-miterlimit:10;stroke-width:2px;}.cls-2{font-size:14.53px;font-family:Roboto-Bold, Roboto;font-weight:700;}.cls-2,.cls-5{fill:#231f20;}.cls-3{letter-spacing:-0.01em;}.cls-4{fill:#cc1f36;}.cls-6{fill:#2f8842;}</style></defs><title>three_white_soldiers</title><line class="cls-1" x1="7.98" y1="42.49" x2="7.98" y2="130.62"/><text class="cls-2" transform="translate(42.31 12.43) scale(0.94 1)">THREE WH<tspan class="cls-3" x="71.48" y="0">I</tspan><tspan x="75.51" y="0">TE SOLDIERS</tspan></text><rect class="cls-4" x="1" y="66.07" width="13.95" height="41.71"/><path class="cls-5" d="M48.72,95.62v39.71h-12V95.62h12m2-2h-16v43.71h16V93.62Z" transform="translate(-34.76 -28.55)"/><line class="cls-1" x1="33.14" y1="72.38" x2="33.14" y2="160.52"/><rect class="cls-4" x="26.17" y="95.97" width="13.95" height="41.71"/><path class="cls-5" d="M73.88,125.52v39.71h-12V125.52h12m2-2h-16v43.71h16V123.52Z" transform="translate(-34.76 -28.55)"/><line class="cls-1" x1="58.23" y1="78.69" x2="58.23" y2="189.79"/><rect class="cls-6" x="51.26" y="102.27" width="13.95" height="65.58"/><path class="cls-5" d="M99,131.82v63.58H87V131.82H99m2-2H85v67.58h16V129.82Z" transform="translate(-34.76 -28.55)"/><line class="cls-1" x1="144.24" y1="121.45" x2="144.24" y2="232.55"/><rect class="cls-6" x="137.26" y="145.04" width="13.95" height="65.58"/><path class="cls-5" d="M185,174.59v63.58H173V174.59h12m2-2H171v67.58h16V172.59Z" transform="translate(-34.76 -28.55)"/><line class="cls-1" x1="199.57" y1="56.12" x2="199.57" y2="167.22"/><rect class="cls-6" x="192.59" y="79.7" width="13.95" height="65.58"/><path class="cls-5" d="M240.31,109.25v63.58h-12V109.25h12m2-2h-16v67.58h16V107.25Z" transform="translate(-34.76 -28.55)"/><rect class="cls-6" x="164.93" y="103.1" width="13.95" height="65.58"/><path class="cls-5" d="M212.64,132.65v63.58h-12V132.65h12m2-2h-16v67.58h16V130.65Z" transform="translate(-34.76 -28.55)"/><line class="cls-1" x1="95.81" y1="151.71" x2="95.81" y2="208.12"/><rect class="cls-4" x="88.83" y="175.3" width="13.95" height="41.71"/><path class="cls-5" d="M136.55,204.85v39.71h-12V204.85h12m2-2h-16v43.71h16V202.85Z" transform="translate(-34.76 -28.55)"/><line class="cls-1" x1="121.57" y1="209.49" x2="121.57" y2="235.47"/><rect class="cls-4" x="114.59" y="216.97" width="13.95" height="10.94"/><path class="cls-5" d="M162.31,246.52v8.94h-12v-8.94h12m2-2h-16v12.94h16V244.52Z" transform="translate(-34.76 -28.55)"/><line class="cls-1" x1="78.91" y1="115.52" x2="78.91" y2="174.02"/><rect class="cls-4" x="71.93" y="138.52" width="13.95" height="13.1"/><path class="cls-5" d="M119.65,168.07v11.1h-12v-11.1h12m2-2h-16v15.1h16v-15.1Z" transform="translate(-34.76 -28.55)"/><line class="cls-1" x1="226.57" y1="37.21" x2="226.57" y2="96.3"/><rect class="cls-4" x="219.59" y="60.1" width="13.95" height="13.95"/><path class="cls-5" d="M267.31,89.65v12h-12v-12h12m2-2h-16v16h16v-16Z" transform="translate(-34.76 -28.55)"/></svg>