<svg xmlns="http://www.w3.org/2000/svg" viewBox="0 0 269.69 184.93"><defs><style>.cls-1{isolation:isolate}.cls-2{fill:#2f8842}.cls-3,.cls-7{fill:#231f20}.cls-4{opacity:.75;mix-blend-mode:multiply}.cls-5{fill:#cc1f36}.cls-6{fill:#fff}.cls-7{font-size:12px;font-family:Roboto-Bold,Roboto;font-weight:700}.cls-8{letter-spacing:-.01em}.cls-9{letter-spacing:-.02em}</style></defs><title>three_black_crows</title><g class="cls-1"><g id="Layer_2" data-name="Layer 2"><path class="cls-2" transform="rotate(-50.86 -30.298 193.96)" d="M5.89 203.58h36.93v2.39H5.89z"/><path class="cls-2" d="M27.06 148.17l1.51-9.42-8.91 3.4 7.4 6.02z"/><path class="cls-3" d="M112.4 22.87h2.05v57.94h-2.05zM135.45 1.03h2.05v30.76h-2.05zM157.41 12.99h2.05v42.16h-2.05zM179.91 39.33h2.05v42.16h-2.05zM202.41 76.2h2.05v42.56h-2.05z"/><path class="cls-2" transform="rotate(-51 5.585 155.438)" d="M43.76 166.06h33.61v2.39H43.76z"/><path class="cls-2" d="M62.22 111.94l1.52-9.42-8.92 3.4 7.4 6.02zM105.72 26.02h15.42v45.26h-15.42z"/><path class="cls-2" transform="rotate(-49.82 36.534 123.495)" d="M79.93 132.81h24.85v2.39H79.93z"/><path class="cls-2" d="M91.34 82.28l1.69-9.39-8.98 3.23 7.29 6.16z"/><path class="cls-3" transform="rotate(-32.45 49.983 158.517)" d="M120.39 160.28h30.3v2.39h-30.3z"/><path class="cls-3" d="M137.93 111.75l4.41-8.47-9.53.41 5.12 8.06z"/><path class="cls-2" transform="rotate(-57.7 188.05 134.497)" d="M226.06 145.81h19.95v2.39h-19.95z"/><path class="cls-2" d="M232.88 95.92l.39-9.53-8.45 4.43 8.06 5.1z"/><path class="cls-5" transform="rotate(-12.32 36.74 191.526)" d="M256.26 144.65h2.39v31.05h-2.39z"/><path class="cls-5" d="M244.04 128.62l6.42 7.06 2.9-9.1-9.32 2.04z"/><path class="cls-5" transform="rotate(-15.42 96.46 232.02)" d="M272.47 198.36h2.39v26.81h-2.39z"/><path class="cls-5" d="M260.49 178.24l6.8 6.7 2.4-9.24-9.2 2.54z"/><path class="cls-2" d="M128.22 4.03h15.42v21.99h-15.42z"/><path class="cls-5" d="M195.73 77.64h15.42v39.55h-15.42z"/><path class="cls-3" d="M191.94 183.08c-12.17 0-23.59-7.17-32.14-20.18s-13.13-30-13.13-48.17 4.66-35.29 13.13-48.17 20-20.18 32.14-20.18 23.59 7.17 32.14 20.18 13.13 30 13.13 48.17-4.67 35.27-13.13 48.17-19.97 20.18-32.14 20.18zm0-134.65c-23.83 0-43.21 29.74-43.21 66.3S168.11 181 191.94 181s43.21-29.74 43.21-66.3-19.38-66.27-43.21-66.27z" transform="translate(-11.77 -46.38)"/><path class="cls-5" d="M150.72 14.51h15.42V50.4h-15.42zM173.23 41.18h15.42v43.83h-15.42z"/><path class="cls-6" d="M67.83 124.94h73.11v57.55H67.83z"/><path class="cls-3" d="M153.56 229.72H78.75v-59.26h74.82zM80.45 228h71.4v-55.83h-71.4z" transform="translate(-11.77 -46.38)"/><text class="cls-7" transform="translate(72.23 144.46)">Th<tspan class="cls-8" x="14.14" y="0">r</tspan><tspan x="18.4" y="0">ee Black</tspan><tspan x=".94" y="14.4">C</tspan><tspan class="cls-9" x="8.79" y="14.4">r</tspan><tspan x="12.96" y="14.4">ows after</tspan><tspan x="10.68" y="28.8">Upt</tspan><tspan class="cls-8" x="29.39" y="28.8">r</tspan><tspan x="33.66" y="28.8">end</tspan></text></g></g></svg>