<svg xmlns="http://www.w3.org/2000/svg" xmlns:xlink="http://www.w3.org/1999/xlink" viewBox="0 0 269.69 184.93"><defs><style>.cls-1{isolation:isolate;}.cls-2{fill:#2f8842;}.cls-3,.cls-7{fill:#231f20;}.cls-4{opacity:0.75;mix-blend-mode:multiply;}.cls-5{fill:#cc1f36;}.cls-6{fill:#fff;}.cls-7{font-size:12px;font-family:Roboto-Bold, Roboto;font-weight:700;}.cls-8{letter-spacing:-0.01em;}.cls-9{letter-spacing:-0.02em;}</style></defs><title>three_black_crows</title><g class="cls-1"><g id="Layer_2" data-name="Layer 2"><rect class="cls-2" x="5.89" y="203.58" width="36.93" height="2.39" transform="translate(-161.61 48.03) rotate(-50.86)"/><polygon class="cls-2" points="27.06 148.17 28.57 138.75 19.66 142.15 27.06 148.17"/><rect class="cls-3" x="112.4" y="22.87" width="2.05" height="57.94"/><rect class="cls-3" x="135.45" y="1.03" width="2.05" height="30.76"/><rect class="cls-3" x="157.41" y="12.99" width="2.05" height="42.16"/><rect class="cls-3" x="179.91" y="39.33" width="2.05" height="42.16"/><rect class="cls-3" x="202.41" y="76.2" width="2.05" height="42.56"/><rect class="cls-2" x="43.76" y="166.06" width="33.61" height="2.39" transform="matrix(0.63, -0.78, 0.78, 0.63, -119.16, 62.28)"/><polygon class="cls-2" points="62.22 111.94 63.74 102.52 54.82 105.92 62.22 111.94"/><rect class="cls-2" x="105.72" y="26.02" width="15.42" height="45.26"/><rect class="cls-2" x="79.93" y="132.81" width="24.85" height="2.39" transform="translate(-81.39 71.73) rotate(-49.82)"/><polygon class="cls-2" points="91.34 82.28 93.03 72.89 84.05 76.12 91.34 82.28"/><rect class="cls-3" x="120.39" y="160.28" width="30.3" height="2.39" transform="translate(-77.25 51.57) rotate(-32.45)"/><polygon class="cls-3" points="137.93 111.75 142.34 103.28 132.81 103.69 137.93 111.75"/><rect class="cls-2" x="226.06" y="145.81" width="19.95" height="2.39" transform="translate(-26.12 221.58) rotate(-57.7)"/><polygon class="cls-2" points="232.88 95.92 233.27 86.39 224.82 90.82 232.88 95.92"/><rect class="cls-5" x="256.26" y="144.65" width="2.39" height="31.05" transform="translate(-40.02 12.25) rotate(-12.32)"/><polygon class="cls-5" points="244.04 128.62 250.46 135.68 253.36 126.58 244.04 128.62"/><rect class="cls-5" x="272.47" y="198.36" width="2.39" height="26.81" transform="translate(-58.22 34) rotate(-15.42)"/><polygon class="cls-5" points="260.49 178.24 267.29 184.94 269.69 175.7 260.49 178.24"/><rect class="cls-2" x="128.22" y="4.03" width="15.42" height="21.99"/><rect class="cls-5" x="195.73" y="77.64" width="15.42" height="39.55"/><path class="cls-3" d="M191.94,183.08c-12.17,0-23.59-7.17-32.14-20.18s-13.13-30-13.13-48.17,4.66-35.29,13.13-48.17,20-20.18,32.14-20.18,23.59,7.17,32.14,20.18,13.13,30,13.13,48.17S232.54,150,224.08,162.9,204.11,183.08,191.94,183.08Zm0-134.65c-23.83,0-43.21,29.74-43.21,66.3S168.11,181,191.94,181s43.21-29.74,43.21-66.3S215.77,48.43,191.94,48.43Z" transform="translate(-11.77 -46.38)"/><rect class="cls-5" x="150.72" y="14.51" width="15.42" height="35.89"/><rect class="cls-5" x="173.23" y="41.18" width="15.42" height="43.83"/><rect class="cls-6" x="67.83" y="124.94" width="73.11" height="57.55"/><path class="cls-3" d="M153.56,229.72H78.75V170.46h74.82ZM80.45,228h71.4V172.17H80.45Z" transform="translate(-11.77 -46.38)"/><text class="cls-7" transform="translate(72.23 144.46)">Th<tspan class="cls-8" x="14.14" y="0">r</tspan><tspan x="18.4" y="0">ee Black</tspan><tspan x="0.94" y="14.4">C</tspan><tspan class="cls-9" x="8.79" y="14.4">r</tspan><tspan x="12.96" y="14.4">ows after</tspan><tspan x="10.68" y="28.8">Upt</tspan><tspan class="cls-8" x="29.39" y="28.8">r</tspan><tspan x="33.66" y="28.8">end</tspan></text></g></g></svg>
