<?xml version="1.0" encoding="utf-8"?>
<!-- Generator: Adobe Illustrator 21.1.0, SVG Export Plug-In . SVG Version: 6.00 Build 0)  -->
<svg version="1.1" id="Layer_3" xmlns="http://www.w3.org/2000/svg" xmlns:xlink="http://www.w3.org/1999/xlink" x="0px" y="0px"
	 viewBox="0 0 300 300" style="enable-background:new 0 0 300 300;" xml:space="preserve">
<style type="text/css">
	.st0{fill:#2F8842;}
	.st1{fill:#CC1F36;}
	.st2{fill:#F8B1B3;}
	.st3{fill:#9BD094;}
	.st4{fill:none;stroke:#CC1F36;stroke-width:4;stroke-miterlimit:10;}
	.st5{fill:none;stroke:#F8B1B3;stroke-width:2;stroke-miterlimit:10;}
	.st6{fill:none;stroke:#9BD094;stroke-width:2;stroke-miterlimit:10;}
	.st7{fill:none;stroke:#2F8842;stroke-width:4;stroke-miterlimit:10;}
	.st8{fill:none;stroke:#3F56A5;stroke-width:3;stroke-linecap:round;stroke-miterlimit:10;}
	.st9{fill:none;stroke:#3F56A5;stroke-width:3;stroke-linecap:round;stroke-miterlimit:10;stroke-dasharray:9.8169,9.8169;}
	.st10{fill:none;stroke:#3F56A5;stroke-width:3;stroke-linecap:round;stroke-miterlimit:10;stroke-dasharray:10.0949,10.0949;}
</style>
<rect x="180.7" y="89.7" class="st0" width="23.7" height="140.7"/>
<rect x="147.7" y="184.2" class="st1" width="23.7" height="45.1"/>
<rect x="114" y="141.2" class="st1" width="23.7" height="45.1"/>
<rect x="84" y="99.9" class="st1" width="23.7" height="45.1"/>
<rect x="61.3" y="75.8" class="st2" width="12.9" height="36.7"/>
<rect x="217.1" y="90.8" class="st2" width="11.8" height="58.1"/>
<rect x="237.2" y="148.9" class="st3" width="11.8" height="28.8"/>
<line class="st4" x1="95.8" y1="89.7" x2="95.8" y2="154.3"/>
<line class="st4" x1="125.8" y1="131.5" x2="125.8" y2="196.1"/>
<line class="st5" x1="222" y1="77.7" x2="222" y2="182.3"/>
<line class="st6" x1="243.1" y1="141.7" x2="243.1" y2="183.2"/>
<line class="st4" x1="159.2" y1="174.5" x2="159.2" y2="239.1"/>
<line class="st7" x1="192.5" y1="78.8" x2="192.5" y2="246.6"/>
<g>
	<g>
		<polyline class="st8" points="215.3,286.2 215.3,291.2 210.3,291.2 		"/>
		<line class="st9" x1="200.5" y1="291.2" x2="87.6" y2="291.2"/>
		<polyline class="st8" points="82.7,291.2 77.7,291.2 77.7,286.2 		"/>
		<line class="st10" x1="77.7" y1="276.1" x2="77.7" y2="18.7"/>
		<polyline class="st8" points="77.7,13.7 77.7,8.7 82.7,8.7 		"/>
		<line class="st9" x1="92.5" y1="8.7" x2="205.4" y2="8.7"/>
		<polyline class="st8" points="210.3,8.7 215.3,8.7 215.3,13.7 		"/>
		<line class="st10" x1="215.3" y1="23.8" x2="215.3" y2="281.2"/>
	</g>
</g>
</svg>
