<svg id="Layer_3" data-name="Layer 3" xmlns="http://www.w3.org/2000/svg" viewBox="0 0 234.55 235.47"><defs><style>.cls-1{fill:none;stroke:#231f20;stroke-miterlimit:10;stroke-width:2px}.cls-2{font-size:14.53px;font-family:Roboto-Bold,Roboto;font-weight:700}.cls-2,.cls-5{fill:#231f20}.cls-3{letter-spacing:-.01em}.cls-4{fill:#cc1f36}.cls-6{fill:#2f8842}</style></defs><title>three_white_soldiers</title><path class="cls-1" d="M7.98 42.49v88.13"/><text class="cls-2" transform="matrix(.94 0 0 1 42.31 12.43)">THREE WH<tspan class="cls-3" x="71.48" y="0">I</tspan><tspan x="75.51" y="0">TE SOLDIERS</tspan></text><path class="cls-4" d="M1 66.07h13.95v41.71H1z"/><path class="cls-5" d="M48.72 95.62v39.71h-12V95.62h12m2-2h-16v43.71h16V93.62z" transform="translate(-34.76 -28.55)"/><path class="cls-1" d="M33.14 72.38v88.14"/><path class="cls-4" d="M26.17 95.97h13.95v41.71H26.17z"/><path class="cls-5" d="M73.88 125.52v39.71h-12v-39.71h12m2-2h-16v43.71h16v-43.71z" transform="translate(-34.76 -28.55)"/><path class="cls-1" d="M58.23 78.69v111.1"/><path class="cls-6" d="M51.26 102.27h13.95v65.58H51.26z"/><path class="cls-5" d="M99 131.82v63.58H87v-63.58h12m2-2H85v67.58h16v-67.58z" transform="translate(-34.76 -28.55)"/><path class="cls-1" d="M144.24 121.45v111.1"/><path class="cls-6" d="M137.26 145.04h13.95v65.58h-13.95z"/><path class="cls-5" d="M185 174.59v63.58h-12v-63.58h12m2-2h-16v67.58h16v-67.58z" transform="translate(-34.76 -28.55)"/><path class="cls-1" d="M199.57 56.12v111.1"/><path class="cls-6" d="M192.59 79.7h13.95v65.58h-13.95z"/><path class="cls-5" d="M240.31 109.25v63.58h-12v-63.58h12m2-2h-16v67.58h16v-67.58z" transform="translate(-34.76 -28.55)"/><path class="cls-6" d="M164.93 103.1h13.95v65.58h-13.95z"/><path class="cls-5" d="M212.64 132.65v63.58h-12v-63.58h12m2-2h-16v67.58h16v-67.58z" transform="translate(-34.76 -28.55)"/><path class="cls-1" d="M95.81 151.71v56.41"/><path class="cls-4" d="M88.83 175.3h13.95v41.71H88.83z"/><path class="cls-5" d="M136.55 204.85v39.71h-12v-39.71h12m2-2h-16v43.71h16v-43.71z" transform="translate(-34.76 -28.55)"/><path class="cls-1" d="M121.57 209.49v25.98"/><path class="cls-4" d="M114.59 216.97h13.95v10.94h-13.95z"/><path class="cls-5" d="M162.31 246.52v8.94h-12v-8.94h12m2-2h-16v12.94h16v-12.94z" transform="translate(-34.76 -28.55)"/><path class="cls-1" d="M78.91 115.52v58.5"/><path class="cls-4" d="M71.93 138.52h13.95v13.1H71.93z"/><path class="cls-5" d="M119.65 168.07v11.1h-12v-11.1h12m2-2h-16v15.1h16v-15.1z" transform="translate(-34.76 -28.55)"/><path class="cls-1" d="M226.57 37.21V96.3"/><path class="cls-4" d="M219.59 60.1h13.95v13.95h-13.95z"/><path class="cls-5" d="M267.31 89.65v12h-12v-12h12m2-2h-16v16h16v-16z" transform="translate(-34.76 -28.55)"/></svg>