<svg id="Layer_3" xmlns="http://www.w3.org/2000/svg" viewBox="0 0 300 300"><style>.st0{fill:#2f8842}.st1{fill:#cc1f36}.st2{fill:#f8b1b3}.st3{fill:#9bd094}.st4{fill:none;stroke:#cc1f36;stroke-width:4;stroke-miterlimit:10}.st10,.st5,.st6,.st7,.st8,.st9{fill:none;stroke:#f8b1b3;stroke-width:2;stroke-miterlimit:10}.st10,.st6,.st7,.st8,.st9{stroke:#9bd094}.st10,.st7,.st8,.st9{stroke:#2f8842;stroke-width:4}.st10,.st8,.st9{stroke:#3f56a5;stroke-width:3;stroke-linecap:round}.st10,.st9{stroke-dasharray:9.8169,9.8169}.st10{stroke-dasharray:10.0949,10.0949}</style><path class="st0" d="M180.7 89.7h23.7v140.7h-23.7z"/><path class="st1" d="M147.7 184.2h23.7v45.1h-23.7zM114 141.2h23.7v45.1H114zM84 99.9h23.7V145H84z"/><path class="st2" d="M61.3 75.8h12.9v36.7H61.3zM217.1 90.8h11.8v58.1h-11.8z"/><path class="st3" d="M237.2 148.9H249v28.8h-11.8z"/><path class="st4" d="M95.8 89.7v64.6M125.8 131.5v64.6"/><path class="st5" d="M222 77.7v104.6"/><path class="st6" d="M243.1 141.7v41.5"/><path class="st4" d="M159.2 174.5v64.6"/><path class="st7" d="M192.5 78.8v167.8"/><path class="st8" d="M215.3 286.2v5h-5"/><path class="st9" d="M200.5 291.2H87.6"/><path class="st8" d="M82.7 291.2h-5v-5"/><path class="st10" d="M77.7 276.1V18.7"/><path class="st8" d="M77.7 13.7v-5h5"/><path class="st9" d="M92.5 8.7h112.9"/><path class="st8" d="M210.3 8.7h5v5"/><path class="st10" d="M215.3 23.8v257.4"/></svg>