<?xml version="1.0" encoding="utf-8"?>
<!-- Generator: Adobe Illustrator 21.1.0, SVG Export Plug-In . SVG Version: 6.00 Build 0)  -->
<svg version="1.1" id="Layer_3" xmlns="http://www.w3.org/2000/svg" xmlns:xlink="http://www.w3.org/1999/xlink" x="0px" y="0px"
	 viewBox="0 0 300 300" style="enable-background:new 0 0 300 300;" xml:space="preserve">
<style type="text/css">
	.st0{fill:#CC1F36;}
	.st1{fill:none;stroke:#CC1F36;stroke-width:4;stroke-miterlimit:10;}
	.st2{fill:#2F8842;}
	.st3{fill:none;stroke:#2F8842;stroke-width:4;stroke-miterlimit:10;}
	.st4{font-family:'Roboto-Bold';}
	.st5{font-size:14.2211px;}
</style>
<rect x="61.3" y="100.5" class="st0" width="37.3" height="103.6"/>
<line class="st1" x1="79.9" y1="72.9" x2="79.9" y2="230.5"/>
<rect x="108.1" y="152.8" class="st0" width="37.3" height="103.6"/>
<line class="st1" x1="126.7" y1="125.2" x2="126.7" y2="260.2"/>
<rect x="154.9" y="156.8" class="st0" width="37.3" height="29.5"/>
<line class="st1" x1="173.5" y1="129.2" x2="173.5" y2="213.6"/>
<rect x="202" y="128.7" class="st2" width="36.7" height="101.9"/>
<line class="st3" x1="220.5" y1="100.5" x2="220.5" y2="258.7"/>
<rect x="248.8" y="100.8" class="st2" width="36.7" height="78.8"/>
<line class="st3" x1="267.1" y1="72.6" x2="267.1" y2="202.7"/>
<rect x="14.8" y="129" class="st2" width="36.7" height="27.9"/>
<line class="st3" x1="33.1" y1="100.8" x2="33.1" y2="186.3"/>
<text transform="matrix(1 0 0 1 18.5796 48.1465)" class="st4 st5">Three Outside Down</text>
<text transform="matrix(1 0 0 1 163.4956 48.1465)" class="st4 st5">Three Outside Up</text>
</svg>
