<svg xmlns="http://www.w3.org/2000/svg" viewBox="0 0 222.49 225.67"><defs><style>.cls-1,.cls-4,.cls-5,.cls-6,.cls-7{fill:none;stroke-miterlimit:10;}.cls-1{stroke:#2f8842;}.cls-1,.cls-4,.cls-5{stroke-width:2px;}.cls-2{font-size:21.99px;fill:#231f20;font-family:Roboto-Bold, Roboto;font-weight:700;}.cls-3{fill:#2f8842;}.cls-4{stroke:#cc1f36;}.cls-5,.cls-6,.cls-7{stroke:#231f20;}.cls-6{stroke-width:3px;}.cls-7{stroke-width:4px;}.cls-8{fill:#cc1f36;}</style></defs><title>thrusting_pattern</title><g id="Layer_3" data-name="Layer 3"><line class="cls-1" x1="74" y1="151.63" x2="74" y2="225.67"/><text class="cls-2" transform="translate(37.61 18.81) scale(0.94 1)">Thrusting Line</text><rect class="cls-3" x="61.68" y="156.23" width="24.65" height="64.25"/><line class="cls-4" x1="44.33" y1="98.25" x2="44.33" y2="177.57"/><line class="cls-5" x1="1" y1="26.21" x2="1" y2="74.57"/><line class="cls-5" x1="11.33" y1="36.54" x2="11.33" y2="84.91"/><line class="cls-5" x1="21.67" y1="55.54" x2="21.67" y2="103.91"/><line class="cls-6" x1="136.67" y1="173.54" x2="136.67" y2="221.91"/><line class="cls-7" x1="147" y1="159.85" x2="147" y2="208.21"/><line class="cls-7" x1="157" y1="147.04" x2="157" y2="195.41"/><rect class="cls-8" x="32.01" y="103.9" width="24.65" height="67.33"/><line class="cls-4" x1="210.17" y1="32.1" x2="210.17" y2="98.59"/><rect class="cls-8" x="197.84" y="40.21" width="24.65" height="52.84"/><line class="cls-1" x1="179.33" y1="77.6" x2="179.33" y2="159.85"/><rect class="cls-3" x="167.01" y="82.2" width="24.65" height="69.43"/></g></svg>