<svg id="Layer_3" data-name="Layer 3" xmlns="http://www.w3.org/2000/svg" viewBox="0 0 233.53 219.43"><defs><style>.cls-1{font-size:11.11px;fill:#231f20;font-family:Roboto-Bold, Roboto;font-weight:700;}.cls-2{letter-spacing:-0.03em;}.cls-3{letter-spacing:-0.03em;}.cls-4{fill:none;stroke:#231f20;stroke-miterlimit:10;stroke-width:2px;}</style></defs><title>tristar</title><text class="cls-1" transform="translate(11.56 20.37) scale(0.94 1)">Bearish<tspan class="cls-2" x="37.98" y="0"> </tspan><tspan class="cls-3" x="40.42" y="0">T</tspan><tspan x="46.94" y="0">ri Star</tspan></text><text class="cls-1" transform="translate(147.59 18.37) scale(0.94 1)">Bullish<tspan class="cls-2" x="34.07" y="0"> </tspan><tspan class="cls-3" x="36.51" y="0">T</tspan><tspan x="43.03" y="0">ri Star</tspan></text><line class="cls-4" x1="111.64" x2="111.64" y2="219.43"/><line class="cls-4" x1="38.92" y1="71.26" x2="57.72" y2="71.26"/><line class="cls-4" x1="48.32" y1="51" x2="48.32" y2="91.52"/><line class="cls-4" x1="182.09" y1="189.26" x2="200.9" y2="189.26"/><line class="cls-4" x1="191.49" y1="169" x2="191.49" y2="209.52"/><line class="cls-4" x1="21.35" y1="107.66" x2="40.16" y2="107.66"/><line class="cls-4" x1="30.76" y1="91.52" x2="30.76" y2="124.76"/><line class="cls-4" x1="16.04" y1="124.26" x2="16.04" y2="164.04"/><line class="cls-4" x1="7.03" y1="143.65" x2="7.03" y2="183.43"/><line class="cls-4" x1="1" y1="158.11" x2="1" y2="197.89"/><line class="cls-4" x1="145.92" y1="47.78" x2="145.92" y2="87.57"/><line class="cls-4" x1="153.78" y1="59.92" x2="153.78" y2="99.71"/><line class="cls-4" x1="162.58" y1="67.67" x2="162.58" y2="107.46"/><line class="cls-4" x1="58.72" y1="107.66" x2="77.53" y2="107.66"/><line class="cls-4" x1="68.13" y1="91.52" x2="68.13" y2="124.26"/><line class="cls-4" x1="214.72" y1="132.05" x2="233.53" y2="132.05"/><line class="cls-4" x1="224.12" y1="123.54" x2="224.12" y2="151.04"/><line class="cls-4" x1="170.2" y1="140.29" x2="189.01" y2="140.29"/><line class="cls-4" x1="179.61" y1="122.73" x2="179.61" y2="163.04"/></svg>