<svg id="Layer_3" data-name="Layer 3" xmlns="http://www.w3.org/2000/svg" viewBox="0 0 233.53 219.43"><defs><style>.cls-1{font-size:11.11px;fill:#231f20;font-family:Roboto-Bold,Roboto;font-weight:700}.cls-2,.cls-3{letter-spacing:-.03em}.cls-4{fill:none;stroke:#231f20;stroke-miterlimit:10;stroke-width:2px}</style></defs><title>tristar</title><text class="cls-1" transform="matrix(.94 0 0 1 11.56 20.37)">Bearish<tspan class="cls-2" x="37.98" y="0"> </tspan><tspan class="cls-3" x="40.42" y="0">T</tspan><tspan x="46.94" y="0">ri Star</tspan></text><text class="cls-1" transform="matrix(.94 0 0 1 147.59 18.37)">Bullish<tspan class="cls-2" x="34.07" y="0"> </tspan><tspan class="cls-3" x="36.51" y="0">T</tspan><tspan x="43.03" y="0">ri Star</tspan></text><path class="cls-4" d="M111.64 0v219.43M38.92 71.26h18.8M48.32 51v40.52M182.09 189.26h18.81M191.49 169v40.52M21.35 107.66h18.81M30.76 91.52v33.24M16.04 124.26v39.78M7.03 143.65v39.78M1 158.11v39.78M145.92 47.78v39.79M153.78 59.92v39.79M162.58 67.67v39.79M58.72 107.66h18.81M68.13 91.52v32.74M214.72 132.05h18.81M224.12 123.54v27.5M170.2 140.29h18.81M179.61 122.73v40.31"/></svg>