<?xml version="1.0" encoding="utf-8"?>
<!-- Generator: Adobe Illustrator 21.1.0, SVG Export Plug-In . SVG Version: 6.00 Build 0)  -->
<svg version="1.1" id="Layer_3" xmlns="http://www.w3.org/2000/svg" xmlns:xlink="http://www.w3.org/1999/xlink" x="0px" y="0px"
	 viewBox="0 0 300 300" style="enable-background:new 0 0 300 300;" xml:space="preserve">
<style type="text/css">
	.st0{fill:none;stroke:#000000;stroke-width:2;stroke-miterlimit:10;}
	.st1{fill:#2F8842;}
	.st2{fill:#CC1F36;}
</style>
<g>
	<line class="st0" x1="117.9" y1="113.2" x2="117.9" y2="240.2"/>
</g>
<g>
	<line class="st0" x1="82.6" y1="200.3" x2="82.6" y2="256"/>
</g>
<g>
	<line class="st0" x1="63.7" y1="220.2" x2="63.7" y2="275.8"/>
</g>
<g>
	<line class="st0" x1="48" y1="242.2" x2="48" y2="290"/>
</g>
<g>
	<rect x="105.3" y="138.9" class="st1" width="25.1" height="80.3"/>
	<path d="M129.4,139.9v78.3h-23.1v-78.3H129.4 M131.4,137.9h-27.1v82.3h27.1V137.9L131.4,137.9z"/>
</g>
<g>
	<line class="st0" x1="172.9" y1="35.8" x2="172.9" y2="97.9"/>
</g>
<g>
	<rect x="158.4" y="52.9" class="st2" width="28.9" height="26.1"/>
	<path d="M186.3,53.9V78h-26.9V53.9H186.3 M188.3,51.9h-30.9V80h30.9V51.9L188.3,51.9z"/>
</g>
<g>
	<line class="st0" x1="227.9" y1="21.6" x2="227.9" y2="112.4"/>
</g>
<g>
	<rect x="213.7" y="38.9" class="st2" width="28.3" height="53.6"/>
	<path d="M241,39.9v51.6h-26.3V39.9H241 M243,37.9h-30.3v55.6H243V37.9L243,37.9z"/>
</g>
</svg>
