<svg id="Layer_3" xmlns="http://www.w3.org/2000/svg" viewBox="0 0 300 300"><style>.st0{fill:none;stroke:#000;stroke-width:2;stroke-miterlimit:10}.st1{fill:#2f8842}.st2{fill:#cc1f36}</style><path class="st0" d="M117.9 113.2v127M82.6 200.3V256M63.7 220.2v55.6M48 242.2V290"/><path class="st1" d="M105.3 138.9h25.1v80.3h-25.1z"/><path d="M129.4 139.9v78.3h-23.1v-78.3h23.1m2-2h-27.1v82.3h27.1v-82.3z"/><path class="st0" d="M172.9 35.8v62.1"/><path class="st2" d="M158.4 52.9h28.9V79h-28.9z"/><path d="M186.3 53.9V78h-26.9V53.9h26.9m2-2h-30.9V80h30.9V51.9z"/><g><path class="st0" d="M227.9 21.6v90.8"/></g><g><path class="st2" d="M213.7 38.9H242v53.6h-28.3z"/><path d="M241 39.9v51.6h-26.3V39.9H241m2-2h-30.3v55.6H243V37.9z"/></g></svg>