<svg xmlns="http://www.w3.org/2000/svg" width="512" height="512" viewBox="0 0 400 400"><g fill="#fff"><path d="M199.992 0C89.717 0 0 89.72 0 200s89.717 200 199.992 200C310.273 400 400 310.28 400 200S310.273 0 199.992 0zm0 373.77C104.178 373.77 26.23 295.816 26.23 200c0-95.817 77.947-173.769 173.762-173.769 95.822 0 173.776 77.953 173.776 173.769.001 95.816-77.954 173.77-173.776 173.77z"/><path d="M265.473 134.529c-5.123-5.123-13.422-5.123-18.545 0L200 181.454l-46.928-46.925c-5.123-5.123-13.424-5.123-18.547 0-5.123 5.12-5.123 13.426 0 18.546L181.447 200l-46.928 46.926c-5.123 5.119-5.123 13.422 0 18.547 2.561 2.562 5.918 3.842 9.273 3.842s6.711-1.28 9.271-3.842L200 218.543l46.928 46.932a13.068 13.068 0 0 0 9.271 3.842c3.354 0 6.711-1.279 9.272-3.842 5.123-5.119 5.123-13.426 0-18.545L218.545 200l46.928-46.925c5.123-5.12 5.123-13.423 0-18.546z"/></g></svg>
